/* XPM */
static char *result[] = {
/* columns rows colors chars-per-pixel */
"70 70 212 2 ",
"   c #0F0E0C",
".  c #100F0E",
"X  c #12100F",
"o  c #151312",
"O  c #191615",
"+  c #1B1917",
"@  c #1E1B19",
"#  c #211E1C",
"$  c #24211F",
"%  c #1E1B37",
"&  c #1E1B39",
"*  c #211E39",
"=  c #262321",
"-  c #292623",
";  c #2D2926",
":  c #2F2B28",
">  c #312D2A",
",  c #34302E",
"<  c #242037",
"1  c #23213B",
"2  c #2F393A",
"3  c #363331",
"4  c #393634",
"5  c #3B3936",
"6  c #35313A",
"7  c #3D3C39",
"8  c #4A3436",
"9  c #413E3C",
"0  c #3C443C",
"q  c #42413E",
"w  c #231E42",
"e  c #2A1F43",
"r  c #262245",
"t  c #362947",
"y  c #273143",
"u  c #353448",
"i  c #3C3452",
"p  c #343C58",
"a  c #3D3C5B",
"s  c #472949",
"d  c #512D48",
"f  c #4A3C45",
"g  c #493748",
"h  c #493A57",
"j  c #443D59",
"k  c #6A3251",
"l  c #2F564E",
"z  c #1C7251",
"x  c #2A6C56",
"c  c #375760",
"v  c #397B6C",
"b  c #444542",
"n  c #494545",
"m  c #464A46",
"M  c #494946",
"N  c #494A49",
"B  c #4B4D4A",
"V  c #54464A",
"C  c #4D524D",
"Z  c #4B5F4B",
"A  c #44415D",
"S  c #4A4459",
"D  c #4D5651",
"F  c #4E5A54",
"G  c #515652",
"H  c #525A55",
"J  c #545E58",
"K  c #645B41",
"L  c #645E50",
"P  c #516A4F",
"I  c #4C655B",
"U  c #54635C",
"Y  c #59645E",
"T  c #53695F",
"R  c #46755B",
"E  c #547D53",
"W  c #6A6146",
"Q  c #4A4966",
"!  c #544760",
"~  c #594C63",
"^  c #4D5766",
"/  c #5A576B",
"(  c #5A5874",
")  c #615C6D",
"_  c #566666",
"`  c #5B6760",
"'  c #556B62",
"]  c #5B6C64",
"[  c #567167",
"{  c #5C736A",
"}  c #5D7A6E",
"|  c #5E6375",
" . c #4A7D72",
".. c #547771",
"X. c #5E7D71",
"o. c #61736B",
"O. c #64786F",
"+. c #636A78",
"@. c #646C7B",
"#. c #657B72",
"$. c #6B767A",
"%. c #118D5C",
"&. c #168968",
"*. c #14956A",
"=. c #12996F",
"-. c #0E9D71",
";. c #149C77",
":. c #39856D",
">. c #36976D",
",. c #2F8973",
"<. c #279878",
"1. c #10A175",
"2. c #45815A",
"3. c #56855B",
"4. c #5B985B",
"5. c #63875C",
"6. c #448768",
"7. c #588375",
"8. c #509174",
"9. c #6B926D",
"0. c #648176",
"q. c #698177",
"w. c #65867A",
"e. c #6A857A",
"r. c #668A7C",
"t. c #6C8A7E",
"y. c #67AA68",
"u. c #6AAD78",
"i. c #6B6B84",
"p. c #6B7486",
"a. c #787A88",
"s. c #7B7B91",
"d. c #1C9C81",
"f. c #10A584",
"g. c #6D8C81",
"h. c #718D82",
"j. c #77888F",
"k. c #6B9283",
"l. c #6E968A",
"z. c #719286",
"x. c #769489",
"c. c #7A958A",
"v. c #749A8C",
"b. c #7A9B8E",
"n. c #7A8895",
"m. c #759F90",
"M. c #7C9D91",
"N. c #7BA395",
"B. c #79A496",
"V. c #7EA99B",
"C. c #899D8F",
"Z. c #848699",
"A. c #859C98",
"S. c #83A599",
"D. c #82A69A",
"F. c #84AA9C",
"G. c #8DAB98",
"H. c #9397A2",
"J. c #87AAA2",
"K. c #8AAEA2",
"L. c #8BB2A5",
"P. c #88B4A9",
"I. c #8DBAAC",
"U. c #96B8A8",
"Y. c #94B9AD",
"T. c #9AA7B1",
"R. c #98B2B2",
"E. c #94BEB2",
"W. c #99BDB3",
"Q. c #A5B3AC",
"!. c #A9B8B9",
"~. c #B1BDB6",
"^. c #94C1A6",
"/. c #95C1B4",
"(. c #9BC2B6",
"). c #9BC8B7",
"_. c #9DC5BA",
"`. c #9EC9BD",
"'. c #A6C7B3",
"]. c #AAC8B6",
"[. c #A2C6BC",
"{. c #A3C9BE",
"}. c #AFBCC1",
"|. c #ABC4C3",
" X c #A4CCC1",
".X c #AACDC4",
"XX c #ADCFC8",
"oX c #B6C9C7",
"OX c #B3CCCA",
"+X c #AAD1C7",
"@X c #ADD1C9",
"#X c #B3D2CC",
"$X c #B8D2CF",
"%X c #BBD5D1",
"&X c #BFD8D4",
"*X c #C5CEC8",
"=X c #CBD5CF",
"-X c #C9CED8",
";X c #C2D6D5",
":X c #C3D9D6",
">X c #CADBD5",
",X c #CDD6DC",
"<X c #CBDBDB",
"1X c #D1D4DE",
"2X c #D0DCDF",
"3X c #D9E4DD",
"4X c #D8D7E3",
"5X c #D3DDE1",
"6X c #DFEBE3",
"7X c #DEE0E8",
"8X c #E3E3EC",
"9X c #E7E6F0",
/* pixels */
"; ; ; ; ; - ; ; = ; ; ; ; ; - ; ; - ; ; ; - ; - - - = = - $ - - ; - - - - - $ - - ; - - ; - ; - ; ; - ; - ; - - ; - ; - - = = - - = - ; - - ",
"- - - - ; - - ; ; - = ; = ; ; = - - - - - - - - - - = = $ - - ; ; - - - - $ $ - - ; - ; ; - - - - - - - ; - ; - - ; - ; - = = - - - - - ; - ",
"- ; - - - - - - = = ; - - ; - - - - - - ; - - - - - = $ $ $ - - - - - ; - - - - - - - - - - - ; - - - ; ; - - - - - - - - = = $ - - - - - - ",
"- - - - ; - - - = = = = = - - - - - - - = = - - $ $ $ $ $ $ - - - - - - - ; $ - - - - - - - - - - - - - - - - - - - - - - $ $ = - - - - - - ",
"- - - - - - - = = $ $ = = ; = - - - = - $ $ $ - - # $ $ $ $ - - - - - - - - - - - - - - = ; ; = - = - - = ; - - - - - - - = $ - - = - - - - ",
"- - - - - = = = $ $ $ = = = - = - - = $ $ $ - - - $ $ $ $ $ - $ - $ - - $ - - $ - - = - = = = - - - - - = = - = = - = - - = $ - - - - - = - ",
"- - = - = - = $ $ $ $ $ = = = - - = - $ $ $ $ = $ $ # # $ $ - - - = - - - - - - = = - = = - = - = - = = - - = - - - - - - - - - - = - = - - ",
"= - - = = - = = $ $ $ $ = = = = $ - = $ $ # $ $ $ # $ $ $ $ $ - - $ $ - $ $ - $ - = = - = = = - = = - = = = = - = = = = = = = - - = = - - = ",
"$ - - $ $ $ $ $ $ $ # $ $ $ $ - = = = $ $ $ $ # # = = @ # $ = = = = = = = - = = = = = - = = = = $ - $ - $ - $ - = - = = - - = = = = - = - = ",
"- $ - - - $ $ $ $ $ $ # $ $ $ - = = = $ $ $ # $ # @ $ $ $ # $ = - - - - - - = = = = = = = = = = - $ - $ - $ - $ = $ = - $ = $ - - = = = - = ",
"$ - - $ - $ $ # $ $ # $ $ - $ - = = $ $ # # # # # $ $ = - - ; : > > , > > > : ; ; - = = = $ = = $ $ $ - $ $ $ $ $ $ $ $ $ - $ - $ = = $ = = ",
"$ $ $ - $ $ $ $ # $ $ $ $ $ $ $ $ = = # $ $ # # @ = ; : > : , 3 4 4 4 5 4 4 3 3 , : ; - = = = = $ - $ - $ - $ $ $ $ - $ $ $ = $ = - = $ $ = ",
"- - $ $ $ $ $ @ $ $ $ $ $ $ $ - = $ $ # $ $ # = ; ; , 3 4 5 5 5 9 q 0 q 9 9 7 5 4 4 , , : ; = = $ $ - $ $ $ $ $ # # $ # $ = $ = $ - - @ $ = ",
"$ $ $ - $ $ # $ $ $ $ $ $ - $ $ = = $ $ $ $ = ; : 3 6 7 9 q b b N B N C B B m b q u 5 4 , > ; = - $ $ $ $ $ $ # # # $ # $ $ $ = $ = = + $ = ",
"$ $ $ $ $ $ # $ $ $ - $ $ - $ $ $ $ $ = = - : , 4 5 0 b B C F F F J F J H F F C C M q q 5 3 , : - $ $ $ $ # # # # # $ # @ $ = = = $ @ + $ $ ",
"- - $ $ $ $ @ @ $ $ $ $ $ $ $ $ $ = $ = ; , 3 4 7 b m C G J J ' ] { { { { ' ' Y I D C B b 0 5 3 , : $ $ $ # # # # # # # # $ = $ $ = = $ = $ ",
"$ $ $ $ $ # # # $ $ $ $ $ $ = $ $ $ = : , 4 7 b m B F U ] { #.0.w.r.r.r.t.w.0.X.{ ' U F C m 0 5 , > - $ # # # # # # # # # # = $ = $ $ = $ $ ",
"$ $ - $ # # # # $ $ $ $ $ $ $ $ $ = : , 2 7 b N C J Y { 0.t.z.v.N.D.V.J.V.B.l.k.r.0.{ ] I F m q 5 3 > - = # # # # = = # # # $ $ = $ $ $ $ = ",
"$ $ $ $ # # # # $ $ $ $ $ $ $ $ $ : , 4 7 b B D U ] #.g.v.D.L.Y.E././././.E.I.P.V.l.r.7.] T F m 9 4 3 : = # # # = = # # # $ = $ $ $ $ $ $ $ ",
"$ $ $ $ # # # # $ $ $ $ $ $ $ $ < : 3 7 b B G ` { 0.z.D.L./.(. X.XXXXXXX.X.X|._./.P.B.l.0.{ U H M l 5 , ; = @ @ = # = # $ $ $ $ $ $ $ = $ $ ",
"$ $ $ $ # # @ # = = # $ = # = - ; 3 5 b N G _ o.w.b.F.E._.W.K.T.R.!.}.|.oXoXOXXX X`.E.J.m.r...U G m 0 5 > - @ = $ $ $ # $ $ $ $ $ = $ $ $ $ ",
"$ # $ $ $ # # # # # = $ = = # ; > 4 9 N G J { e.v.K.W. Xj.i t p j Q Q ( +.i.p.j.n.A.A.V.P.V.l.} U C b 7 3 : = = = # = $ $ $ $ $ $ $ $ $ $ $ ",
"$ $ # $ $ $ # # # = = = # = = : 4 7 b B J ] q.v.L.(. X#Xj.f * w t d u n V n y t h h a ^ `.`.).l.[ F B 0 5 : ; # $ # $ $ $ $ $ $ = $ $ $ $ $ ",
"$ $ $ $ $ # # # # = # # = # - , 4 b M H ` #.z.F.W.+X#X&Xa.K < w t t P P 5.E Z t h s s p `.`.).m.} T D m 7 3 ; = $ = $ $ = $ $ $ $ $ $ $ $ $ ",
"$ $ $ $ $ $ # # # $ $ $ $ = ; 3 5 b B J { e.S.Y.{.#X;X:Xa.W & w t d 3.4.y.y.E q f 8 d j |. XE.V.r.[ I B 0 6 > = = $ $ $ $ $ $ $ = = # = # = ",
"= $ # = $ $ = $ # = = $ = - : 6 9 N G ` #.c.F.[.@X&X:X4Xs.G * w s d 3.4.y.y.E V s k s A OXXX_.P.l.X.T D b 7 3 ; $ $ $ $ $ $ # % # = = # $ # ",
"$ = = # # = $ $ $ $ $ $ $ - > 5 b B H ] e.M.Y..X%X;X<X7Xs._ & r h T R 2.3.2.R I ^ ^ s Q -XOX XE.B.7.' F m 0 3 ; $ $ $ $ = # = # = # = = $ $ ",
"$ # = = = $ $ $ $ $ $ $ = ; 3 5 b B J o.t.F.W.#X%X<X4X8Xj.| & t ` >.>.*.%.z *.=.d.d.h ( -X-X+X_.F.k.[ U N 0 3 : = $ $ = = = = = # = = @ $ $ ",
"$ $ $ $ $ $ # = $ $ = $ $ : 3 9 b C Y O.x.K.{.#X;X<X7X8Xa.@.% t { >.>.>.z 0 %.-.f.d.! ( 1X,X@X`.P.l.} U C l 3 : - = # = $ # = $ = # = = $ = ",
"$ = $ $ $ $ $ = $ = $ = $ : 3 7 n G ] #.b.U.{.$X;X5X7X9Xa.$.% i { >.>.R *X6X~.:.d.d.! | 1X<X#X{.P.m.7.T D b 8 > - = = = = = = = = = = = = = ",
"= $ = : , # # = = $ = $ $ ; 3 q N G ] #.M.Y. X%X>X2X7X9Xa.+.% i ..<.x 3X^.F.^.C.<.<.~ ( 4X,X$X.XI.B.0.U F b 4 , ; # # = # = = # = = = = = = ",
"$ $ = ; : # # = $ = $ = = 2 2 7 M G ` #.b.R..X%X>X5X8X9X$.@.% i ..;.r.G.=XG.Q.].8.6.~ i.1X1X$X{.I.N.7.T D m 2 , ; = = = = = = = = @ = = = = ",
"= $ = $ # @ @ = # = $ = = > 4 7 n G ] #.M.Y.+X%X:X5X8X9X$.I & S [ x Q.9.Q.0 C.>XR R ) i.4X1X#X.XI.B.X.' D l 8 > ; = $ = $ = $ = $ = $ $ $ $ ",
"$ = $ # # @ # = = $ = = = > 3 q n G ` #.x.Y.{.%X:X5X8X8Xi.^ & S  .&.A.u.*Xt.U.oX6.2.~ s.4X1X#X XP.m.X.' C b 4 > - = = = = $ = $ = $ = = ; # ",
"= $ = $ = # @ = = = = = = : 3 0 n G Y O.x.L.'.#X:X2X8X8X$.2 1 j v =.l =X'.3X].C.>.6.! s.1X,XOX`.L.l.} U Z b 5 > - = = = $ = = = = = $ $ ; + ",
"= = = = $ # # = = $ = = = ; , 5 b C J o.g.F.(.#X%X<X4X8X) # % j v =.&.S.Q.U.Q.6.<. .! s.,X;X@X_.F.l.] I B q 3 : = = = = = = = = = = $ $ # @ ",
"= = $ = = @ = = = = = = $ ; , 4 b B H o.e.C.Y.{.%X:X2X7X/ 8 < S v -.=.&.6.7.,.<.d.,.Q s.,X#X+XE.B.r.T I M q , ; # $ = = = = = = = = = $ # # ",
"= = = = = = = = = = = = $ ; > 0 9 M G Y O.c.K.[.#X&X:X7X| K < S v =.-.-.&.&.1.f.f.,.j Z.%X@X XP.v.7.T D q 5 , - # $ = = = $ = $ = = = = = = ",
"= = = = = $ = = = = = = $ ; > 3 9 n B J o.t.S.Y..X#X:X>X( K * i v -.<.:.v c c c l p i n.#X+X XV.t.{ I B q 4 : $ $ # = = = = = = = = = = = = ",
"= = = = = = = = = = = = $ $ : 3 5 q V H Y #.t.F.(.+X%X&X/ 6 * e t g f t r u L W j w r n.+X X(.l.O.T D M q , ; $ # = = = = = = = = = - = - = ",
"= = = = = = = = ; $ $ $ - $ ; > 4 9 n C J ] q.c.L.[..X$X+.< * w 6 b V S j A A j A ^ p.R.`./.P.w.[ J C q 5 > - $ $ # = = = = = - = = - = - = ",
"= = = = - = $ $ $ $ ; $ $ - $ : , 5 q B G Y o.e.c.U.(.{.R.j.+.i.a.s.Z.H.T.!.}.OXOX#X X(.L.N.g...U D b q 3 : $ $ # $ = = - = = = - = = = - = ",
"= = = = = = # $ $ - $ - ; ; $ ; , 5 9 q C H ` o.e.b.K.W.'..X.X.X#X%X&X&X:X&X%X#XXX[.E.L.M.t.{ U D B q 5 , ; $ $ $ $ = - = = - = = = ; = = = ",
"- - = - = # $ $ $ $ ; $ $ $ $ ; - , 4 q q V H ` o.$.x.G.U./.[..X+X#X@X#X+X+X{.{./.I.D.v.w.} Y F B q 7 3 > $ - $ $ $ = = - = - = - = = = - = ",
"= - - $ = $ # = $ ; $ - $ ; $ $ $ > 3 5 q q G H Y o.#.t.b.S.L.U.(.).[.[.W.W.Y.L.F.M.z.q.] Y H B b 7 4 , ; - $ $ $ $ $ - - - = - ; = = - - = ",
"- = - - = # $ $ $ $ ; $ - $ ; - $ ; : 3 9 q q V G J ` O.q.t.x.S.S.G.F.F.D.S.M.c.h.0.{ ] U F B q 7 4 , ; $ - $ $ $ $ $ $ = - - = = - - = = - ",
"- = - - = $ $ $ $ - - ; $ - ; $ ; $ : , 4 5 q M B G J J ] o.O.$.e.t.h.h.h.e.q.O.{ ] U H C B q 9 4 , ; = - - $ $ $ $ $ = = - - = = - - = - - ",
"- - $ - - $ $ $ $ $ - $ - - $ ; $ ; $ ; : 3 8 q n M V G H J Y ` ] { o.o.{ ] ] Y J H C B b q 9 4 , : - - - - $ $ $ $ $ $ - - - - - - - - - - ",
"- - = - = = $ $ $ - - = - - $ - = - = - - > 8 , 8 q q M B C G J J J J J U H H D C B q q q 8 8 > : - - - - - = = $ $ $ $ - - - - - - - - - - ",
"- - - - - = = = $ $ - - - - - - - - - - - - : , , 5 9 q b n M B V C B C B C M M q q q 0 3 , : ; - - - - - - - $ $ $ $ $ - - - - - - = $ - = ",
"- - - - = = = = $ = - - - - - - - - - - - - - ; , 3 3 5 5 7 9 9 q q q q 9 9 q 5 9 8 , > > ; - = - - - = - - - = = $ - - - - - - - - 8 > $ = ",
"- - ; - ; = = = - $ - - - - - - - - - - - = = = $ $ $ $ = - = - - $ - - $ $ $ $ $ $ $ $ + $ # $ $ $ $ = = - - - - $ $ $ - - ; - - = = - # $ ",
"- ; - ; - ; - = $ $ - ; - - ; - - - = # # # @ O + O o o o o X o O X o o o o o o X X o o o O O O @ @ # # $ $ = = - - $ $ - - ; - - ; - - # - ",
"; - - - - - - = - - - - - - - - # # # # + + O O O X X X . .   . . . . X     X         X o X o O + + @ @ # # $ = $ - $ - - - ; - - ; - - $ - ",
"- ; - ; ; - - - - - - - - $ $ $ # # # + + + O O X X X X . X . .     .     X       X X X X O O + + + @ @ # # = $ - - - ; ; - - ; ; - ; - - - ",
"; - ; - - ; ; - ; - ; ; - $ $ $ # # # # @ + O O O O X O X X X X X X X X         X X X X o O O + + @ @ # # # = = - - - - ; ; - ; - ; ; ; ; $ ",
"; ; $ ; ; : ; ; ; - - ; - - $ - = = # # # # @ @ # O O O o o o o o X o o X X X X o o o O O O + + # # # $ $ $ - $ - ; ; ; ; ; ; ; - ; ; ; - - ",
"; ; : : ; $ ; - - ; ; - - : - - - = - = = $ = $ # # # # # # + # + + + + + + o + O + + + + + # # # $ $ $ - - ; ; - ; - ; ; - - ; ; ; - ; - - ",
"; ; : - ; ; ; ; : ; ; ; ; ; : - ; ; ; ; ; = - = $ $ - $ $ $ $ $ $ $ $ $ $ $ # $ # # # # # $ = - - - - ; ; ; ; ; ; ; ; ; ; ; ; ; ; ; ; ; ; - ",
"$ ; - ; ; ; ; ; ; ; ; ; ; ; ; : ; ; - ; ; ; ; ; ; ; ; ; - $ - ; ; ; - ; $ $ $ $ = = - = - = = ; ; ; ; ; ; ; ; ; ; ; ; ; ; ; ; ; ; ; ; ; ; - ",
": ; ; ; ; ; ; ; ; ; ; ; ; : - : ; ; ; ; ; : ; ; ; ; ; ; - - : - ; ; ; ; : $ - - = - = - - = - - ; ; ; ; ; ; ; ; ; ; ; ; ; ; ; ; ; ; ; > > ; ",
": : ; : ; : ; : ; ; ; ; : - - : ; : ; ; ; ; ; ; ; : ; ; - ; ; : ; ; ; ; : - : - - - - - = - - ; ; ; ; ; ; : ; : : ; ; ; ; ; : ; ; > ; ; ; ; ",
"; ; : ; ; ; ; : : ; : : : : : : - ; ; ; : : : ; ; ; ; : : ; ; : : ; ; : ; : : $ - - - = - - - ; > ; : ; ; ; : ; ; : : : : ; ; ; ; ; ; ; ; > ",
": : : : : : : ; : ; : - : : - : ; - : : : ; : ; : : ; ; ; ; : ; : : : ; ; : : ; - - - - - - ; ; ; ; : ; : ; : : : ; > ; ; : ; : ; ; > > ; ; ",
": : ; : : : : : > ; ; > > ; > ; ; ; > ; ; ; > ; > ; ; > ; ; ; > ; ; ; ; > ; - - - - - - - ; ; ; ; > ; > ; > ; ; ; ; > ; K > ; ; ; ; > ; ; ; ",
": : > : > : : : > ; > ; ; > ; > > > ; > > ; > ; ; > ; > > > > ; > ; > ; > ; ; - ; - - ; ; ; ; > > ; > ; ; > ; ; > ; > ; ; - - ; > > > ; > ; ",
"> > : > : > > : > > > > > > ; ; ; ; > > ; > ; > > ; > ; > ; > ; > ; ; ; > ; ; ; - ; - ; ; ; > ; ; ; > > > ; ; - ; > ; > ; - $ ; ; > ; > ; ; ",
"> > > > > : : > > > > > > ; ; ; > > > ; > > > > > > > > > > > > > > > > > > ; ; - - - - ; > > > > > > ; > > > ; > > > > ; ; ; ; > > > ; ; ; ",
"> > > > > > > > > > > > > > ; ; ; > ; ; > > > > > > > > > > > > > ; > > > > ; ; ; ; ; - ; > > > ; > > > > > ; > > > > > ; ; ; > > > ; > ; > ",
"> , > > > > > > > > > > > > ; : ; > > ; ; > > > > > > > > > > > > > > > > > > ; ; - ; - ; > > > > > > > > > > > > > > > ; ; ; > > > > ; > 8 "
};
