/* XPM */
static char *aefcc4e306b5420dc63de97542336e91aVoqxs46J7a1FZAO[] = {
/* columns rows colors chars-per-pixel */
"70 70 233 2 ",
"   c #050606",
".  c #051905",
"X  c #0A1E0B",
"o  c #0E0D11",
"O  c #100F14",
"+  c #121114",
"@  c #181A19",
"#  c #351701",
"$  c #211F1D",
"%  c #0C250C",
"&  c #182916",
"*  c #0B3012",
"=  c #143415",
"-  c #183A19",
";  c #28300E",
":  c #272816",
">  c #292C16",
",  c #24211F",
"<  c #26291A",
"1  c #2C2B1B",
"2  c #322A18",
"3  c #2A3519",
"4  c #353B1A",
"5  c #1C1C23",
"6  c #1B1B24",
"7  c #262321",
"8  c #292623",
"9  c #262927",
"0  c #2C2926",
"q  c #2E2A2A",
"w  c #352D26",
"e  c #312D2B",
"r  c #2E3222",
"t  c #263924",
"y  c #363723",
"u  c #35312E",
"i  c #2D2C35",
"p  c #322E31",
"a  c #2D3136",
"s  c #353234",
"d  c #393534",
"f  c #333E36",
"g  c #3D3935",
"h  c #35333A",
"j  c #3A363A",
"k  c #3C393E",
"l  c #53280C",
"z  c #583C0A",
"x  c #6D3302",
"c  c #6A3104",
"v  c #423B26",
"b  c #533D2E",
"n  c #423D39",
"m  c #19431A",
"M  c #19481B",
"N  c #1C511D",
"B  c #30481C",
"V  c #25531F",
"C  c #0F5223",
"Z  c #195422",
"A  c #284927",
"S  c #394527",
"D  c #285625",
"F  c #225C24",
"G  c #384536",
"H  c #385930",
"J  c #1F6929",
"K  c #266728",
"L  c #266B2A",
"P  c #25772F",
"I  c #2A752E",
"U  c #327231",
"Y  c #337634",
"T  c #4F480F",
"R  c #784B0B",
"E  c #6D5315",
"W  c #44492C",
"Q  c #44473A",
"!  c #554B39",
"~  c #475535",
"^  c #505634",
"/  c #6C5038",
"(  c #4A6F35",
")  c #363643",
"_  c #383744",
"`  c #3E3B42",
"'  c #3C3B4B",
"]  c #413E44",
"[  c #433F49",
"{  c #3B5142",
"}  c #3C7546",
"|  c #444146",
" . c #4A4A47",
".. c #45424A",
"X. c #49454E",
"o. c #454354",
"O. c #4A4751",
"+. c #4C4954",
"@. c #49475B",
"#. c #4D4B5A",
"$. c #504C56",
"%. c #514E5B",
"&. c #4A5550",
"*. c #575657",
"=. c #54515E",
"-. c #665B4D",
";. c #4E6D4F",
":. c #576647",
">. c #72664A",
",. c #4E4D61",
"<. c #565261",
"1. c #595665",
"2. c #575569",
"3. c #57566C",
"4. c #5D5A6A",
"5. c #615D6E",
"6. c #625E71",
"7. c #615E78",
"8. c #5B6D6A",
"9. c #66666A",
"0. c #656175",
"q. c #696974",
"w. c #66637A",
"e. c #6A667B",
"r. c #6C697E",
"t. c #6E7773",
"y. c #8E4904",
"u. c #9D5D0D",
"i. c #975920",
"p. c #A15E41",
"a. c #8B704F",
"s. c #A76546",
"d. c #B4754D",
"f. c #927B6C",
"g. c #358E39",
"h. c #37983C",
"j. c #3D9042",
"k. c #3DA643",
"l. c #3FB448",
"z. c #4B8158",
"x. c #41B548",
"c. c #5B886B",
"v. c #73837B",
"b. c #80922C",
"n. c #928851",
"m. c #B59257",
"M. c #9E8D75",
"N. c #B09272",
"B. c #C88A58",
"V. c #D19456",
"C. c #DB9C64",
"Z. c #E09F64",
"A. c #DAA96B",
"S. c #E5AC6C",
"D. c #E6B367",
"F. c #EBBA74",
"G. c #EAC47B",
"H. c #ECC57C",
"J. c #F3C87E",
"K. c #5C728A",
"L. c #686782",
"P. c #6E6B82",
"I. c #6D6D8D",
"U. c #716E85",
"Y. c #716F8D",
"T. c #6F788C",
"R. c #777A86",
"E. c #75728B",
"W. c #79758E",
"Q. c #6F6F91",
"!. c #706F90",
"~. c #727192",
"^. c #7A7692",
"/. c #7D7995",
"(. c #787699",
"). c #7E7B9A",
"_. c #807A85",
"`. c #847E95",
"'. c #817E9B",
"]. c #827FA4",
"[. c #6A8B82",
"{. c #7E818E",
"}. c #6C8AA7",
"|. c #789ECE",
" X c #828587",
".X c #84819E",
"XX c #8A9593",
"oX c #B9AF9F",
"OX c #8682A3",
"+X c #8A86A5",
"@X c #8986A8",
"#X c #8D8AAB",
"$X c #908CAE",
"%X c #8891AB",
"&X c #928EB2",
"*X c #9591B5",
"=X c #9593B9",
"-X c #9A96BB",
";X c #9C99BD",
":X c #A79DB0",
">X c #93A5B6",
",X c #C6AB88",
"<X c #D3B489",
"1X c #D6BB97",
"2X c #CEBEA7",
"3X c #DDC39D",
"4X c #ECC782",
"5X c #F4CD84",
"6X c #F8D28C",
"7X c #E4C29D",
"8X c #FDD893",
"9X c #FBD995",
"0X c #DAC4A5",
"qX c #E5C7A3",
"wX c #EACCA5",
"eX c #EBCEA9",
"rX c #F2D3AE",
"tX c #FDE3A4",
"yX c #9D9AC3",
"uX c #A09DC5",
"iX c #90A6CA",
"pX c #A4A8C9",
"aX c #ACA8D7",
"sX c #ACAFD6",
"dX c #85AAE0",
"fX c #B9B5E5",
"gX c #BEBAEC",
"hX c #BFBAF1",
"jX c #C0BDE7",
"kX c #C1BDEB",
"lX c #C1BDF2",
"zX c #C2BDF3",
"xX c #C7C2F5",
/* pixels */
"8 0 0 8 8 0 0 0 8 0 8 0 0 0 e 0 8 0 0 0 8 0 0 0 0 0 0 8 8 0 0 8 0 8 0 0 0 0 0 0 q 8 8 q 8 q 8 0 0 8 0 0 0 8 q 0 e 0 1 0 0 0 8 0 0 0 0 0 0 0 ",
"0 0 0 0 0 0 8 0 8 0 0 0 w g n w 7 8 8 7 7 8 8 8 7 8 8 , 7 8 7 7 7 8 7 , 7 7 7 7 7 5 7 8 7 7 7 7 7 8 7 7 7 7 e n g g d 8 8 8 8 8 8 8 8 8 0 8 ",
"8 0 8 8 0 8 8 8 8 8 8 u d g *. .O + + O + + + + + + O + + + + + + + o o o o o o o o o o o o o o o o o     o ,  .d n u 0 8 0 8 0 8 0 8 8 8 0 ",
"0 8 8 8 8 8 8 8 8 0 8 u g n @ *XkXkXkXgXgXgXkXgXgXkXkXkXkXkXkXkXkXkXfXyXyXyXyXyXyXyXyXyXyXyXyXyXyXyX@XI.Q.I.I.h d n u 8 8 8 8 8 8 8 0 8 8 8 ",
"8 8 8 8 8 8 8 8 8 8 8 8 0 t.E.aXzXzXaX3.3.3.3.~.xXzXhX).OXzXzXzXzXfX}.,.yXyX7.o.,.@.' ,.).yX@X' o.o.' ) ) L.I.3.*.n 0 8 8 8 8 8 8 8 8 8 8 8 ",
"8 8 8 8 8 8 8 8 8 8 7 8 , 5 zXzXzXuXL.e.7.w.w.].zXzXgX@.a ).gXzXzX].h o yXyXL.,.{ o ,.,.@XyXQ.' ' O 6 ' ' I.!.!._ + 7 8 8 8 8 8 8 8 8 7 8 8 ",
"8 8 8 8 < 8 7 8 7 8 8 8 7 5 xXzXzX].p zXlXlXzXhXzXzXgXe.5 ' fXkXkX2.+ ) %XyXyXyX).6 yXyXyXyX(.Q.I.O ) Q.Q.Q.Q.!._ + 8 7 8 8 < 8 1 8 0 , , 8 ",
", 8 8 , 8 8 8 7 , 8 7 8 , 7 xXzXzXOXi zXlXlXzXzXzXzXhXfX~.o.fXgXaX,.@.=Xz.yXyXyX(.6 &XyXyXyX*XQ.I.6 ) Q.Q.Q.!.!.) + $ 7 7 7 8 8 8 8 , 0 , 8 ",
"8 8 8 8 8 8 8 $ 8 , 8 , $ 6 zXzXzX].i zXkXkXkXzXzXjXsXc.zX-X6 &Xi 7.uX[.P [.yXyX8.5 yXyX).Q.Q.Q.Q.+ _ !.~.!.!.!.) + $ $ $ 8 $ 8 , 8 , 8 8 8 ",
", , , 8 $ , 8 8 , 8 7 8 $ 6 xXzXzX].+ 3.<.<.<.~.zXjXsXI ;.-XL.@.&.{.;X[.Y c.-XyXc.5 =XyX).!.!.Q.Q.6 _ !.E.!.~.~.j + $ 2 $ $ $ $ , 8 8 , 8 , ",
"8 , 8 , 8 , 8 7 7 7 7 , $ 5 xXzXzX].6 P.P.I.P.].gXzXsXI ~ :.`.9 z.v.+X[.A P  XXXP 9 =X%X(.Y.(.!.I.6 _ !.!.!.~.!.) + $ $ $ $ $ $ , $ $ 8 , 8 ",
", 8 , 8 , 8 7 7 7 7 8 , $ 7 xXzXzX].h zXhXzXzXhXgXgXpXU w G :.:.;.z.[.;.% U ;.8.L i +X(.(.!.(.!.I.6 ' !.!.!.!.!.) + $ $ $ $ $ $ $ $ $ $ 8 , ",
", , 8 , 7 $ 8 7 7 7 7 7 $ 5 zXzXzX].) zXgXgXfXpX>XfXpXY w 4 4 :.;.H t.:.  & ~ :.t i ~.(.(.Q.!.(.!.5 ' !.!.~.Y.~.) O $ $ $ $ $ $ $ , 8 8 8 , ",
"8 , 8 , 7 , $ 7 7 7 , 7 $ 5 xXzXhXOX' kXfXfXfXpXY iXfXc.w 4 3 A ( :.~ ( < @ y :.&.L Q.(.(.(.!.(.!.5 ' ~.~.~.!.!.) O $ $ $ 8 $ $ , , , , $ 8 ",
", , , , 7 7 7 7 , 7 , 8 8 q kXzXzXaX].{ o.o.@.U.c.Y %X;.r r r 3 W ^ ~ S ~ r y W ;.U ' ' L.(.(.(.~.5 ' (.~.~.Y.I.n 7 q , $ 8 8 $ , , 8 $ 8 $ ",
"8 , 8 , 7 7 $ 7 7 $ , p n n 5.aXzXhXaXE.~.E.W.+XpX^ :.;.r w 2 1 > y S 3 Q 3 3 S :.( 7.4.Y.).).(.(.,.7.~.~.~.!.,.d n v $ 8 $ 8 $ $ 8 $ 8 $ 8 ",
"$ , 8 $ $ $ 8 $ 7 7 8 p _ n n 6.'.'.].].} t.[.T..XU 4 ! y 4 1 1 > 1 1 1 y 2 2 3 ~ :.t.9.L.7.7.3.3.3.,.,.@.@.n n ] *.0 , , , , 7 , , , , , , ",
", , , , 8 $ 8 $ 5 7 8 8 g ]  ...i p h ) G Y Y H ( ~ 4 4 y 1 1 0 1 1 1 1 > > 3 : S ^ ~ *.@.[ [ h h i i 9 5 @ n n  .*.e e 7 , 7 $ , , , 8 , , ",
", 8 $ $ $ , $ $ 7 8 8 q q p h _ ] [ +.,.<.;. .^ ^ ^ ~ 4 ; > 1 1 1 < 1 1 > ; 1 > > ~ ~ 9.6.5.<.%.o..._ h d p 0 0 0 p n g 8 $ $ 7 , , , , , , ",
", , $ $ , , $ 8 8 8 8 q p h n ] [ +.=.4.6.8.G 3 B S G S > > > < 0 < 2 1 2 1 2 > 1 y S 9.L.w.6.1.%.O...` h h i 0 0 w w e 8 7 7 $ , , , , , , ",
", , , , , , , 8 8 q q p d _ [ ..+.<.4.6.L.E.4.3 > > > > > : : &.v ! -.>.v W / n W 4 S t.W.U.e.6.1.=.O...] j h q q 8 7 7 $ 7 $ $ $ , , , , , ",
", , , , , , 8 8 8 q i p k ] [ +.<.4.w.P.E.'..Xn 0 1 > < : : f }.oX1X0XeX,X1X3X1XN.y W R.].`.E.e.6.4.%.O...` h e 7 8 8 , $ $ $ $ $ $ , , , , ",
", , 5 , , 7 7 8 0 q s j ] [ +.=.4.w.U.W.'.#X*X9.1 1 < < : > K.|.2X0XeXeXwXwXeXwXrX>.!  X&X@X).E.r.6.3.%...[ k h i 8 8 7 $ $ $ $ $ $ $ , , , ",
", , , , , 7 8 0 e e h _ [ ..%.4.0.P.W.'.#X-X$X=.0 > : < < : iXdXoX1X1X1XwXwXwX3X1X,X/ 9.uX&X+X'.E.e.6.1.#...] h i q 8 7 , $ $ $ $ $ , , , , ",
", , , , 5 8 q q q h ) ] [ %.1.6.r.E.'.#X-X+X%.r H 4 : < < 2 %XdX0X2X3X7XeXeXqX7X7X7X>.w 6.-X&X+X`.U.e.5.<.+.[ ) h s 8 8 6 5 7 , $ $ , , , , ",
", , 7 , 7 8 q 8 i h ] [ +.%.5.e.E.).#X-X+X#.$ $ t D & , 2 # >.eXwXwXqXeXeXeXeX7X7X7X>.: 7 5.;X&X].`.U.7.5.%.[ ] h p q 8 8 7 7 , $ : , , , , ",
"7 , , , 7 8 q q p j ] [ %.5.7.U./.+X*X$X%.$ $ 7 @ 3 K ; -.>.N.eXqXwX,XwXwXeXeX<X7X1Xa.$.$ 8 0.uX&X'.W.e.5.<.+.[ ] h q 8 8 7 , , $ $ $ $ , , ",
", , , 7 8 8 q p h ] [ +.<.5.r.E..X&XuX5.7 , 7 $ 7 , , G N.N.wXwXqXeX3XeXwXeXeXeXwX1X>.-.7 @ p W.-X#X'.U.7.3.<.[ ] h p q 8 7 , $ $ $ $ $ $ $ ",
", , 5 8 8 q q p j ] ..%.4.7.U.'.@X-XW.p , , , 7 7 , , e f.a.qXqXeX9XeXeXwXeXwXwXeX1Xa.-.$ $ $ X.$X*X].^.P.5.<.| [ j h q 8 8 5 7 $ $ $ $ $ $ ",
"7 , 7 7 8 q p p n [ +.%.5.r.W.'.*X=X%., , 7 , 7 , 7 7 7 w -.M.2XrXwXeX7XeXqXeXwXeX1Xb 8 $ $ $ $ w.;X$X`.U.7.5.$.[ ] h p q 5 7 , $ $ $ $ $ $ ",
", , , 7 8 8 i s _ [ $.1.6.U./.@X-XE.q 7 7 7 , $ 7 7 , & , , m ( A.0XwXeX3XN.7X7X<X! , $ $ $ $ 7 [ $X&X].E.L.5.=.[ [ ) p q 8 8 7 $ $ $ $ $ $ ",
"7 7 7 8 8 q i h ] [ %.4.e.U.'.$XuX<.7 , , 7 7 7 , 7 , 7 U V K K D a.<X7X7X7XN.a.v , $ , , 8 8 $ 8 U.;X#X`.U.5.1.#.[ ] i q 8 8 7 , , $ $ $ $ ",
"7 7 8 8 0 q s h ] O.%.5.e.W.'.*X@X` , 7 , 7 7 , , , 1 h.l.L I K K A R s.p.i.- t , , , , , 7 , 7 , 1.uX$X'.U.7.1.+.[ n h e q 8 7 $ , $ $ , $ ",
", 5 8 8 0 q d k [ O.<.6.r.W.#X=XW.7 7 7 7 , 7 7 8 3 k.x.h.F J g.L F V z x B * - - , < 8 7 , 7 , 7 [ &X&X'.E.e.5.%.[ ] h p q 8 8 8 7 7 7 , 7 ",
"7 , 7 0 q i h k [ +.<.6.U./.@XuX0.7 7 , 7 , , 7 8 h.x.h.( m.m.( P I I R u.J F = & , 7 7 , , 7 , 7 p '.*X+XE.e.5.%.X.] j p q q 8 7 , , , 7 , ",
"7 7 7 0 q q h ` [ +.1.6.U./.@XyX4.7 7 , 7 7 , 8 9 x.h.( G.tXJ.Z.( P Y R u.P F V & $ 7 7 8 , 8 , 7 8 E.=X+XW.r.5.<.X.[ k h q i 8 8 , 8 8 , 8 ",
"7 7 8 0 q p h ` ..+.1.0.U./.$XuX=.7 7 7 7 , 7 , Y h.L a.G.5XtXH.Z.I U R u.P Z Z & 7 7 7 2 , 8 , 7 7 U.-X+XW.r.6.<.O.] k h e q 8 8 , 8 , , 7 ",
"7 7 8 0 q p d ` ..%.2.0.U.'.$XyX%.7 7 7 7 , 7 , g.K V V.G.G.6X8XD.Y U R u.P F Z & 8 / / n.8 $ 8 7 7 U.-X+XW.P.6.<.O.[ k p e q 8 8 , , , , , ",
"7 7 7 0 q e h ] ..+.1.0.U./.$X;X=.7 , 7 8 7 1 B k.K m E D.G.G.F.S.V U y.u.P F M @ b d.A.Z.w 7 $ 7 8 U.-X+X^.r.6.<.O.[ n h q q 8 8 $ 7 , , $ ",
"7 7 8 0 q e s k [ +.1.6.U./.$XuX5., 7 7 < 8 > B g.b.B * B A.F.d.s.y.V T u.N y.2 b B.B.A.V.a.8 7 7 8 ~.-X+X^.r.5.=.O.[ _ p q i 8 8 8 , 8 , , ",
"7 , 7 q q q p ) [ O.=.6.U./.#X;Xe.7 7 7 8 7 7 L k.x.i.B * T n.i.y.= V z R N 3 3 T V.s.B.F.V.u 7 8 h .X*X.XW.e.5.=.X.] k s e 0 0 8 7 , 7 $ $ ",
", $ 7 8 8 i p j ] [ %.3.e.W.+X=X^.q 7 7 , 7 8 k.k.P g.T y.N T y.* N V T R N M N R u.d.s.s.Z.w 8 , X.*X&X'.E.e.4.%.X.[ j s e q 8 8 , , $ , , ",
", $ 7 7 q 0 p j ] [ %.4.e.E.'.&X&X..7 , , 8 8 D P L K T C N C N C M - z x Z * m c z V.p.Z.v 8 $ 8 5.;X$X'.U.0.4.%...] j s q q 8 7 , , , 7 $ ",
"$ , 7 7 8 0 p h ] [ $.2.w.U.'.$XyX5.7 8 8 8 , 8 A D t < c c c x x c c # l c x ; z l i./ w , 8 8 e E.-X+X/.U.0.<.+...] h p q 0 8 8 8 8 8 8 8 ",
"7 $ 7 7 8 8 i s ] [ O.1.6.P.^.@X=X`.d , , 8 , 8 , , 8 8 X X X % .  Xt. X X .X & : l 8 7 7 7 7 7 $.&X&X+XW.r.5.<.O.[ ` d p q q 9 , 8 8 8 8 8 ",
"$ , , 7 8 q q p j ] ..%.5.e.E.'.&XuX1., 8 7 8 7 8 , , < N       * t.    < 8.  @ 7 7 8 7 7 8 8 8 U.;X@X/.U.0.4.%.O.] k s q q 0 8 8 8 8 , 8 8 ",
"$ 7 $ 7 7 q q p h ] ..$.3.7.U.`.@X-X'.] 8 7 7 7 , 8 8 9 I L I N M XXM.v. X;.M < 7 7 7 7 8 $ $ <.=X&X+XW.r.0.1.+...] j s i q 0 8 8 , 8 , , 8 ",
"7 7 $ 7 8 7 q i h n [ O.1.5.e.E.'.&XuXL.0 7 8 8 8 8 8 D h.x.x.h.L N m C N F N & 9 8 8 8 8 8 ..`.;X+X'.U.w.5.=.X...k h e q q 0 7 8 8 8 8 8 8 ",
"8 $ 7 $ 7 q 8 q p j ] [ =.5.6.U.`.+X&X;X5.8 8 < 8 8 , A k.g.P I P V L I I U F = , 8 8 8 8 h E.;X&X'.W.e.6.1.$...[ j h e e q 0 8 8 8 8 8 8 8 ",
"8 7 8 8 7 7 q q p h ] [ $.<.5.e.U.'.+X*X&X4.8 8 8 8 8 A L g.I I K m L I K m m = 8 8 8 8 j U.yX&X+XW.U.w.5.%.O...] g p e 0 0 8 8 0 8 8 < 8 8 ",
"8 8 8 $ 7 q q q e j n ] X.%.1.6.r.E.'.+X=X*X6.s 8 8 8 A L K K L m = m V m Z N = < 8 8 ] U.uX&X+X`.E.e.5.<.$.[ ] j d p q 0 0 8 8 8 8 8 8 8 8 ",
"8 8 8 8 8 8 q q p p j ] [ O.%.5.0.r.W.`.$X*XuXU.X.8 1 t V D D - = & = - H G.A.m.& 0 <.'.;X&X+X`.U.e.6.1.%.O.[ n j e e e q 0 8 8 8 8 8 8 0 8 ",
"0 8 8 8 2 8 0 q e p s n ] ..$.=.5.0.U.W.'.@X&X;X+X0...a.5X8X5Xn.* , = S G.4X5XH.N.U.-X-X$X+X/.E.e.6.5.$.O...] h p p p q 0 8 8 8 8 8 0 8 8 8 ",
"8 8 0 8 8 8 8 q q p p j ] ] X.$.=.5.7.r.E./.+X#X*XyX#XN.H.8X5XG./ 8 1 >.H.5X9X9XF.;X*X#X'./.U.e.6.5.=.+...] ] d p e q 0 0 0 8 0 0 8 8 0 0 0 ",
"0 w 8 8 8 0 8 q q e p s j n ] O.%.<.5.0.e.U.`.`.+X#X*X:XJ.8X8XH.f.r.U.R.F.G.8X8X5X$X.X`.E.U.e.0.1.=.+.X.] n h p p e e 0 8 8 8 8 8 0 8 0 0 8 ",
"8 8 8 8 8 8 0 0 q q e s s n ] [ ..$.*.5.0.w.r.E./.'.+X$XJ.9X9XH.;X;X;X-X:XG.J.8X6X`./.U.U.q.5.1.=.+...] n n p p e e 0 8 0 0 0 0 0 8 0 0 8 0 ",
"8 0 8 0 8 0 0 0 0 q e e p d k ] | X.+.%.1.6.0.e.P.T.W.`.H.6X9XZ.@X@X+X+X.X,XF.4X4XW.P.w.0.5.<.%.+.] ] ] j p p w e 0 0 0 0 8 0 0 0 0 0 8 0 8 ",
"8 8 0 8 0 0 0 0 0 0 q e p p d j ] [  .O.$.<.5.5.0.e.*.U.H.5X5XS./.'./.`._.N.S.S.S.C.0.5.1.=.$.X.] ] j s p q q q 0 0 8 0 0 0 8 0 0 0 0 1 0 0 ",
"8 8 0 0 0 8 0 0 0 0 q w e u p d d k ` ....X.%.1.1.&.( N.S.F.A.N.r.U.U.r.P.e.Z.Z.d.s.5.=.$.+.X.| ] n s p q q 0 8 8 8 0 0 0 0 0 0 0 0 0 0 0 0 ",
"8 8 0 0 0 0 0 0 0 0 0 e e e p e s h j n [ ..X.X.O.M B.B.C.s.s.5.5.0.6.6.4.} d.d./ f $.+.O. .| ] n s s e q 0 0 8 8 8 8 0 0 0 0 0 0 0 0 w 0 0 ",
"0 0 0 0 0 0 0 0 0 e 0 0 e q e e q e h h k k | | { N A m./ 3 =.1.1.1.1.1.+.F K F - - X.[ [ ] n k h p p e 0 0 8 8 8 8 0 0 0 0 0 0 0 0 0 0 0 0 ",
"0 0 0 0 0 0 0 0 0 0 0 0 0 0 0 0 q e e p h h k k j.g.A * * G &.#.$.$.$.+.+.t - 3 = k [ ] n j h d p e e e 0 8 8 8 8 0 0 0 0 0 0 0 q 9 q 0 0 q ",
"0 8 0 0 0 0 0 0 0 0 0 0 0 8 8 0 0 q e e e s h G h.L 9.&.G | .... . ...| ..H J XXG ] _ h s d p p p e e 0 0 , 8 8 8 0 0 0 0 e e 0 0 w 0 q q 0 ",
"0 w g 0 e w 0 0 e 0 q q 0 0 8 0 0 0 e 0 u e q K K G  .A p p q i q i a q a N A  .k q 0 8 q 0 q 0 0 8 8 8 8 0 , 8 0 0 e 0 0 w 0 0 0 q 0 w 0 0 ",
"8 u d 0 q q q q q 0 w q 0 q 0 0 0 0 0 0 8 0 9 m t ..t , 7 8 8 9 7 7 7 7 9 - = $.9. .X @ 7 , 7 7 7 , , , 7 7 8 8 0 q q q w q q 0 0 0 0 0 8 8 ",
", 0 e 0 w q q q q q q q r 0 0 0 0 8 8 8 8 7 - t G f $ $ , @ @ 5 $ 7 5 @ & - % m * . X % $ , , , , , , , 7 8 8 8 0 0 0 q q q w 0 0 0 0 8 8 0 ",
"8 8 0 w e e w q q e r q e 0 0 0 8 8 7 7 7 7 & = - * X & 5 $ $ $ $ @ , $ @ X X % X X . X & $ , , 7 7 8 8 8 8 0 0 0 0 0 0 0 q q 0 8 0 8 0 8 0 ",
"0 e w e w r q q e e q q w 0 0 0 8 8 8 8 7 , < = % % X @ $ $ , , $ 5 , @ 7 p q q q e s u , , , , , 7 7 8 8 8 0 8 0 w r q w q r q 0 0 0 0 0 0 ",
"u q q w q e w q w q u w q w r 0 0 0 0 0 8 8 8 q *. .k p , , , , , , , $ $ 7 , , , , , , , 8 , , 8 8 8 8 0 0 0 0 q w q q q w w e q q 0 w 0 0 ",
"q q u e e e e e e e q e e e e 0 u 0 w q e 9 0 0 0 0 0 8 8 8 8 8 7 8 7 8 8 < , , 8 8 8 8 8 0 0 0 0 0 0 e 0 e 8 u u u q q q q q w q w q 0 0 0 "
};
