/* XPM */
static char *result[] = {
/* columns rows colors chars-per-pixel */
"70 70 211 2 ",
"   c #050507",
".  c #0D0C0E",
"X  c #100E0F",
"o  c #0D0D11",
"O  c #100E10",
"+  c #161517",
"@  c #15151B",
"#  c #1C1B1C",
"$  c #211E1C",
"%  c #24211F",
"&  c #1C1D22",
"*  c #12172C",
"=  c #16192D",
"-  c #1F1F28",
";  c #161B31",
":  c #1A1E33",
">  c #1E2020",
",  c #1D2339",
"<  c #262321",
"1  c #292623",
"2  c #2C2926",
"3  c #262729",
"4  c #24242D",
"5  c #2E2B29",
"6  c #312D2A",
"7  c #34312E",
"8  c #272936",
"9  c #2C2C3A",
"0  c #2E3032",
"q  c #363331",
"w  c #393634",
"e  c #3C3A36",
"r  c #34373A",
"t  c #3E3B39",
"y  c #403B37",
"u  c #413E3C",
"i  c #3E4238",
"p  c #43423D",
"a  c #464A3D",
"s  c #252C43",
"d  c #273047",
"f  c #2B3245",
"g  c #2B344B",
"h  c #393B43",
"j  c #333848",
"k  c #3C3C4B",
"l  c #2F3952",
"z  c #313B53",
"x  c #3E4247",
"c  c #394458",
"v  c #3F4A62",
"b  c #464341",
"n  c #494644",
"m  c #4B4A45",
"M  c #464A48",
"N  c #4E4B49",
"B  c #514E4D",
"V  c #5B4C48",
"C  c #4D5246",
"Z  c #53514E",
"A  c #58574B",
"S  c #444A57",
"D  c #4B4A5D",
"F  c #524B52",
"G  c #4B5157",
"H  c #555351",
"J  c #5A5554",
"K  c #5B5957",
"L  c #52555A",
"P  c #5E5B5A",
"I  c #65524C",
"U  c #69554E",
"Y  c #695955",
"T  c #615F5D",
"R  c #5E6157",
"E  c #67665C",
"W  c #74605A",
"Q  c #474D62",
"!  c #485468",
"~  c #595968",
"^  c #5C5C75",
"/  c #5E5E78",
"(  c #625C65",
")  c #615E77",
"_  c #5C6165",
"`  c #4F6A7D",
"'  c #656362",
"]  c #696765",
"[  c #6A6866",
"{  c #646869",
"}  c #6D6B6A",
"|  c #736D68",
" . c #6F7169",
".. c #73706F",
"X. c #787C6A",
"o. c #656778",
"O. c #6D7377",
"+. c #747372",
"@. c #797675",
"#. c #7B7976",
"$. c #74767C",
"%. c #7D7B7A",
"&. c #89746C",
"*. c #8E776F",
"=. c #8E7B77",
"-. c #817E7D",
";. c #7D826E",
":. c #7F8172",
">. c #868A76",
",. c #82827E",
"<. c #99887A",
"1. c #8D927C",
"2. c #507593",
"3. c #656482",
"4. c #686782",
"5. c #6B6A85",
"6. c #6C6C8B",
"7. c #706F8F",
"8. c #637287",
"9. c #777B84",
"0. c #71718E",
"q. c #686E93",
"w. c #6F6E90",
"e. c #706F90",
"r. c #6F7193",
"t. c #727191",
"y. c #7A7798",
"u. c #817E9D",
"i. c #807EA3",
"p. c #7A838A",
"a. c #5E8BA6",
"s. c #858483",
"d. c #888786",
"f. c #86898A",
"g. c #8D8C8B",
"h. c #938D8B",
"j. c #989B87",
"k. c #92908F",
"l. c #898B90",
"z. c #8E9397",
"x. c #949392",
"c. c #9A9695",
"v. c #9C9996",
"b. c #93979B",
"n. c #9C9A9A",
"m. c #AD9388",
"M. c #A8948B",
"N. c #A49C98",
"B. c #9DA28C",
"V. c #A2A78E",
"C. c #A6AB93",
"Z. c #A9AE95",
"A. c #A8A19D",
"S. c #B3A299",
"D. c #ABB197",
"F. c #AEB399",
"G. c #B1B69B",
"H. c #B3B99E",
"J. c #8683A6",
"K. c #8D8BAD",
"L. c #9B9FA4",
"P. c #8E8BB2",
"I. c #918EB4",
"U. c #9693B9",
"Y. c #9DA3A7",
"T. c #A6A9AA",
"R. c #BEADA2",
"E. c #B6BCA1",
"W. c #B8BEA4",
"Q. c #A8ACB2",
"!. c #ADB3B6",
"~. c #B3B6B9",
"^. c #B5BABC",
"/. c #B9BDBE",
"(. c #C5AA9C",
"). c #CDB4A7",
"_. c #D0B5AA",
"`. c #D4B9A9",
"'. c #D9BCAA",
"]. c #BBC1A6",
"[. c #DEC1AE",
"{. c #DDC0B0",
"}. c #E1C5B6",
"|. c #9D9AC5",
" X c #9C9AC7",
".X c #A29ECB",
"XX c #A5A0CE",
"oX c #A8A4CF",
"OX c #BABEC0",
"+X c #A9A4D4",
"@X c #B2AEDC",
"#X c #B5B1DC",
"$X c #B4AFE3",
"%X c #C2BDEF",
"&X c #C2BDF3",
"*X c #BEC3C3",
"=X c #C2C4C5",
"-X c #C5C8CA",
";X c #CBCECE",
":X c #CACFD2",
">X c #CCD2D3",
",X c #D1D6D6",
"<X c #D4D7D8",
"1X c #D6DADA",
"2X c #DADEDE",
"3X c #DBE0DF",
"4X c #C7C2F7",
"5X c #DEE3E2",
"6X c #E2E6E5",
"7X c #E3E8E7",
"8X c #E5EAE9",
/* pixels */
"2 2 2 2 2 2 1 2 1 2 2 2 2 % 2 2 2 1 2 2 2 1 2 2 1 1 < < < < 1 2 1 2 2 < < 1 < 1 1 2 2 2 1 2 2 1 2 2 2 1 1 2 1 2 1 2 2 2 1 1 $ 2 1 1 1 1 2 1 ",
"1 2 1 1 1 1 2 1 1 1 2 % y y y % 1 1 1 1 1 1 1 1 1 < < < < $ 1 2 1 1 < 1 1 < < < 1 1 1 1 1 1 1 1 1 1 1 1 6 y y 7 6 1 1 2 1 $ $ 1 1 % 1 1 1 1 ",
"2 1 1 1 1 1 1 1 1 1 2 w e e y X O O O O O O O O X X O X X X O O X O X O X O X X . X X o O X . X . . X X w y w y y 2 1 1 2 $ 1 $ 1 1 < 1 2 1 ",
"1 1 1 2 1 1 1 1 1 % 1 w y Y $.u.u.u.u.u.u.u.u.u.u.u.u.u.u.u.u.u.u.5.4.4.4.4.5.) 4.4.5.5.4.4.4.4.Q D D D D ] w y 7 % 1 1 1 1 $ 1 1 1 1 1 1 1 ",
"1 1 % 1 1 1 1 1 < < < 2 @.( P.&X%X@Xu.e.t.u.U.&X&X%X0.+X&X&X&X%X%X5.I.|.u.) ) ) ) ) P. XJ./ / ^ D S ) w.) h F q 7 1 1 1 1 $ $ 1 1 < 1 1 1 1 ",
"1 1 1 1 1 1 1 1 % % % % o K.&X&X%X0.F D D D u.&X&X@X  ~ @X&X&X+X) + I..X4.k h . h k J.U.4.9 8   3 9 ~ e.w.3.o 1 1 % 1 1 1 1 < 1 1 1 1 1 1 1 ",
"1 1 1 1 1 1 1 % % $ % % . P.&X&X+X4 &X&X&X&X&X&X&X@X4 X U.%X&XI.  % I..X|..Xi.$ P. X|.P.t.w.6.. ) w.7.7.w.3.. < 1 1 1 < 1 < 1 < < 1 1 % < 1 ",
"1 $ 1 1 $ 1 % $ $ % % $ . P.&X&X+X4 &X%X&X&X&X&X&X&X%Xk I.%X%Xu.O K.|.|..X.Xi.& K.|.|.|.K.w.6.. ) e.e.e.w.3.. < 1 % 1 % 1 1 < 1 1 < 1 1 1 < ",
"1 < < < 1 < 1 $ $ < < $ . K.&X&XXX4 &X%X%X%X%X&X&X&X&X4Xj D y.0 .X|.|..X X XK.@ P.|.y.w.w.w.6.o ) e.e.e.e.3.o < % 1 % 1 % < < 1 < < 1 < 1 < ",
"< < 1 1 < 1 < < $ $ $ $ . K.&X&XXX. 9 9 9 7 5.&X&X&X&X&XP.~ h i..X|..XU.|. XK.# K.|.y.6.w.w.6.. ) t.e.e.e.3.o < 1 % 1 1 1 < < < 1 < < < 1 < ",
"< 1 < < < $ < $ < $ $ < . K.&X&XXX& J.i.i.i..X&X&X&X+X+X.X^ 4 .X|.|..XU. X XK.& P.J.y.w.w.w.6.. ) t.e.e.7.3.o < % 1 % % < < < < % < $ % % 1 ",
"1 $ < < < < $ $ $ < $ $ . K.&X&XXX6 &X&X&X&X&X&X&X&X$X+XD D o.Q U.|..X.X X XK.@ t.t.w.w.w.6.6.. ) e.e.e.7.3.o % $ % 1 % < < < < < < < $ < < ",
"$ < < < % % $ $ % % $ $ . K.&X&X.X6 &X&X&X&X&X&X&X&X$Xu.D 3.J.c 5.U. X X XP.y.@ 3.w.e.e.7.w.6.. / t.e.t.7.3.. $ $ $ < $ % < % < < 2 2 $ % < ",
"1 % $ < < % $ $ $ % % % . K.&X&X.Xh $X#X@X@X%X&X&X%XI.7 r. X Xy.. i. X Xy.3.^ o / 4.6.e.6.t.6.. ) t.t.e.7.3.. $ $ $ $ $ $ % % < $ 2 1 $ % < ",
"< % < < % $ $ $ $ < % 1 w t.$X&X&X+X4 4 4 4 4.&X&XI.- & y..X.Xp.< 8 i. X^ - & @ @ @ ^ 0.t.0.6.& o.w.w.6.o.~ y 1 2 % $ $ $ % < < $ $ + $ $ < ",
"% 1 $ < < $ $ $ % % % y y b e.&X&X&X&X%X&X&X&X&X&X.X X.X.X.X.XU.I.3.3.q.y.P.8.^ 6.e.t.t.t.t.t.0.e.t.y.t.~ $ y y y $ $ $ $ $ < % < % $ $ < < ",
"% < % % % $ $ $ % % < 7 y y b 4 4 4 4 4 4 4 4 4 4 - 4 4 4 3 9 c v ! z ! z ! v g 4 & & & @ @ @ @ @ @ @ @ y w y 1 1 $ $ $ $ $ % % % < % < % % ",
"< $ % % $ $ $ $ % % % % w y w $ $ $ $ % $ & $ % < 1 2 5 r c r ! 8.z v ! 8.v z f c 9 2 2 1 1 $ > > > $ $ q y y $ $ % % $ $ $ % % < % % % % % ",
"% % % < $ $ $ $ % % % % $ % % % $ % % % % 1 5 5 5 0 0 q x c ! v ! l l c c z l v c h r 7 6 6 3 1 % % % % % $ $ % % % % $ $ % % % % % % % % % ",
"% % % $ $ $ $ % % % % % % % % % % % % % 4 5 7 7 q w w x c v z c l g g g g g g Q ! c h e w 7 7 5 2 1 % % $ $ $ $ % % % % $ % % % % % % % % % ",
"% % % % $ $ $ $ & % % % % % % % % % 1 2 6 7 w w e t h Q v ! g d d d d d s d d l l x t t t e q q 6 2 3 < < $ $ $ % % % % % % % % < $ < % % % ",
"% $ % % $ $ $ $ % % % % % % % % % 1 5 9 w w y u i b n N ! z d s s s s s s s s d c c M b b u t e q 7 5 1 < % % % % % % % % % % % < $ % % % % ",
"% % $ % $ $ $ $ % % % % % % % < 1 6 7 w w y u b M N N C c g s , , s s , s , , d S H N N N b b t t w 0 5 1 < < % % % % % % % % % $ < % % % % ",
"% % < $ % $ $ $ % % % % % % % 1 6 7 w t u b n F N Z H K K j , , ; ; ; ; : ; , g P P H H B N M b u t w 7 5 1 < % % & % % % % % % < % % % % < ",
"% % < % % % % $ $ % % % % % 1 5 7 w w u b N N B H K P T [ D , ; * * * * * ; : ~ ] ' T P H H F N n u y w 7 5 3 % < % % % % % % % % % % % % % ",
"% % % % % % % % % % % % % 1 5 7 w y b n N B H K P ' { } } ~ 9 = * * * * * = 8 ( +.} } ' T K H B N b b h e 7 5 1 % % % % % % % % % % % % % % ",
"% % % % % % % % % % % % < 5 6 w t u n N B H P T ' } } @.@.@.F 8 ; * * * = = k ( @.@...} ] E K H F N b u t w 6 5 1 % % % % % % % % % % % % % ",
"% % % % % % % % % % % % 4 6 q e u b N F H P ' ] } +.#.%.s.s.@.k : ; = = = : k %.s.,.%.@...} ' P J F N n u e w 6 2 % % % % < % % % < % < < % ",
"% % % % < $ % % % % % 1 6 9 w u b N N H P ' [ ..@.%.s.d.g.k.g.~ f f f s 9 f D g.g.g.s.-.@.+.} ' P K B m b u e q 5 1 % % < % < % % < % % % % ",
"< % < $ % % % % % % % 2 6 w y b N N H P ' } +.@.%.d.g.k.x.v.x.! S c k g f k S $.b.x.g.d.u.#.+.} ' P H B n b y w 9 5 1 % % < % < < % < % % % ",
"% % < 1 2 $ % % % % 1 5 q y u b N F P ' [ +.@.%.d.g.x.k.b.Q.Y.^.;X,XQ.b.Q.OX*XQ.Y.f.s.h.>.,.@.+.} ' P H F n u e q 6 1 % < % < % % < % < % % ",
"< % < 7 q % $ % 1 % 5 7 w y b N B H T ] ..@.%.d.g.x.l.o.~.5X8X8X8X1X*X>X5X8X8X5X5XY._ N.g.d.s.@...[ P J F n b y y 7 5 1 % < % < < % < % < % ",
"< % % $ < $ $ % % 1 5 7 e u n B H P ' } @.-.s.g.k.c.h.o.1X8X8X8X8X7X<X2X8X8X8X8X8X^.~ _.T.g.d.u.| | E P H N M u t q 5 1 < > < < % < % < < % ",
"< < < $ # # $ < < 3 6 r t u N B K T [ ..%.s.g.x.N.).-.O.5X8X8X8X7X-X-X1X6X8X8X8X8XOX_ ).'.c.g.s.-...[ E K Z n b t q 7 1 < < < % < % < % < % ",
"$ < % < $ $ $ % % 2 6 w u b N B K ' | @.-.d.g.n.N._.} 9.6X8X8X8X7Xz.OX<X6X8X8X8X8XOX~ S.}.N.x.g.u.@.} ' P H m n u w 6 5 % < % % % < < % 2 $ ",
"< < < < % $ $ % < 5 q e t N N H P ] ..%.s.g.c.n.T.'.] p.7X8X6X6X2XO.Q.OX6X6X7X7X8X*X~ =.}.S.n.g.>.%...[ P J B n u t q 6 1 < < < < < % < % $ ",
"< % < < % % % < 1 6 w e p N B K ' } +.-.d.k.n.T.N.'.( l.7X7X6X2XY.{ Y.f.Q.1X6X6X6X^.~ I M.S.n.x.d.-.@.} ' K B n u t q 6 1 < < < < < < % $ $ ",
"< < 1 % < % < < 2 6 w y b N B P ' } @.-.d.x.A.L.N.m.L b.6X6X6XT.o.9.OXb.O.p.^.5X6X~.L J =.M.N.x.g.,.@. .' K F n u t w 6 1 < < < < < % % $ $ ",
"% % % % % 1 1 % 3 6 w u b N H P ]  .%.s.g.n.N.S.).&.F L.7X6XT.o.O.!.>X;X;XT.f.Y.6XQ.S I | m.v.v.h.s.%...' P B m b t w 7 2 < < < % < 1 % 1 % ",
"1 1 % 1 1 % % 1 2 7 w u N N H P ] ..%.s.h.n.n._.S.&.F L.5X!.O.9.b.1X-X;X2X1X2X,X6XL.N W &.(.S.v.k.s.%...] P B N b t e 7 2 < < 1 1 < < 1 % 1 ",
"% 1 % 1 % % % 1 2 7 e u n F H P ] +.%.d.g.n.n.'.(.(.U z.3X=X*XOX].*XoX*X*X~.,X5X5Xz.H <.(.'.(.v.k.d.-.+.] P B N b u e 7 5 1 % 1 1 % 1 1 % 1 ",
"1 % 1 % 1 % % % 5 7 e u n N H P ] ..%.d.k.N.A.[.[.'.&.@.6X6X,X=X1X5X!.].,X3X5X5X5Xg.Y m.[.[.).k.k.d.-...] T H N b t e 0 5 < 1 < % 1 % 1 1 % ",
"% 1 % 1 % % % % 2 7 e u n B H ' [ +.-.d.k.b.S.{.[.[.&.n.1X6X5X6X5XY.Y.5X7X5X7X5X1Xp.Y m.'.[.'.c.x.d.-...] T H N b u e q 2 1 % 1 1 % % 1 < 1 ",
"1 % 1 % 1 % % % 1 7 w u n N H P ] ..%.s.k.c.R.[.}.(.| =X:X6X5X6X>X<XOX5X5X5X5X5X;X8.W =.'.'.'.h.g.d.%.+.] P H m b u e 7 5 % 1 < 1 % 1 % 1 % ",
"% 2 % 2 % % % % 1 6 e u b B Z P ' ..-.,.h.v.).[.'.<.=.;X*X,X5X5X5X5X*X3X5X5X5X5X!.2.~ E *.).'.h.g.d.%...] P H B b y w 7 2 1 % 1 1 1 % 1 1 1 ",
"1 % 1 % % % % % 3 6 w u b N H P '  .@.,.g.v.).'.<.| Q.;X!.*X5X5X5X5X*X3X5X5X5X5Xa.a.` H U <.'.c.g.s.@. .] P B m u e w 7 2 1 1 1 1 % 1 1 % 1 ",
"1 % % 2 % % % % 1 6 w y b m B K ' | +.-.d.c.'.m.W &./.-X*Xp.,X,XOX:X*X1X5X5X5X1Xa.a.2.G I U ).M.>.u.@.| ' K F n u t q 6 2 < % 1 1 1 % 1 1 1 ",
"1 2 2 % % % % % < 6 q y b m B J T ] ..-.,.M.'.&.U E v.*X-X$.!.1X~.f.p.z.T.*X2X;Xp.a.v H I V &.| ,.%.+.[ T J B n b w 7 5 3 1 1 1 1 1 1 1 1 1 ",
"1 % 2 1 < < $ $ < 2 7 y y n B H P { } #.-.S.`.U I W W A.T.$.l.,X1X>Xl.G _ !.3X1XY.o.I I I I J } -.@.} [ T J N b u w 6 5 1 1 1 1 1 1 1 1 1 1 ",
"1 1 1 1 < < < < < 2 5 y y n B B K R } ....h.<.I a U U | { _ { :.O._ M L p.*X;XY.o.B I I I U I #.-. .} ' K H N u y w 6 1 1 1 1 1 1 1 % 1 1 1 ",
"1 1 1 % 1 < < $ < < 6 y y p n B L R R { >.#.I U I I U V x 0 r x G L G R O.#.O.M e A I U U I >.V.D.B.] T J B m u e q 6 1 1 1 1 1 1 1 6 2 % % ",
"1 1 2 2 1 1 1 1 < < 6 7 y u n N G :.H.].].W.| I U U I I C > # + @ > 3 r r 0 # > t Y I A [ B.].].].].j.K F B m u e 6 2 % 1 1 1 1 1 1 6 2 $ % ",
"1 2 % 2 1 1 1 $ < < 2 7 w y b N R ].].].].].1.E U I I U 1.E 2 1 3 > > > > > > 0 1.;.;.C.].W.W.E.E.E.Z.R C N b u w 6 1 % 1 1 1 1 1 1 1 1 $ % ",
"1 1 2 1 1 2 1 < < < 2 6 w e u b ;.H.].H.W.].].Z.M.1.>. .j.B.R p i i i 0 6 q i ;.E.C.j.Z.H.H.H.H.H.F. .C N m u t w 6 1 1 1 1 1 2 2 1 1 1 $ < ",
"2 2 % 2 2 2 1 1 1 1 1 2 7 w e u A 1.H.H.E.E.H.E.E.H.D.>.H.W.H.X.i i 0 i m C X.F.E.C.V.G.H.H.G.G.F. .i x m b t w 6 6 1 1 1 1 1 2 1 2 2 1 1 < ",
"2 1 2 2 1 1 1 1 1 1 2 1 6 7 w t a a ;.D.G.G.H.H.H.H.X.H.H.H.H.H.1.;.E ;.V.D.E.E.F.j.Z.F.F.V.1.1.X.a r i b p t q 6 2 1 2 2 2 1 2 2 2 1 2 1 < ",
"2 1 2 1 2 1 2 2 1 2 1 2 2 6 q y i i C ;.D.G.H.G.D.D.;.V.G.G.G.G.G.G.1.D.H.G.G.G.F.B.V.D.1.E a C M b y b y y 6 y 2 2 2 1 2 2 2 2 1 2 2 2 1 < ",
"2 2 2 2 2 2 2 2 1 2 2 2 2 5 6 w i i C C A  .1.D.D.D.D.;.G.G.D.G.F.D.V.V.G.D.D.D.D.B.Z.1.C a i a i t u b y y 6 6 2 2 1 2 2 1 1 2 2 2 2 2 2 < ",
"2 2 2 2 2 2 2 2 2 2 2 1 2 2 6 7 i i i a a a a R ;.V.D.1.D.D.D.D.D.D.;.;.1.V.D.D.D.V.>.a a i i a b n u y y 7 6 2 2 2 2 2 2 2 2 2 2 2 2 2 2 1 ",
"2 2 1 2 2 2 2 2 2 2 2 2 2 2 2 6 7 i i i i i a a a C R ;.V.V.D.V.;.E C C R R ;.;.;.E a i i a a a n p y y q 6 2 2 2 2 2 2 2 2 2 2 2 2 2 2 2 1 ",
"2 2 2 2 2 2 2 2 2 5 2 2 2 2 2 5 6 i i i i a i a a i i a a R A a i i i i i i i a a i i 6 p n b b u y e q y < 1 2 2 2 2 2 2 2 2 2 2 2 2 2 2 6 ",
"2 2 2 2 2 2 2 2 2 1 5 5 2 2 2 1 2 2 1 5 7 2 i i i 2 2 2 2 2 2 2 2 2 < 2 2 2 2 2 6 0 6 i t t e t e w w 6 2 2 2 2 6 2 2 2 2 6 2 2 2 6 2 6 2 2 ",
"2 2 2 2 6 2 6 2 5 2 5 2 1 1 1 1 < % < 2 < 2 5 5 5 5 2 2 < > > > $ 1 2 2 2 1 < 1 5 5 q q q 6 6 6 6 6 2 2 2 2 2 2 2 2 2 5 2 5 5 5 2 2 2 2 2 6 ",
"2 1 y 2 2 2 2 5 2 5 2 2 1 1 1 1 < < > > > < > 1 2 > 2 1 2 2 2 2 2 2 5 5 2 5 5 2 5 5 5 5 5 5 5 5 5 1 1 1 2 2 6 2 6 2 6 2 5 2 2 5 6 2 6 2 2 6 ",
"2 2 2 2 2 1 2 2 2 6 2 2 1 1 1 1 % % % % $ % % 1 < 1 1 < 2 1 2 2 6 2 6 5 5 5 5 2 2 5 2 2 1 1 1 1 < 1 1 2 2 2 2 6 y < 1 2 y y 1 6 6 2 2 2 6 2 ",
"1 y 2 1 y 1 2 6 6 2 2 2 2 1 1 1 1 % 1 % % % % % % % < 1 1 2 2 2 6 2 2 2 6 2 2 2 2 4 1 1 1 < 1 1 1 1 1 2 2 2 2 2 2 2 2 2 y 2 < 6 6 6 6 6 2 2 ",
"2 1 2 y 2 6 y 1 6 6 2 6 2 2 2 1 1 1 1 1 1 % < % < < < 1 1 1 1 2 2 2 2 2 2 6 2 1 1 1 % % < 1 1 1 1 1 2 2 6 2 2 1 < 1 2 2 1 1 $ 2 2 6 2 2 6 2 ",
"2 y 2 2 6 6 2 2 2 6 6 6 6 6 2 2 2 6 2 2 2 2 2 1 1 1 1 1 1 1 2 2 2 2 2 2 2 2 1 < < < < < 1 2 2 2 6 6 6 6 6 6 2 2 y 2 6 2 2 1 1 6 6 6 2 6 2 2 ",
"6 6 6 6 y 6 6 6 6 6 6 6 6 6 6 1 6 6 2 2 6 6 6 6 6 6 6 2 2 2 2 6 6 2 6 2 2 6 2 2 1 2 2 2 2 6 6 6 y 2 y 2 2 2 2 2 y 1 2 1 y 2 2 2 2 2 6 6 2 2 ",
"6 6 6 6 1 2 6 6 6 6 6 6 6 6 2 1 6 6 6 1 2 6 6 6 6 6 6 6 y 1 6 6 6 6 6 6 6 6 6 2 2 1 2 1 2 6 6 6 1 2 1 2 y 1 1 y 2 2 2 y 1 2 2 2 6 6 6 2 6 y "
};
