/* XPM */
static char *result[] = {
/* columns rows colors chars-per-pixel */
"70 70 91 1 ",
"  c #1A1714",
". c #1B1815",
"X c #1C1917",
"o c #1D1A18",
"O c #1D1B19",
"+ c #1E1B18",
"@ c #1D1C19",
"# c #1F1C19",
"$ c #1F1C1A",
"% c #1F1D1A",
"& c #1F1E1B",
"* c #201C1A",
"= c #201D1B",
"- c #201E1B",
"; c #211E1B",
": c #201E1C",
"> c #211E1C",
", c #211F1C",
"< c #221F1C",
"1 c #221F1D",
"2 c #22201D",
"3 c #23201D",
"4 c #23211D",
"5 c #23201E",
"6 c #22211E",
"7 c #23211E",
"8 c #23221F",
"9 c #24201D",
"0 c #24201E",
"q c #24211E",
"w c #24211F",
"e c #25211F",
"r c #24221F",
"t c #25221F",
"y c #26221F",
"u c #252220",
"i c #242320",
"p c #252320",
"a c #262220",
"s c #262320",
"d c #272320",
"f c #262321",
"g c #272321",
"h c #272421",
"j c #272422",
"k c #282421",
"l c #282521",
"z c #282422",
"x c #282522",
"c c #292522",
"v c #282523",
"b c #292523",
"n c #292623",
"m c #2A2623",
"M c #292724",
"N c #2A2624",
"B c #2A2724",
"V c #2B2724",
"C c #2B2725",
"Z c #2A2824",
"A c #2B2824",
"S c #2B2825",
"D c #2B2925",
"F c #2C2825",
"G c #2C2925",
"H c #2C2826",
"J c #2C2926",
"K c #2D2926",
"L c #2D2927",
"P c #2D2A27",
"I c #2E2A27",
"U c #2F2B27",
"Y c #2D2B28",
"T c #2E2B28",
"R c #2F2B28",
"E c #2F2C28",
"W c #2F2C29",
"Q c #302C29",
"! c #302D29",
"~ c #312D2A",
"^ c #312D2B",
"/ c #312E2B",
"( c #322E2B",
") c #322F2C",
"_ c #332F2C",
"` c #35302D",
"' c #34312E",
"] c #35312E",
"[ c #373330",
"{ c #363431",
"} c #413D3A",
/* pixels */
"CCVVVVVBBBBBBBBBBBBBBBBBbgsssgnBBBnbbhsxBBBBBBBBBBBBBBBBBBBBNsskNsxBBB",
"BBBNNNNNnznNNNNNNNNNNNNNxsaaasnNNNNNnxsxNNNNNNNNNNNNNNNNNNNNnassnxxNNN",
"NNNNNNnnxshnnnnnnxnnzfznhttttaxnnnnNxnhnnnnnnnnnnnnnnnnnnnnnbttsbBNNNN",
"nnnnnnnxhashnnbNnnbgeegbseeeetxbnbbbbbbbbbbbbbnnnnnbbnbbnnnnNsqhnxnnnn",
"bnnbbbzswwwtfhjxxxjaqthxsqqqqtjxxxxxxxxjxxxxxxxxxxxxvxvvvvvvvhshbbbbbb",
"vxxxxxhe5qqwsfhzzzhtqqshsqqqqwhzzzzzzzzzzzzzzzzzxxzxxzxxxxxxbxxxxxxxxx",
"zzzzzjhw300qfhhhhhhu53quq5555qshhhhhhhhhhhhhhhhhhhhhhhhhjjjjjjjxzzzzzz",
"jjjhhhfq355qshhhhhht3300333130uhhhhhhhhhhhhhhhhhhhhhhhhhhhhhhhhhhhhhhh",
"hhhhhhsw3335uffffffqq513135q51esffffffffffffffffffffffhhhhhhjhhhhhhhhh",
"hhhffuq555<5thfffft5qq<1113ww13tssssffffffffffffffffffffafffafafasfssh",
"ffffaw115w33tsssssw355>1113ww115ussssssssssssssssssgssst5wsssssssjaaha",
"ssfsuq<<5q<1wuuuust153><<<1wt3<1tuuuuusttuuuuuuuuuuuuu31<<t5tuuuwBJ+us",
"uuuuu5<<3w35tuuuuuw353>>>>1qu5>3wuuuuuuwwuuuuuuuuuutuu1><15>1tustnB.qt",
"uuuuu3>13uusuuuuttuqw5>>>><7tw7wwwttwwwwwwwtttttttttu5>;;31>;3ssw>X 3s",
"uuttt1>>5ttttwwwwwwww3,1>>,5wuwwwwwwwwwwwwwwwwwwwwwww<;>>;>>>3fwuuw5uu",
"ttwww,>>5wwwwwwwwwwww5w51>,5wwwwwwwwwwwwwwwwwwwwwwwww1>=>>1>>,wwuttttt",
"wwww3>>1wwwwwwwwwwwwwww5>>,5wwwwwwwwwwwwwwwwwwwwwwwww1=,15w>>1wwuwwwww",
"wwww,=>1wwwwwwwwwwwwwwu5;;>5wwwwwwwwwwwwwwwwwwwwwwwqw>=1quw;;5uwwwwwww",
"wwwq>;=1qwwwwwwwwwwwwww5>->5wwwwwwwwwwwwww55wwwwwwwww>=<tww11wwwqwwwww",
"wwww1;;>5wwwwwwwwwwww5w5>->5wwwwwwwwwwwwww<>wwwwwwwwt5>1w5w5wwwwwwwwww",
"w55w5>=>5wwwwwwwwwwww5w1-->5wwwwwwwwwwwwww>-5wwwwwwwww5wtwtwwwwwwwwwww",
"w51ww1--5wwwwwwwwwwwwww1-=-1wwwwwwwwwwwwww51wwwwwwwtwwwww5wwwwwwwwwwww",
"wwqqwq1;2wwwwwwwwwwwwww2;;;1qwwwwwwwwwwwwwwwwwwwwwwwwtww55qwwwwwwwwwww",
"wwuwqw5>1qwwwwwwwwwwwww2>;=>qwwwwwwwwwwwwwwwwwwwwwwwwwwwuwwwwwwwwwwwww",
"wwwwwww31wuwwwwwwwwwwww1>>>>3wwwwwwwwwwwwwwwwwwwwwwwwwwwwwwwwwwwwwwwww",
"wwwwwwuwwwwwwwwwwwwwwww1,>=>,5wwwwwwwwwwwwwwwwwwwwwwwwwwwwwwwwwwwwwwww",
"wwwwwwwwwwwwwwwwwwwwwww,>>>>>5wwwwwwwwwwwwwwwwwwwwwwwwwwwwwttttttttttt",
"wwwwuwwwwwuww5wuwwwwww5,>>1>>5tttttttttttttttttttttttttttttttttttttutu",
"tttww7ttttttwwtttttttw1<><51>5ttttttttttttttttuuuuuuutttuuuuuuuuuuuuuu",
"tttvM,7ttttttttttuuuuw3>>1qq5quuuuuuuuuuuuuuuuuuuuuuuuuuuuuuuuuuutuuus",
"uwf'{6,uuuuuuuuuuuuuuq1>>1wuuuuuuuuuuuuuuuuuuuuuuuuuuuuuuuuuuuuuuuuuuu",
"uu55u&-uuuuuuuuuuuuuut1<<1tuuuuuuuuuuuuuuuuuuuuuuuuuuuuuuuuuuuuuutustt",
"uut3=@:uuuuuuuuuuuuuuu3<<1tuuuuuuuuuuuuuuuuuuuuuuuuuuuuuuuuuuuuuuuuth5",
"uuuuw%-uuuuuuuuuuuuuuuw1<3tuuuuuuuuuuuuuuuuuuuuuuuuuuuuttuuuuuuuuupuYo",
"suusw>,uuuuuuuuuuuuuuut5<5tussssssuuuussssssssssssufusu35sssssssspi8iO",
"ssusuqqssssssssussssssswqqusssssssssssssssssssssssssss511tsssssssppr,$",
"sssssssssssssssssssssssssussssssssssssssssssssssssfssu31<3sssssssfwfaq",
"ssssssssssssssssssssssssssssssssssssssssssssssssfssft31111faffffffsfff",
"ffffffffffffffsfsssssssssfffffffffsfffffffffffffffafw13355fffffhhhjjsh",
"hhfffssffffffffffffffffffffffffffffffffafffffffffffse33300hjhhhhhhhhhh",
"hhhhhutuhhhhhhhhfffffffffffffffffffffhhtuhhhhhhhhhhht3w333sjhhhhhhhhhh",
"hhhhhw3wuhhhhhhhhhhhhhhhhhhhhhhhhhhhhhhtuhhhhhhhhhsju0t55qfzhhhhhhhhjj",
"hhhhfq55wfhhhhhhhhhhhhhhhhhhhhhhhhhhhhhsshhhhhhhhhhxfss5q5sxjjjjjjjjjj",
"jjjjs005qfhhhhhhhhhhhhhhhhhhhhhhhhhhhhhhhhhhhhhhhjjjhhh0w0thjjjzzzzzzx",
"zzjju000whxjjjjhhhhhhhhhhhhhhhhhhhhhhhhjjjjjjjjjjjjjjjsqqqwfzzxxxxxxxx",
"xxxxgqqqehvzzzzzzzzzzzzzjjjjjjjjjjjjzzzzzzzzzxxxxxxxxxaqqqqaxvvxxvvvvv",
"vvxxhqqqajnxxxxxxxxxxxxxzzzzzzzzzxxxxxxxxxxxxxxxxxvvvxaqtwwtvvbbbbnnnn",
"bbbbhtwwthxxxxxxxxxxxxxxxxxxxxxxxxxxxxxxvvvvvvvvvvbbbbgtttttxnnnnnnnnn",
"nnnnxatttsxvvvvvvvvvvvvvvvvvvvvvvbvbbbbbbbbbnnnnnnnnnnztttttxnnnnnhgnx",
"nnnnnfaataxnnnnnnnnnnnnnnbnnnnnnnnnnnnnnnnnnnnnnnnnnnnxattttxnnNNx/Tas",
"NNNNNxgstsbnnnnnnnnnnnnnnnnnnnnnnnnnxnnnnnnxnnnnnnNNNNNzzsaaxNNNnz^R*t",
"NNNNNNxsasnBNNNNNNNNNNNNNNNNNNNNNNNNBBBNNnNNNNNNNNNNNNNnNhasnBBBBnxh#y",
"BBBBBBngsgBBBBnNNNNNNNNNNNNNNNNNNNNNVKnNnzxnNNNBBBBBBBBBBNhhVVVBVVVcqs",
"VVVVVVNzhnBBBNxNSBBBBBBBBBBBBBBBBBBnZ)hllhskNBVSVVVVVVVVVVnnVVVCCCCCbg",
"CCCCVVVNnVVVVnznVVVVVVVVVVVVVVVVVVVBxD22sssscVVVVVVVVVCCCCCCCSSSSSSSNh",
"SSSSSSSSSSSSSBmBSSSCCCCCCCCCCCCCCCCCnp;4fgggxmSSSSSSSSSSSSSSSFFFFFFFBh",
"FFFFFFFFFFFFFFFCFFFFFFFFFFFFFFFFFFFFSx0dhhhhhxBFFCFFFFFFFFFFFFFFFFFFSc",
"JJJJJJJJFFJFFFFFFFFFFFFFFFKFSFFFFFFFBxgkkkkkkgbSFFFFFFJJJJJJJJJJJJLKFb",
"JJJJJJJJJJJJJJJJJJJJJJJJJJKSnVJJJJJJVckckzzzzzzBJJJJJJJLJKKKKKKKKKKKHV",
"KKKKKKKKKKKKKKKKKKKKKKKKKKPFbBKKKKKKSxxbxxxxxxxSKFKKKKKKKKKKKKKKKKKILL",
"LLLLLLLLLLLLKKKKKKKKKKKKKKIKVSKKKKKKHVnnxxxxxxkSKJLLLLLLLLJLPPLPPIPPPI",
"IIIIIIIIIPPPPPPPFFPPPPPPPPPPKPPPPPPPPKKBccccccxFPPPIIIIIIIITIIIIIIIIIR",
"TTTIIIIIIIIIIIIIFFIIIIIIIIIIIIIIIIIIKIJmnnnnncBPIIIIIIIIIIRIPPIIIIRIIT",
"RRRRRRRRRRRRRRRIIITRRTTTTTTTTTTTIIIIIPVmmmmcmmFIPTTRITRITITI}[VRRRRRRJ",
"QRRRRRRRRRRRRRRRQRRRRRRRRRRRRRRRRRRRRIFmmBmmVJIRRRRRIQPFRRQV[(dIQRQRIK",
"~QQQQQWWWWWWWWTIRRRRRRRRRRRRRRRRRRRRRRKVVVBBFTQRRRRRRRFVTTRITx9RRQRRIK",
"!QQQQQQQQQQQQQIKTQQRQQQQQQWWWWWWWWWWWWKVVVVVKWWRWWWWWWIJWRWQIVmQWWRRFI",
"~~~~~~~~~~~~~QIFR!RKR!!!!!!!!!QQQQQQEQIFAFFVKQQQQQQQQQQE~~Q~EIFQEQQEK_",
"~(~~~~~~~~~~~QKGR~RKR~~~~~~~~~~~~~~~~~QIFVFVIQ~~~~!!!~~~!!!!QIFQ~~~~Q]",
"(((((((((((((QIIRQUKU~(~~~~~~~~~~~~~~~~~QKGKRQ~~~~~~~~~~~~~RIAAR~~~~~`"
};
