/* XPM */
static char *result[] = {
/* columns rows colors chars-per-pixel */
"70 70 212 2 ",
"   c #000100",
".  c #030A04",
"X  c #0A0805",
"o  c #120C05",
"O  c #150E09",
"+  c #061407",
"@  c #071608",
"#  c #081709",
"$  c #0A1B0A",
"%  c #1A1714",
"&  c #1D1A15",
"*  c #1E1C19",
"=  c #21170E",
"-  c #261E12",
";  c #211F1C",
":  c #0D240E",
">  c #0F2C11",
",  c #1A2417",
"<  c #132D13",
"1  c #1C2A19",
"2  c #143315",
"3  c #143915",
"4  c #183D17",
"5  c #1A331A",
"6  c #1A3D1A",
"7  c #24211F",
"8  c #222B1E",
"9  c #2C2F1F",
"0  c #36291B",
"q  c #263818",
"w  c #333D13",
"e  c #1F3E22",
"r  c #262321",
"t  c #292623",
"y  c #262B21",
"u  c #2D2926",
"i  c #2F2B28",
"p  c #332C25",
"a  c #312D2A",
"s  c #243421",
"d  c #2A3325",
"f  c #253B22",
"g  c #2E382C",
"h  c #35312E",
"j  c #38362A",
"k  c #373432",
"l  c #383431",
"z  c #333C31",
"x  c #3C3936",
"c  c #5B3B0B",
"v  c #442F1F",
"b  c #693D07",
"n  c #61391A",
"m  c #483427",
"M  c #533F2F",
"N  c #164019",
"B  c #1B451C",
"V  c #1C4B1E",
"C  c #1E511F",
"Z  c #284319",
"A  c #234D1C",
"S  c #334C1A",
"D  c #3F4F18",
"F  c #24511E",
"G  c #2D531D",
"H  c #33521B",
"J  c #1F4B21",
"K  c #1F5421",
"L  c #1F5D23",
"P  c #254324",
"I  c #2C4627",
"U  c #244C24",
"Y  c #284E27",
"T  c #2A4528",
"R  c #245325",
"E  c #225C25",
"W  c #295825",
"Q  c #275728",
"!  c #295429",
"~  c #2A5C2A",
"^  c #3E5329",
"/  c #384937",
"(  c #335833",
")  c #236226",
"_  c #2D6227",
"`  c #256628",
"'  c #2A642C",
"]  c #266B2A",
"[  c #2A6A2A",
"{  c #2A742D",
"}  c #28762E",
"|  c #32742C",
" . c #2F6930",
".. c #346831",
"X. c #2C7A31",
"o. c #357535",
"O. c #59450D",
"+. c #474917",
"@. c #475519",
"#. c #66480C",
"$. c #764608",
"%. c #6C520F",
"&. c #644918",
"*. c #724815",
"=. c #765511",
"-. c #785712",
";. c #47611F",
":. c #464A2A",
">. c #5E462C",
",. c #445A26",
"<. c #474138",
"1. c #594534",
"2. c #5D4C35",
"3. c #6E472C",
"4. c #785725",
"5. c #604233",
"6. c #784F37",
"7. c #65513B",
"8. c #6B553B",
"9. c #77593B",
"0. c #516E22",
"q. c #4E6733",
"w. c #596637",
"e. c #507331",
"r. c #696A3A",
"t. c #7F693D",
"y. c #514C49",
"u. c #495848",
"i. c #58514A",
"p. c #6B5D40",
"a. c #7D5D40",
"s. c #625553",
"d. c #586058",
"f. c #59775A",
"g. c #776244",
"h. c #727E45",
"j. c #676C67",
"k. c #697969",
"l. c #853F08",
"z. c #85480A",
"x. c #9A5C0D",
"c. c #80532C",
"v. c #885A3C",
"b. c #965836",
"n. c #8A6D2A",
"m. c #86613D",
"M. c #B46836",
"N. c #805C4C",
"B. c #A15F41",
"V. c #896B46",
"C. c #936A46",
"Z. c #9C6D44",
"A. c #93764B",
"S. c #8F7557",
"D. c #A66946",
"F. c #AD7649",
"G. c #B3734B",
"H. c #B9784C",
"J. c #BC7C50",
"K. c #C27F53",
"L. c #2D8032",
"P. c #338838",
"I. c #37983C",
"U. c #3A9B3E",
"Y. c #428E36",
"T. c #56863D",
"R. c #419E3D",
"E. c #60852B",
"W. c #3CA643",
"Q. c #3DAB43",
"!. c #718744",
"~. c #679045",
"^. c #628263",
"/. c #90884D",
"(. c #9E8555",
"). c #A98958",
"_. c #AA955C",
"`. c #B89557",
"'. c #B69B68",
"]. c #D99043",
"[. c #CA8957",
"{. c #CC975A",
"}. c #D5955E",
"|. c #D4A55B",
" X c #CB9963",
".X c #D39761",
"XX c #D39D61",
"oX c #DB9B61",
"OX c #C7A868",
"+X c #D4A869",
"@X c #D9A869",
"#X c #CFAF73",
"$X c #D5B272",
"%X c #D8B776",
"&X c #E0A86A",
"*X c #E4B16F",
"=X c #E5B673",
"-X c #E4B974",
";X c #E7BD79",
":X c #EBC47B",
">X c #F4C07E",
",X c #848E84",
"<X c #E3AF86",
"1X c #F0BF92",
"2X c #ECC581",
"3X c #ECC987",
"4X c #F2CC84",
"5X c #F2CB88",
"6X c #F5D38D",
"7X c #F9D48D",
"8X c #F2D494",
"9X c #FBD691",
/* pixels */
"t u t u u t u t t t t t t u t t u t u u t t t t t r r r 7 r u u r u t t t r r t t t t t u t t t t t t t t t t u t t t t t r r t t r r t t u ",
"t t t t t t t t t r t t t t t t t t r t t r t t r r r ; r r r t u r t t t t r t t t t t t t t t t t t t t t t t u t t t t r r r t t t t t t ",
"t t t t t t t t r r r t t t u t t r t t r r t t t r ; t r 7 r t r t t t t t r t t t t t t t t t t t u t t t t t t t t t t r r r t t t t t t ",
"t t t t t t t r r 7 7 t r t t r t t r r ; r r t r ; r ; 7 r t t t t t t t t t t r t t t t t t t t t t t t t t t t t t t r r r r t t t t t t ",
"t t t r t t r r 7 7 7 7 r r t t t r r 7 ; 7 r r r ; 7 7 7 7 r r r t t t t t t r t t t t r t r t t t t t t r t r r t t t t r r t t t t t r t ",
"t t t t t r r 7 7 7 7 7 r r r r t r t r r ; r r t ; 7 7 7 7 r 0 r r r r 7 r r r r r r r r t r t r r r r t r t r r t r r t r r r r t r r r t ",
"r r r r r t r 7 7 ; 7 7 7 t r t t r r r ; ; 7 r ; ; 7 7 7 ; 7 t t r r r f r t r r t r t r t r r r r t t r t r r t r t r r r t t r t r t t r ",
"r t r t r r r 7 ; 7 7 7 7 r r r r r r r ; r ; ; ; ; ; t 8 ; 7 7 r r r y ! d r r d r r r r r t r t r r r r r r t t r r r t t r r r t r r t r ",
"7 t r t t 7 7 7 7 7 7 7 7 7 7 t r r 7 7 7 7 ; ; ; ; ; f R 8 7 7 y r r f ' U r r Y r r r r r r r r r r r r r r r r r r r r r t r r t r r r r ",
"r r r r r 7 ; 7 7 ; ; ; 7 7 7 7 r r r ; 7 ; ; ; ; ; 7 P [ Q 8 7 f f r f ` ' r y ` r r r r r r r r r r r r r r r ; r r r r r r r r r r r r r ",
"r r r r 7 7 ; 7 ; 7 ; 7 7 7 t 7 7 r r ; 7 7 ; ; ; ; ; P E ) R s f ! s Y 2 ] f P { 7 r r r r r r r r r r r r 7 7 ; r r r r r r r r t r ; r r ",
"r r 7 t 7 7 ; ; 7 7 ; 7 7 t 7 7 r 7 r ; 7 ; ; ; 7 7 ; P V $ 2 E Q E U ' : 3 R R B 7 7 r r 7 r 7 r 7 r 7 r 7 7 7 ; ; ; ; ; r ; r 7 t t * 7 r ",
"7 7 r r 7 7 ; ; 7 7 7 7 t 7 7 t r r , 7 7 ; ; * f R 8 s 5 +   . N : K B .   ` L B P 7 r 7 r r 7 7 7 r 7 r ; ; ; * r ; ; ; ; t r 7 r 7 % 7 r ",
"r r 7 r 7 7 ; ; 7 t 7 7 7 7 7 7 7 7 r r 7 7 7 7 7 U Q f 5 +     $ . > .     $ . V R , r 7 7 7 r 7 r 7 r r ; * ; ; ; ; ; ; r r r 7 7 ; * 7 r ",
"r 7 7 7 7 ; ; ; ; 7 7 t 7 7 7 7 7 r r 7 7 7 y * * s Q U 5 +                     4 R 7 r 7 7 7 7 7 7 7 7 r ; ; * ; ; ; ; ; ; ; r r r r 7 7 7 ",
"7 7 r 7 ; ; ; ; 7 7 7 7 7 7 7 7 7 7 7 7 r s U f s q U V 2 +                     + Q ; r 7 7 7 7 7 7 7 7 r ; ; ; ; ; ; ; ; ; ; r r 7 7 7 7 7 ",
"7 7 7 7 ; ; ; ; 7 7 7 7 7 7 7 7 7 7 7 7 7 t ! ' J 5 J N : .                     . [ s ; ; r 7 7 7 7 7 7 7 7 * ; 7 7 7 ; ; 7 7 7 7 7 7 7 7 7 ",
"r 7 7 r ; ; ; ; 7 7 7 7 7 7 7 7 7 7 7 7 7 r e J + @ 3 J :         X - = 0 = .   - ..y ; r ; r 7 7 7 7 7 7 ; ; ; 7 7 7 ; ; 7 7 7 7 7 7 7 7 r ",
"; 7 7 ; ; ; ; ; 7 7 7 7 7 7 7 7 7 7 7 7 7 7 r e < .   + # .       o 9.V._.A.2.9 (./.8 ; r ; r 7 r 7 r 7 7 ; ; ; 7 7 7 7 7 7 7 7 7 7 7 7 7 r ",
"r 7 ; r ; ; ; ; 7 7 7 7 7 7 7 7 7 7 7 7 7 7 7 y J 2 .             v ).:X7X7X%X'.6X#Xj ; 7 r 7 7 ; 7 7 7 7 7 ; 7 7 7 7 7 7 7 7 7 7 r 7 7 7 7 ",
"7 ; ; 7 ; ; ; ; ; 7 7 7 7 7 7 7 7 7 7 7 7 7 7 * 8 B :           O Z.oX).%X6X7X9X4X(.j ; 7 7 7 7 r 7 7 r ; r 7 7 7 7 7 7 7 7 7 7 7 7 7 7 7 7 ",
"7 7 7 7 ; 7 ; ; 7 7 7 7 7 r 7 7 7 r 7 7 7 7 7 7 * q 6 @       X O Z.}.Z.8.F.$X4XA.8.0 ; 7 7 7 7 7 7 7 7 ; r 7 7 7 7 7 7 7 7 7 7 7 7 7 7 7 7 ",
"7 7 7 7 r ; ; ; 7 7 7 7 7 7 7 7 7 7 r 7 7 r 7 7 8 R E V #   X >.V.J.[.).m M {.<Xm a.a ; 7 7 7 7 7 7 7 r r ; 7 7 7 7 7 7 7 7 7 7 7 7 7 7 7 7 ",
"r 7 7 r ; r ; ; ; 7 7 7 7 r 7 7 7 7 7 7 7 7 7 * 7 P V $ .   o m.K..XoX<XS.0 A.%Xs.y.x 7 7 7 7 7 7 7 7 ; ; r 7 7 7 7 7 7 7 7 7 7 7 7 7 7 7 7 ",
"7 7 7 7 7 7 7 ; 7 7 7 7 7 7 7 7 7 7 7 7 7 7 7 ; * ; e Q >   O v.K..X&X1X3.z.XX4X].i.x 7 7 7 7 7 7 7 7 7 7 7 7 7 7 7 7 7 7 7 7 7 7 7 7 7 7 7 ",
"7 7 7 7 7 7 7 7 7 7 7 7 7 7 7 7 7 7 7 7 7 7 7 ; ; ; * 7 e J # m D.oX-X6X3X5X5X8X2X1X<.7 7 7 7 7 7 7 7 7 7 7 7 7 7 7 7 7 7 7 7 7 7 7 7 7 7 7 ",
"7 7 7 7 r 7 7 r 7 7 7 7 7 7 7 7 7 7 7 7 7 7 7 ; 7 * 7 * ; 8 J e N.}.*X>X7X7X:X@X$X=Xm 7 7 7 7 7 7 7 7 7 7 7 7 7 7 7 7 7 7 r 7 r r 7 r 7 r 7 ",
"7 7 r 7 7 7 7 ; 7 7 7 7 7 7 7 r 7 7 7 7 7 7 7 ; * 7 * 7 ; ; ; 8 n H.}.&X;X:X-X;X<Xg.r 7 7 7 7 7 r 7 r 7 r r 7 r 7 7 7 7 r 7 r 7 7 r 7 r 7 r ",
"7 r 7 7 7 7 r r 7 7 7 7 7 r 7 7 7 r r 7 r 7 7 ; * 7 7 7 7 8 e J D c.B.[.oX*X+X+Xs.r r 7 7 r 7 r 7 r 7 r 7 r 7 7 7 r r r 7 r 7 7 r 7 r 7 r 7 ",
"7 7 t h h 7 ; r r 7 7 r 7 r r 7 r 7 7 r 7 7 ; ; * 7 r y ( ] ] ] ) +.c.b.B.G.t.8.7 7 r r r 7 r 7 r 7 r 7 r 7 r 7 r 7 r 7 r 7 7 r 7 r 7 r 7 ; ",
"r 7 7 t u ; * r r r r r r 7 r r 7 r 7 7 r 7 7 ; 7 * y o.W.I. .] ] ) @.4.b.*.4 B r 7 7 r 7 r 7 r r 7 r r 7 r 7 r 7 r r r r 7 r r r 7 r r r 7 ",
"7 r 7 7 * * ; r r 7 7 r r r r 7 r 7 7 r r 7 ; ; 7 y  .W.I.U.f.e.o.] ` O.$.G 4 2 * 7 r r 7 r r 7 7 r r 7 r 7 r 7 r 7 7 r r r r 7 7 r 7 7 ; r ",
"r r 7 7 7 * 7 r r 7 r 7 r r r r r 7 7 7 7 7 7 7 ; I I.R.~.OX;X+X!.| { -.x.| ] B 2 7 7 r r 7 r 7 r 7 r 7 r r 7 r r r r 7 r r 7 r r 7 r r i * ",
"7 7 r 7 7 * * 7 r r r r 7 r 7 7 7 7 t t 7 7 7 7 7 ! P.o._.5X9X3X+XT.| -.x.| ` V , 7 7 7 r r r r r r r r r r r ; 7 r r 7 7 r r r r r 7 7 t * ",
"r r 7 t 7 7 7 7 7 r 7 r r r 7 r r r 7 7 7 t 7 7 8  .X.;.`.:X5X6X>X!.| -.x.| E V , p 9.a.2.r r r r r r r r r r ; ; r r r r r r r r r r 7 7 * ",
"t 7 r 7 7 7 7 t r r r r r 7 7 t 7 r 7 t 7 7 t 7 I e.;.H n.|.:X:X Xw._ -.x.| C B - N.G. X`.p r r 7 r r r r r ; ; ; 7 r r r r r r r r 7 r ; 7 ",
"t 7 t 7 r 7 r 7 7 7 r r r r 7 7 t t 7 7 t 7 7 7 ! Y.E.@.w *.{.XXM.&.S #.z.G O.q &.J.G. X@X8.r r r r r r r 7 ; 7 ; ; r r 7 r r r r r 7 7 7 7 ",
"7 7 t 7 r 7 r r r r 7 r r 7 t 7 7 7 7 t 7 7 7 d [ W.R.0.D w ,.-.$.w V O.$.F S Z =.[.G. X[.C.r r r r r r 7 ; ; ; ; ; r r r r r r r r t r t t ",
"t 7 t 7 r r r r r r t r r r r r t 7 7 7 7 t 7 s  .P.L.[ S A F H S V A O.$.G N S c M.[.[. X2.r r r r r r 7 ; ; 7 7 7 r r r r r r t 7 t r 7 t ",
"7 t 7 t t r r r r r 7 t t r r 7 7 7 t t r r t t f ' [ U +.%.%.%.%.%.%.b $.#.#.Z b c G.6.2.u r r r r r r r ; 7 ; ; ; r t r t r r r t 7 t 7 t ",
"t 7 r t 7 7 7 7 r r r r t r 7 t t 7 7 t 7 r r r y y y r ; O o o o & t u u % o : b l.v t t r t t 7 t 7 t 7 ; t ; r ; r r r r r t t 7 t 7 t r ",
"7 t r t r 7 7 7 7 r r r t r t r 7 t t 7 t 0 t r r r r r 8 : . . @ k.x , k d.+ & r r r r r r r r t 7 t 7 t 7 7 ; ; r r t r t r r 7 t r t 7 t ",
"t r t r 7 7 7 7 r r r t r r r r t t 7 t r t r r r t r r P A B N 3 k.j.d.j.f.< 7 r r r t r t r r 7 t t t t 7 t ; r ; r r r t t r 7 t t 7 t 7 ",
"t t r r 7 7 7 7 r r t r r t t r t 7 t 8 r r r r r r r y ~ U.Q.I.X.J J U J K B 1 r t r r r t r t t t 7 t t t t 7 ; r r r t r r u t t t t t t ",
"r t t r 7 7 7 7 r r r r t r t t t r r t t t r t r r t u  .I.P.L.} ) ) { { ] V 2 r t t r t r t r 7 t 7 t r t ; ; 7 ; ; r r r t r t t t r t t ",
"t t r t 7 7 7 7 r r t t r t r r r t t r r t t r t r r y Q L.X.} ] J L ] ` K B < r r r t t t t r t t t t t t r ; r r ; r t t t t 7 t t t t t ",
"t r t t 9 7 7 7 r r t t t t r t t r r t t r r t t r r y R ) L L K 2 4 K V q.q.^ r t t r r t r t r t t r t r t 7 7 7 ; r t t t u t t t t t t ",
"t t t t 7 7 7 7 r r r r t r t r t t t t r t r t t r t u w.h.!.w.Z 1 < e r.OXOX_.j t t t t t t t t t t t t t t 7 7 r r r r t r t t t t t t t ",
"t t t u t ; t t ; r u r u r u r t t t t t t t t t t t l ).3X4X%Xr.d r :.OX4X7X3X).y t r t t t t t t t t t t t r ; t ; 7 u t t t t t 7 7 t 7 ",
"t t u r t r ; r ; r ; u r u r u t t t t t t t t t t t p S.2X7X4X).m t :.OX:X7X9X%Xu t t t t t t t t t t t t t ; t ; t 7 t u t t t t m k ; t ",
"t u t t t t t t u r u r t t u r t t t t t t t t r u t u g.%X9X4XV.a t p g.%X4X9X3Xp t t t t t t u t t t t t t t t 7 7 7 t t t t t t 7 t * 7 ",
"t t t u t u t ; ; r u u u t t u t t t u t t t t u t t r p.$X7X2Xp.u t t j _.:X4X:Xp t u t u u t t t u t u t t u u t t 7 u u t t u t t r ; 7 ",
"u t t t u t t t ; r u t u u r u u t t t t t t t t u t 8 8.#X4X=X7.t t t t V.*X=X=XN.7 0 t u t t t u u t t t t t u t ; r t t u t t u t t t r ",
"t u u t u t t t t r u u t r t r t u u t t u t u u r I q.F.@X=X X1.t t t t M .XoXH.M r r t t u t t t t u t u u t t u p t u u t u u u u u t r ",
"u t u u u u u t p t t t u r t t u t t u u u u t u y ^ (.{.J.D.5.u t u u y W Z.D.>.7 r r t u u t u t u t u u u u u t u u u t u t u t u u t t ",
"u u u t u t t u u u u u t u u u u t u t u t t u y T K ^ r.:.y y u u u t 8 R ) C 3 1 r r r t t u u u u t u t t u u u u u u u u t u u t t t t ",
"u u u t u t i t u u u u u u u t u u t t u u u t g o.L.T f 5 r t t u u u t q 6 / 5 7 t t r r t u u t u u t u u u u u u u u t u u u u u u u t ",
"u t i u i i t i u u u u u t u u u u u u t u u u T o.o.u./ d u u u u u u t Y ` ,Xz r r r r r r u u u u u u u u u u u u u u u u u u u u u u t ",
"u u u u t i u t u u t u u u u u u u u u u u u i ! ~ u.u.z y u u u u u t d ] ( j.y.g t r t t r t u u u u u u u i u u u u u u u u u u u u u t ",
"t i u u u u u i u u u u u u u u u u u u u u u d U u.u./ r u u u u u u u d E N ^.k./ > 1 r t r u u u u u u u u u u u u u u u u u i u u i u i ",
"i u i u i u i t i u t i u i u u i u u u u u u d J Y T 8 y u u u i u u u u U J Q J < 5 1 r t r u u u i u u u u u u u u u p u u i u i u u i p ",
"i i t i u u u i i i i u u p i i u u u i u u u y 6 J 6 5 y i u i u i u u u z z z k k z g t t t u u u i u i u i i i i i i u i i u i u u i u i ",
"i i i i i i i i i u i i i i i u u t i u i i u u g z z g i u u i i u i u u a i i i i i i t t u u u i i i u i i i i u i i a p u i i i i i i u ",
"i i i i i i i i i i i i i i i u i i i i i i i i i h h h a i i i i i i i i u u t t t t t t t u i i i i i i i i u i i i i <.l t i i u i i i u ",
"i i i a i i i i i i i i i i a i a i p i i i i i i i i i i i i i i i i i i i u t t t t t u u i i i i i i u a u t i i i u p u 7 u i i i i i u ",
"a a a a a i a a i a a a a a u u u a i i i a i a i i i i i a i i a i i i i i u u t u t u u i a i i i i i a i u u i i i i i r r i a i i i u u ",
"a a a a a a a i a a i a i i u u i a i i a i a a i a a i a a a i a a i i i i i t u t t i u i a i a a a i a i p u a i i a u i u a i a i p u i ",
"a a a a a a a a a a a a a a u u i i u i a a a a a a a a a a a a a a a a a a i u u u u t i i a i a i i a a a a i a a a a i i u i a a a a i h ",
"a a a h h h i a a a a a a a u u i i i u i a a a i h a a a a a a h i a a a a i i u u u u i i a a a a a a a a a a a a a a p u t p a a a a a h ",
"h h a a a a a h a h h a a i i u i i u u i a a a a a a i a a h a i i a a h a i h p u t i p a a a h a a a a a a a a a a i u u u a h a a a a h "
};
