/* XPM */
static char *result[] = {
/* columns rows colors chars-per-pixel */
"70 70 85 1 ",
"  c #040606",
". c #06060A",
"X c #08070C",
"o c #07080B",
"O c #0B0B0D",
"+ c #0D100F",
"@ c #10120F",
"# c #0D0E11",
"$ c #100F13",
"% c #0E1213",
"& c #0E1618",
"* c #0F191A",
"= c #111315",
"- c #131817",
"; c #131619",
": c #18171C",
"> c #151A1D",
", c #191C1E",
"< c #1C201F",
"1 c #161E20",
"2 c #1A1E21",
"3 c #201F24",
"4 c #162122",
"5 c #1C2225",
"6 c #1F2827",
"7 c #1E2629",
"8 c #1E292A",
"9 c #1C2B30",
"0 c #212426",
"q c #232827",
"w c #222629",
"e c #232B2D",
"r c #292C2E",
"t c #2C302F",
"y c #252E31",
"u c #2A2E31",
"i c #263132",
"p c #2A3335",
"a c #273339",
"s c #2D3639",
"d c #27383C",
"f c #2E393B",
"g c #313536",
"h c #32373A",
"j c #323B3D",
"k c #383C3D",
"l c #2D3D41",
"z c #343D41",
"x c #393E42",
"c c #354143",
"v c #3A4345",
"b c #354449",
"n c #3C4549",
"m c #37494D",
"M c #3D494C",
"N c #3D4D51",
"B c #3F5054",
"V c #41464C",
"C c #414A4E",
"Z c #444D51",
"A c #494F55",
"S c #455254",
"D c #495456",
"F c #46565A",
"G c #4C5659",
"H c #4D595C",
"J c #51565C",
"K c #515C5E",
"L c #4F5D60",
"P c #535D61",
"I c #595F65",
"U c #556164",
"Y c #596466",
"T c #546368",
"R c #5B666A",
"E c #5D6A6D",
"W c #5E6C70",
"Q c #616C6E",
"! c #636E72",
"~ c #657275",
"^ c #687376",
"/ c #657478",
"( c #6B757B",
") c #6C797D",
"_ c #717A7F",
/* pixels */
";>;;;,;;::;:>;;>>;;;;=;;:2:;>,;>2>=>2>>2>;,>;,>>22,>,2,;27222122,>>2>>",
">;222>,,21:122222,2>22,220225,2222,55227702707022222027020w22w72,772ew",
"2;2w0>27;>w5,7w530>>w22ww22w2,ww,7w21rw:ru,5w7;ww27w07q0,ru72ew27e55iu",
"2,77220557ww7ww72777777277727w05wwwwwreww70wwwrwwwwweew7r7wyeeeyetiipi",
"rppruhspshpshhphhhkkgkkhgkxgkkpgxhpkvkhxkhvvkkChhvvjxvjjVvkCvxjvccMvcv",
"wew7eew8ww0wr7wypeieeepeuuupyypsppipagiupstuppppshptpgtispphsfsfipspfp",
"iuissyeipppiiiypiiypipppapppiushsspppsxksssshksghshjkkcjgkjjjcjcfcjjcj",
"22222252<5>554>25>,75575572277227215557e5,777w7757577777w878ew8w657655",
";$;;$;$====;;&%;===-====-;==;;#%;-$,;::;-=-;;-;==:--=:::--=->>>>-:,::<",
"$$XX$$$#$%######=$%=##=@$==%%###==$==-===$$$+%=%=-:@==$$&%=@-@--@@-@@+",
"..XX... XXXX..X.X.XX.ooXXOoXXX. XOO$#%X#+O.XoO#OXOO..oXOXoooOooo OO@  ",
"XXXXXXXXX#X#oX..XOXXXXoXOOOOOO#XO=$O#=##=OXOXXOXOXOO.O$XOOXOOOoOOOOO++",
"XXXXXXXXXXX..XX.XXXXX#XXXoOOX##XX=#X%#X%#X.XXOXXOOO$O$X$OOOOOO@@OOX XO",
"XXX#XXXXXXXX.XXXXXXXXX#XOOo#XX#XO=##%##;%XX#o###OXXOXXXXOOO@@  OXXOOOX",
"&$%&=;;=:;;;;;;=$$:=;;;;&;&&;;1;;>>;:;;>>>>;;>>>;:::::$:::=:<::::::-,,",
";:;&=22:22:::,::2::;:2,:>22;121:>,>,>21:,00212223332:333333300<<,,<000",
"&$X&$$&1%%%#;;;%=;%1&$;&=;;;;>%;:&%1;%;;&;;;;>-*;;&2>;;;>:-1;;&:>1>;:>",
"1$$:1X:1;;1;%11&111111117>;51;22;:7:;>2>;1;12>-<,;>25>52125>&11>44>>71",
";22122222224111112921772w05727222732277772ww55<5777247777e75777468657e",
"2yw22u22wy27y15922ay7ezy0upqyuwyzu7ahwehy2upwaf6wfz8ijeins7pp7exp8kcei",
"ewww277278776ii67i88ay7wi5tci66iyyyye8eiye8ucpqiispeipepsgfiipepptikfi",
"e2wpw2rl4<p86dy<8pe8az7yf6emi<ifeyseefp8ahyacfqffepji8sfesvpinkpfc6pcf",
"2yu7yawuiieipiiiiyppiccifppfdfipjfixfpifppsxffcfszfpfcffcjfjvcjjcccccf",
"yaawyayyfieepyifpipsiMZccMvpfcffcfpccffcfpccfcclfvcjccjcMvjMvfcvfpcvpc",
"y8asiifsiipsifpijpffffcccfvcffjfccfffjvcfccjvccfcccvcjcvccccmvvvcxmcbc",
"nncxMSMvvvkjcmSHNMvSSSSHSMDDFSHSSDLFDHSKUSSHHLUTYLHFHLHUDULUYLLLHHGGKQ",
"&>-&>>***>*><**<**<******<<*<4*><<*4*4<<>*<><<*4<<44<<4<<444<4<<454457",
"-;&&=&=****>*>**<-**>*>**<*->4>-**&<<**44**<*<<<4<<*<4,2<<<<4*44444>>5",
"%%%+%+++++%%%%%%+%%%+%&%+*%%%%%+=--:***<>=%%%%&=+%**===-----*&&&==;&$$",
"XoOOXoOXOoOOooOooooo oooo+oOOoXO%--=@*@-:+OO+O+Oo+++##O+O+OO++O+++OOX#",
"XOOOOOOOooOO+OO++++%oOO#++o%++%%$::==---:+O%O%O#+O++##+O++@OOO%+O++X##",
"XOXOOOXOO+OOOOOO++OO+O+O++++OOOO+-@@::--:+OOOO%O%+O+#+$$$+@OO+OOO+OOX#",
"#OX#O##OX#$##$$X$$#$#=+O$$$=$OOO$:=$:::@==O$===O==$$%-@===$==$$@$$$$$=",
",,>>,;>:::2222223222,,25,322,005,<20333<5,,230,202005500500w00q0www333",
">;;>;>>>:2:;2:12,:22,><<,,1>20q522227222>><<270755,5456627w23ww333323w",
";;;>;;-=;;11:;1&;>;;,>>*>;&>>,4*>>>1>22><44<22>2>4>>*<<*5->5,:222222w2",
"54444>771187277277255555888784iyy4yy7e8yyy88i84iy4iii6pp4iu9yzy2wa77di",
"77787878wy87ww9weeyyyriiyiiyeiyidpipiipfpifdipfipfippfffpfsszdalallzaf",
"8ii88syeiiyylw9liiffiivfiffidciicfifbpfcpfMbffNfdmjpfMffMcsnbllMllmmxb",
"s88pyyszyeziaxx3pkiyjjsdfipMcpzxpfcfpcfifvjcScscvjcScfcvpfNzlLNlxmllLN",
"iyaawalay9uy9zxlepyelauujssndssspifiassiszysnzzzlllJZzllSlzzlFmlfbd9Lm",
"sZZzxAVVAVzxVzxJCcZZzxAxnKPMGUMnHBmSGMCHZMHFMLRAxJJZPRJA_HZPRLLRHBLLFL",
"zxzxzxzzxzwzzzzxMxxxzxMxnCVvCZMnCCcSZnZZZnDZZZSZAJANxJAAGZADSBNFSMSSmS",
"nxxxVVVxVxVVxVVxVAZAAGAGGGCSGGGADGKKGGHHGHHHPLLPPJIRIIJIKIIHUHTHHHKHHH",
"zzzzzxzzzhzzzlzzzxxxVVxxVnvvCCnnnVDAnVVVZZVZZAZSAAJPJAAAAGAASZDSZZDDCS",
";1$$:2;:22;:;:1222222227,,,,5022<<5055252277527737332337222w7777e7e755",
";22122:22222232772272223,0<5002w70,q000ww2ww729ww923www3wwwww7qwwwww5r",
"XX$X$X$$#$$$$$$$X$$X%%$$$=-=$@===:-:-:;>1$%&&%%%$$$&$;;;;$#;;-=&&-=-%&",
"XX#XOO+OO++O+OOOOOOO+OOO+=####$#$::@-,-<<@+@++++$$#&####$#O#%%++++++++",
"$XO$OOOOO+O+O+O+++O@+O+@$$##$#=#$<:::--<<++@++++$$#$$$$$#$$$++%++@++++",
"++OOO@+++-@@-@@@=@@-@=@=;:;;:$;;=<:@---<<+--**-<;$$&;$;;$:;--+>---<@*-",
"<qq0rq<5q<<qqq0q0e0q<qq0wuwwrwuutrqttqqttiiqi8qiryyyrugxwhuggrgripqpft",
"<<>55,5<5555,<5<557q20772272702ww3wrq<q66p668869wwww9yauywtprrreqiqq6e",
"5>>1*>145>,4,<5>175>22252275527732776666<8<6646677323w337w8e87e886<i68",
"78e77e88we88e88yeeeeeeyyyuyyyiipiiyypiifp8ddiifiyluulzuwjspfpsifdilfid",
"eiippppppfeifipcjifjiikjaxzisnysnxyjcffvlpccfcNflxxlzxllVMcMvdcvcfMfcc",
"xuzZnyjxssnssMCzcVffZxaCGzhMczMDMMGxdSNcSLccFBlmDlbLNzFZcF!FbLFmmBmBTF",
"zaazzyjxsjCbzMAzhMxsMblnZlhZnsZvzZHncUNlNTbcBbcmZnmSmzZFfSHmbHBcBTBmTT",
"xMZnZAVnDHGGHGFPHSLLSHIHZTRALRSHRIGYWRLWULEEFY/LL~ELWWJJ)TFWWTT//E)QW/",
"CAZZZGSSZDZGGAHPKUYYURRPITRTRQEUTQY!QEQWEYQEEQQ~R//RW!WW~!EWWWW/ER/~~~",
"FGHHHKHHKHHDHPPKHLKYYUUEYRKYYQEQQE!EYQQ/R!EQ^~!!!!^!!(_((((^//((~/~)E~",
"VVGGDSCCSDMSDZSDFSDKDKKFJKGKLUUUYLKTUUU^PLUKI^RPTRIIR(WRR(!~EYR^EE!UUY",
"*441444474488448846e5784487786466468e4788588582739y47992ye8ey68y68ieq8",
"177444446848875e888e65888e86ei46ee68i66y8eyyy8ayyauyuuwwye8ii8yyiitiii",
"%%&%&&&%%&&&&&&&&&&&&&%&&&&&&***>55>51141>>>>>>>>>>>,;;;,>->>---*->>>>",
"%##$#%&%##%$#%%######$#&&#&&##&&$21;15255&%&-=&&--@@=-===@====%%%&&=-%",
"OX###%$$$$$$%%$$%%#&$;$$%##%$&&$$2:;>2>21&%#&&%+@=@@=-==-@-@=-@%%+%%-%",
"%#%%###XX#$#######%%#$$####%$#$$;07222>74%#%&%%&%@@@@@@@@@@%%%=%-%%+%+",
":::2;:22:,,,:2:211:2:2333332212:2002772w511251><<,<<<<<<<<<55><555575<",
"w333wuurwwrtuguywyuyuuhutuuhyyauuuuuuauualkspsppgpppgggpsppfkcjpspfckj"
};
