/* XPM */
static char *result[] = {
/* columns rows colors chars-per-pixel */
"77 77 216 2 ",
"   c #161413",
".  c #191615",
"X  c #1B1917",
"o  c #1D1B19",
"O  c #211E1C",
"+  c #24211E",
"@  c #1D1A2E",
"#  c #1E1C3B",
"$  c #201D3F",
"%  c #262320",
"&  c #292623",
"*  c #2D2926",
"=  c #2F2B28",
"-  c #302B27",
";  c #322E2A",
":  c #36312D",
">  c #38332F",
",  c #2A2738",
"<  c #342E39",
"1  c #3A3531",
"2  c #3F3A36",
"3  c #3C3939",
"4  c #403B37",
"5  c #423E3A",
"6  c #344937",
"7  c #46413D",
"8  c #48433F",
"9  c #1F1B40",
"0  c #231E42",
"q  c #2D1F44",
"w  c #2C2E44",
"e  c #2A2848",
"r  c #362A49",
"t  c #2D3447",
"y  c #353549",
"u  c #363552",
"i  c #472847",
"p  c #582C4A",
"a  c #453746",
"s  c #57334C",
"d  c #483C58",
"f  c #493E5A",
"g  c #3A4349",
"h  c #2B4F52",
"j  c #1B6D51",
"k  c #2E7056",
"l  c #375A62",
"z  c #346F67",
"x  c #3B7873",
"c  c #454345",
"v  c #4A4542",
"b  c #4D4945",
"n  c #4E4D49",
"m  c #524B46",
"M  c #514D4A",
"N  c #44584A",
"B  c #54524D",
"V  c #5F5749",
"C  c #4C435E",
"Z  c #514E5E",
"A  c #565551",
"S  c #595552",
"D  c #565954",
"F  c #5A5A55",
"G  c #5D5E59",
"H  c #635D4F",
"J  c #4E684C",
"K  c #526B4E",
"L  c #576059",
"P  c #5D635D",
"I  c #587D56",
"U  c #6C6450",
"Y  c #61635E",
"T  c #627954",
"R  c #494763",
"E  c #555D6E",
"W  c #65566A",
"Q  c #596464",
"!  c #5D6A62",
"~  c #4C7668",
"^  c #587366",
"/  c #5E7469",
"(  c #5D6577",
")  c #427870",
"_  c #636661",
"`  c #646B64",
"'  c #676F68",
"]  c #64746B",
"[  c #65756B",
"{  c #69746C",
"}  c #63796E",
"|  c #626B75",
" . c #666879",
".. c #756A77",
"X. c #647D71",
"o. c #6C7C73",
"O. c #6A7479",
"+. c #0F895C",
"@. c #27815D",
"#. c #168A69",
"$. c #0E986E",
"%. c #11976A",
"&. c #0D9C71",
"*. c #199A76",
"=. c #2A8768",
"-. c #29876B",
";. c #378969",
":. c #34926A",
">. c #329B6D",
",. c #2C8A71",
"<. c #319274",
"1. c #0FA278",
"2. c #16A17A",
"3. c #578656",
"4. c #569359",
"5. c #47876B",
"6. c #578A74",
"7. c #658275",
"8. c #6B8176",
"9. c #668679",
"0. c #6C8579",
"q. c #678A7B",
"w. c #6B8A7D",
"e. c #72857C",
"r. c #728A7F",
"t. c #60907C",
"y. c #5FA27A",
"u. c #66A968",
"i. c #6EB470",
"p. c #6C6C83",
"a. c #6C7486",
"s. c #75798A",
"d. c #7D7C94",
"f. c #817F95",
"g. c #817E98",
"h. c #139F83",
"j. c #14A282",
"k. c #6E8E81",
"l. c #748D82",
"z. c #7C828E",
"x. c #6D9485",
"c. c #6E9788",
"v. c #749285",
"b. c #7A9185",
"n. c #749689",
"m. c #7A968A",
"M. c #739C8D",
"N. c #7B9B8E",
"B. c #7A8692",
"V. c #7C9D90",
"C. c #73AF8B",
"Z. c #76A191",
"A. c #7BA395",
"S. c #7DAB9B",
"D. c #848493",
"F. c #888996",
"G. c #849999",
"H. c #90949D",
"J. c #81A295",
"K. c #84A699",
"L. c #84AB9D",
"P. c #8CAC99",
"I. c #88AA9E",
"U. c #8B8AA0",
"Y. c #859BA1",
"T. c #87A9A3",
"R. c #8AAEA1",
"E. c #94A6AE",
"W. c #85B3A4",
"Q. c #8CB2A5",
"!. c #8DB6A9",
"~. c #8DBAAC",
"^. c #96B6A7",
"/. c #91B5A9",
"(. c #93BBAE",
"). c #94BEB2",
"_. c #9ABCB4",
"`. c #A3ADA6",
"'. c #A7B3B7",
"]. c #96C0A7",
"[. c #95C1B5",
"{. c #9BC1B5",
"}. c #9BC6BB",
"|. c #9CC5BA",
" X c #ACC7B7",
".X c #A1C5BB",
"XX c #A3C9BE",
"oX c #B4CBBD",
"OX c #ADB9C1",
"+X c #ADC2C3",
"@X c #A5CBC2",
"#X c #AACDC5",
"$X c #AECFC9",
"%X c #B3CCCA",
"&X c #B9C8C9",
"*X c #AED1C8",
"=X c #BBD2C7",
"-X c #B3D3CC",
";X c #BDCFD0",
":X c #BAD6D1",
">X c #BFD8D4",
",X c #C2CBC6",
"<X c #C5D4CB",
"1X c #C3CED4",
"2X c #CACFD8",
"3X c #C8D7D6",
"4X c #C3D9D6",
"5X c #CDD2DB",
"6X c #CBDADB",
"7X c #D1D2DF",
"8X c #D2DCDC",
"9X c #D3D3E1",
"0X c #D4DEE1",
"qX c #DCE0E7",
"wX c #E4E3EC",
"eX c #E7EBED",
/* pixels */
"1 2 2 2 2 4 2 2 4 2 2 4 2 4 2 2 2 2 2 2 2 2 2 2 2 2 2 2 4 4 4 1 4 4 1 4 4 4 1 4 2 2 2 2 2 2 2 2 4 2 2 4 2 2 2 2 2 4 2 2 4 2 2 4 4 4 4 4 4 4 > 4 4 4 4 4 4 ",
"4 2 2 2 2 2 2 2 2 2 2 2 2 2 2 2 4 2 2 4 4 2 4 2 2 4 4 2 1 4 4 2 4 4 4 4 4 4 4 4 2 2 2 4 4 2 2 2 2 2 2 2 2 2 4 2 2 2 2 2 2 2 2 2 4 4 4 > 4 4 4 4 4 4 4 > > ",
"4 2 2 2 4 2 2 4 2 2 2 2 2 4 4 2 2 2 2 2 2 2 4 2 2 2 2 2 4 4 4 2 1 4 1 1 1 4 4 4 2 2 2 2 2 2 4 2 2 2 2 2 2 2 2 2 2 2 2 4 2 2 2 2 > 4 4 4 4 4 4 4 > 4 4 4 4 ",
"2 2 2 2 2 2 2 2 4 2 2 4 2 2 2 2 2 4 2 2 2 2 2 2 2 4 2 2 4 4 1 2 4 4 4 4 4 2 4 1 2 2 2 2 2 2 2 2 2 2 1 2 2 2 2 4 2 4 2 2 4 2 2 4 4 4 4 4 4 > 4 4 4 4 4 4 4 ",
"2 2 2 2 2 2 2 2 4 2 2 4 2 2 2 2 4 4 2 4 2 2 4 4 2 4 2 2 4 2 4 2 1 2 2 4 4 4 1 4 5 2 2 2 2 2 2 4 2 1 1 2 2 2 4 2 2 2 2 4 2 2 4 2 4 4 4 4 4 4 4 4 4 4 > 4 4 ",
"4 2 4 2 2 4 2 4 2 2 2 2 2 4 4 2 4 4 2 2 4 4 4 4 4 1 4 4 2 2 2 4 4 4 2 4 1 1 1 b B 2 2 2 2 4 2 1 2 2 2 2 2 2 2 4 2 4 2 4 2 2 2 2 4 4 4 > 4 > 4 4 4 4 4 4 4 ",
"2 2 4 2 2 4 2 2 2 2 2 2 2 2 2 2 2 1 4 4 1 2 1 1 1 2 2 4 1 4 2 1 4 4 2 1 1 > 1 B S 2 1 4 4 2 2 2 2 4 2 2 > > > 1 1 4 4 4 2 4 2 2 4 4 4 4 4 4 4 4 4 4 4 4 4 ",
"2 2 2 2 2 2 2 2 4 2 2 4 2 2 2 2 4 1 1 1 > > 1 > 1 > > 1 1 4 4 4 2 2 1 > > ; > 1 2 > 4 2 2 2 4 2 2 1 > > > > > > 1 > 1 1 1 2 1 1 > 4 4 > 4 4 4 > 4 > 4 4 4 ",
"4 2 2 4 2 2 4 2 2 2 2 2 2 2 2 2 4 1 1 1 > > > > > 1 > > 1 2 2 2 2 2 > ; ; ; ; : > 3 2 2 4 2 2 4 2 > > > > > > > > > > > > 1 > 2 4 4 > 4 4 > 4 4 4 4 4 4 4 ",
"2 2 2 2 4 2 2 2 2 2 2 2 2 1 1 1 1 1 1 1 1 > 1 1 1 > 1 1 1 2 2 4 4 2 4 4 2 2 2 2 2 2 2 2 4 4 1 1 > > > > 1 > 1 > > > > > > > > 1 > 4 > 4 > 4 4 4 4 4 > 4 4 ",
"2 2 2 2 2 2 2 2 4 2 2 2 4 1 1 1 1 > > 1 > 1 1 1 ; 1 1 1 2 2 2 2 2 2 4 4 2 4 4 3 2 2 2 2 4 1 1 1 > 1 > 2 2 2 2 1 1 > > > > > > > > > > > > 4 4 4 4 4 4 4 4 ",
"4 2 2 4 2 2 4 2 2 2 2 2 4 1 > > > > > 1 1 1 1 1 1 2 1 2 2 2 4 4 2 4 2 2 2 4 4 4 2 2 2 2 4 4 1 1 1 4 4 1 2 2 1 2 4 2 2 2 2 2 4 1 > > > > > > > > > 4 4 4 > ",
"2 2 4 2 2 2 4 2 2 4 2 2 2 2 2 1 1 1 1 1 2 2 2 2 2 2 2 2 2 2 2 4 4 4 5 5 5 5 5 5 5 5 4 2 2 4 2 2 4 4 4 2 2 4 2 2 2 2 4 4 > 2 > > > > > > > > > > > 4 4 4 4 ",
"2 2 2 2 2 2 2 2 2 2 2 4 4 2 2 2 2 2 2 2 2 2 2 2 2 2 2 2 2 4 5 5 8 8 v v v b v v v 7 8 7 5 4 4 4 4 4 2 4 2 2 2 2 2 2 4 1 > > > > > > 4 > > : 4 4 4 4 4 4 4 ",
"2 2 2 4 2 4 2 2 2 2 2 2 2 2 2 2 4 2 2 2 2 2 2 2 4 4 2 4 5 v v b b m m m m m M m M b v v v 8 5 5 4 4 2 2 4 2 2 4 4 2 2 1 1 > 1 1 > > > > > 4 4 > 4 4 > 4 4 ",
"2 2 2 2 2 2 4 2 2 4 1 2 2 2 2 2 2 2 2 2 2 2 4 4 4 5 5 v v b m m M B B B S A B S B B M M M b v v 5 4 4 2 2 2 2 2 2 2 4 2 4 2 1 4 4 > 4 4 > 4 4 4 > 4 4 4 4 ",
"2 2 2 2 2 2 2 4 1 4 4 4 4 1 4 4 1 4 1 4 4 4 1 4 5 v v m M B A S F F G G F P P P G F A A A M M b v 8 7 5 2 2 2 2 2 2 2 2 2 2 2 2 4 4 4 4 > 4 4 4 4 4 4 4 > ",
"2 2 2 2 2 2 2 2 4 4 4 1 1 1 1 4 4 4 4 4 4 4 5 8 b m M M S S F G Y P _ Y ` _ _ _ _ P Q G G F A B M m v 8 5 2 2 2 2 2 2 2 2 2 2 2 4 > 4 > > 4 4 4 4 > 4 4 4 ",
"1 2 2 2 2 1 2 2 1 4 1 4 1 1 1 4 4 4 4 4 4 5 8 b m M S S G Y Y ` ` ] ] { } { } { { ] ' ' _ ! G F A B m v 8 7 2 2 2 2 2 2 2 2 2 2 4 4 4 4 4 4 4 4 4 4 4 4 4 ",
"2 4 2 1 2 2 2 2 4 4 4 1 4 4 4 4 4 1 1 4 5 v b m B S F G _ ` ' { o.o.e.w.k.r.r.w.0.9.o.X.] ` _ _ P F B M b 8 5 2 2 2 2 2 2 2 5 2 4 4 4 > 4 4 4 > 4 4 4 > 4 ",
"2 2 4 1 1 1 4 2 4 4 1 4 4 4 4 4 2 4 4 4 v b m A F G Y ` ' { o.0.r.n.n.N.Z.A.N.N.n.n.x.k.9.X.} ] P P F A B b v 7 2 2 2 1 2 2 2 2 4 4 4 4 > 4 4 > 4 4 4 > 4 ",
"2 4 4 1 1 4 2 4 4 1 4 4 4 4 1 4 2 4 5 8 b m A S G _ ' { o.l.v.N.J.K.R.W./.!.!.Q.!.L.S.N.M.k.0.X.{ ` P F A n b 8 5 2 2 2 2 2 2 2 4 4 4 4 4 4 4 4 4 > 4 4 4 ",
"2 2 2 2 1 2 1 4 4 4 1 4 1 4 4 4 4 4 c b m S S Y _ ' { e.l.V.K.R./.{.{.|.|.}.}.}.{.[.(.!.S.A.c.k.7.} ` ! G D n b 8 5 2 2 2 1 2 1 4 > 4 4 4 4 4 4 4 > 4 4 4 ",
"4 2 4 4 4 4 2 4 4 4 4 4 4 4 1 4 4 5 v m B S G _ ' o.r.v.A.T.)._..XXX#X#X%X$X-X#X*X@X@X{.[.~.T.M.x.9.X.` P F A n v 7 2 1 1 1 1 1 4 > > > > : > 4 4 4 4 4 4 ",
"2 2 2 2 2 2 2 2 2 2 2 2 1 4 4 4 5 v b M S G Y ' o.r.b.K.R._..X_._._.'.OX+X#X%X%X%X-X-X$X@X}.).T.A.x.9.} ` ! D B n 8 7 1 1 1 1 1 > > > > > > 4 4 4 4 4 4 4 ",
"1 4 2 4 2 4 4 2 2 4 4 2 4 2 4 4 v b m S G Y ' o.e.b.K.^.|.@XT.O.E E (  .p.a.a.s.B.B.B.Y.Y.Y.A.S.W.A.x.9.} ! P A n v 7 1 1 1 2 1 4 > > > 4 > > > > 4 4 > > ",
"2 2 2 2 2 2 2 2 2 2 2 2 4 4 4 5 v m B F Y ` { e.m.K./.|.#X-X| < $ $ 0 i e y a c y 6 y d d R R B.).W.Z.x.7.] ! F B b 7 3 > > > > > > > > > > 4 > 4 4 4 4 4 ",
"2 2 4 2 2 2 4 2 2 4 2 2 4 4 5 5 b m S G Y ' 8.r.J.Q.{.#X-X:XO.m < 0 q p w K 3.3.J I g i i i r a.}.).W.M.k.X./ P D n 8 2 > > > > > > > 4 4 4 4 4 4 4 4 4 4 ",
"4 2 2 4 2 2 2 4 2 4 2 2 2 4 5 v b B F Y ` { e.N.I.{.XX-X4X4XO.V , $ q p a 4.i.u.4.i.N a p i r a.@X}.).S.c.9.] ! D B v 5 2 > 1 > > 4 > 4 4 4 4 4 > 4 4 4 4 ",
"2 2 2 2 4 2 2 2 2 2 2 4 2 2 5 v m S G Y { 8.v.J./..X*X:X3X6Xa.8 , $ q i a 3.u.u.3.u.N s s p r s.&X#X}.W.A.t./ ^ L N n 7 2 > > 1 > > > > : > > > > 4 4 > 4 ",
"2 2 2 2 2 4 4 2 2 4 2 2 2 4 7 b M S G ` { e.J.P.{.#X:X4X6XqXs.Z < # i p s J 3.T K I B p p p r d.1X%X@X).S.c.7./ L D n v 7 1 1 > > > > > > > > > > > : > 4 ",
"4 2 2 4 1 4 4 4 4 2 2 2 2 4 v b B F W ` o.r.G.^.XX-X>X4X8XqXD.Q e 9 r ~ ;.=.@.@.k -.,.,.x l u d.5X;X#X[.W.M.t./ ! D n 8 7 1 > 1 > > 4 > > > > > 4 > > > > ",
"2 2 2 2 2 2 2 2 1 2 2 2 2 5 v b S F Y { o.b.K._.#X-X4X6X0XwXD.( w 0 W 5.>.>.#.+.j %.1.2.j.x d d.5X5X$X}.~.S.x.O.^ Q D n v 5 3 1 > > > > > > > > > > > 1 > ",
"2 2 2 2 2 2 1 1 1 2 2 2 2 7 v m S G Y { e.m.R.{.$X:X6X6XqXwXD.| t # W 5.>.>.>.j 6 j %.2.j.x d f.7X5X;X@X[.S.c.6./ P D n v 2 2 1 4 > > > 1 > > > 1 > > > : ",
"2 2 2 2 1 2 1 1 1 2 2 2 2 7 b M S F _ { e.J.P..X-X>X6X8XwXwXF.| w 0 W 5.>.>.l ,XeX<X7.%.j.x C d.7X7X;X@X}.S.M.X.] ! D n 8 2 > 1 > > > > 4 > > > > > 4 > : ",
"2 2 2 2 2 2 2 2 2 2 2 2 2 7 v M S G ` { e.N.^..X-X>X6X8XwXeXF. .w 0 W 5.>.k 8XP.y.C. X5.*.) C f.9X7X2X#X}.S.Z.6./ ! F n 8 2 1 > 1 1 4 > 4 > 4 4 4 4 > 4 > ",
"2 2 2 2 2 2 2 2 2 2 2 2 1 7 b B S Y _ ..e.J.Q..X-X4X6X8XwXeXF.( e #  .<.1.P  X8X<X<XP.].;.~ f f.9X9X2X#X[.W.Z.k./ ! F n 8 4 1 2 > 4 4 4 4 4 > 4 4 4 4 4 1 ",
"2 2 2 4 2 4 2 2 2 2 2 2 2 7 v M S G ` { e.J.^..X-X>X4XqXwXwXF.| w # ..z #.`.y.=X6 8.<X].k ^ Z f.9X9X2X#X}.W.Z.9.} ! L n v 5 1 2 4 4 4 4 4 4 4 4 4 4 1 4 4 ",
"2 2 2 2 2 2 2 2 4 2 2 2 2 7 b B S H Y o.e.J.Q..X-X>X6XqXwXeXF.Q w $ ..k k '.y.oX8 r.oX^.~ ^ R g.9X9X1X#X[.~.M.9./ ! F B v 7 4 4 > 4 4 4 4 4 4 4 1 4 1 4 4 ",
"2 2 4 2 2 2 4 2 2 2 2 2 2 7 8 m S Y Y { e.m.Q.|.*X>X4X6XqXwXH.E w # ' =.#.o.].oX`. X^.N.;.~ f g.9X5X>X@X[.S.M.9./ ! D N b 7 2 2 4 4 4 4 4 > 4 4 4 4 4 4 4 ",
"4 2 2 2 2 2 2 2 2 2 2 2 2 5 8 n B G Y { o.b.P.{.#X:X4X8XqXwXH.5 , $ W -.$.k oXoX<X,X`.5.<.~ f g.7X5X-X@X[.S.x.7./ ! D n v 7 2 2 > 4 4 4 4 4 > 4 > 4 1 4 4 ",
"2 2 2 2 2 2 2 2 2 2 2 2 2 2 7 b S F Y ' o.D.K.^.XX=X4X6XqXwXD.; @ # W -.$.#.6.P.P.G.6.:.<.E f d.5X2X$X}.~.S.w.} ! P D n v 2 2 2 4 4 4 4 4 > 4 4 4 4 > 4 > ",
"2 2 2 2 2 2 2 1 2 2 2 2 > 4 7 n B S G _ o.r.N./..X*X:X4X6XqXF.7 , $ W -.$.&.#.,.) ,.*.2.h.) f d.5X;X@X}.S.Z.q.} ! G A n v 2 2 2 4 4 > 4 4 4 > 4 4 > > 1 > ",
"2 2 2 2 2 2 1 1 > > > > : 8 n b m S G _ { 8.b.K._.XX:X4X4X8XF.H < $ W -.$.&.1.&.j 2.j.j.h.x u d.1X$X}.].S.c.7./ ! D n b 7 2 2 2 4 4 4 4 4 4 4 4 > 4 > > > ",
"2 1 1 2 2 2 > > > > > - - 1 4 v m B F Y ` o.r.G.Q..X$X:X4X6XD.V , # Z -.&.*.,.x ) l l h h u e d.$X@X[.W.Z.w.7./ L D n v 7 2 2 2 > 4 4 4 4 4 4 > > > > > > ",
"> > > 1 1 > 1 > 1 > > : - : 4 5 m B S F _ { e.r.I.^..X$X:X>XB.c , $ r g g c u e t B U H q 0 e a.@X}.~.S.x.7./ P F B n 7 2 2 2 2 4 4 4 4 > 4 4 > 4 > 4 > > ",
"> 1 > > > > > 1 1 > > > : > 4 4 a B S F U ' o.e.m.I.(.@X$X:Xz.y # $ 0 y m m y r e r e r e R p.S.}.).T.M.9.} / L D n b 7 2 2 2 2 4 4 > 4 4 4 4 4 4 > 4 > > ",
"1 > > 1 > > 1 > > > > 1 > > 4 4 8 b B S Y Y ' o.r.N.R.(.@X*XG.y @ $ 0 e 0 u R p.U.E.OX&X;X%X@X}.).S.A.q.7./ P F B n 8 2 3 2 2 2 4 4 4 4 4 4 4 4 4 4 4 4 4 ",
"> > 1 > > 1 > 1 > > > 1 > > > 2 5 8 m B S Y ` { o.b.G.I.(.XX#X#XE.Y.E.OX&X3X6X6X3X4X:X-X*X#X}.~.S.Z.k.X./ ! P B n b 7 2 2 2 2 2 4 4 > 4 4 4 4 4 4 4 > 4 4 ",
"> 1 > > 1 > 1 > > 1 1 > 1 > > 2 4 7 b m S F Y ` { o.r.m.I./._.XX#X%X-X-X:X:X:X-X-X$X$X#X}.[.!.K.Z.w.X./ P L A B b 8 5 2 2 2 2 2 4 4 4 4 4 4 4 > 4 4 4 4 4 ",
"> 1 > > > 1 1 > 1 > 1 1 > 1 2 2 2 5 8 b M S F Y ` { o.r.m.J.R.(.{.|.XX@X#X#X#X#X#X@X|.[.~.W.A.M.w.X./ ! P A B n 8 7 2 2 2 2 2 2 4 4 4 4 > 4 4 4 4 4 4 4 4 ",
"2 1 1 > > 1 > 1 > > > 1 2 1 2 2 2 2 7 8 m B S F Y _ { o.e.l.m.J.I.Q.).).{._.{.).).!.!.L.J.M.l.9.X.] ! G A B n 8 7 2 2 2 2 2 2 2 4 > 4 4 4 4 4 4 4 > 4 4 > ",
"2 1 1 > > > > > > > > 1 2 2 2 2 2 4 5 7 b b A S F Y Y ' { 8.e.l.v.N.J.K.I.T.I.L.K.A.V.n.k.0.7.} ] ! P S B B b 7 7 2 2 2 2 2 2 2 4 4 > 4 4 4 4 4 4 4 4 4 4 ",
"2 2 1 > 1 > > > > > 2 4 2 2 2 2 2 2 2 5 5 v m M S H Y W ` ' { o.e.e.r.v.v.v.v.v.l.k.r.9.o.} ] _ P F A B n 8 7 2 2 2 2 2 2 2 2 2 4 4 4 4 4 4 4 > 4 4 4 > 4 ",
"2 4 2 2 2 1 1 1 1 2 2 1 2 2 2 2 2 2 2 2 5 a v m M S S F Y _ ` ' [ { o.o.o.9.9.8.o.X.{ { ` ! P G F A B b b 7 5 2 2 2 2 2 2 5 2 2 4 4 4 4 > 4 4 4 > 4 4 4 4 ",
"2 2 2 2 2 2 2 2 2 2 2 2 2 2 2 2 2 2 2 2 5 5 5 v b m M S V G G Y _ _ ` ` ' ' ' ` ' ` ! P P G G A B M b c 7 5 2 2 2 2 2 2 2 2 2 2 4 > 4 4 4 4 4 4 4 4 4 4 4 ",
"2 2 4 1 2 2 4 1 4 2 2 2 2 2 2 2 2 2 2 2 2 2 2 5 8 b b m B S S H G P P _ G _ _ P P P G F F A A M n 8 8 7 2 2 2 2 2 2 2 2 2 2 2 2 4 4 > 4 4 4 4 4 4 1 4 4 4 ",
"2 4 4 4 2 2 2 2 4 1 2 2 2 2 2 4 2 2 4 2 2 2 2 2 5 a v b b M M B S B S F F S F S D D A B M M b b 8 7 7 2 2 2 5 2 2 2 2 2 2 2 2 2 4 4 4 4 4 4 4 > 4 4 4 4 1 ",
"2 4 2 2 2 2 2 2 4 2 2 2 2 2 2 2 2 2 2 2 2 2 2 2 2 1 2 4 4 5 3 y 5 5 5 3 5 3 5 2 3 5 2 3 2 3 1 > > : > > 1 1 1 1 2 2 2 2 2 2 2 2 4 4 4 4 > 4 4 4 4 4 4 1 4 ",
"4 1 2 2 4 2 2 4 4 2 4 2 2 2 4 2 2 2 2 2 2 1 1 : : ; = * * * * * * * * & * & * * * & & & & & % % & & & = = ; : > > 1 1 3 2 2 2 2 4 > 4 4 4 4 4 4 1 4 4 4 4 ",
"2 2 1 4 2 4 2 2 2 2 2 2 4 2 2 4 2 2 1 1 : : = * & % + + O X X X X X . . X X X X o o . . X X o o o + + + & & * ; = : : > 1 1 2 2 4 4 > 4 4 > 4 4 4 4 4 1 4 ",
"2 2 4 4 2 2 2 2 2 2 4 2 2 2 4 1 1 1 ; ; * * & % + + o o X X                                 X X o o o + + + + + & * = : > > 1 1 4 4 4 4 4 4 4 4 4 4 4 4 4 ",
"1 1 2 2 4 2 2 4 4 2 4 2 4 4 2 > : ; ; * * % & + + + + o X .                 X       .   . X X o o o + O + + + + & & * * ; : 1 2 1 4 4 > 4 4 4 1 4 4 4 4 4 ",
"> 1 2 1 2 2 2 2 2 2 2 2 2 4 1 1 : ; * * & & + + + + o o X X X X   X     X   X X . . o X o o o O O + + + + + & + & & * * ; : 1 2 4 4 4 4 4 4 4 4 4 4 > 4 4 ",
"2 4 4 2 4 4 2 2 1 4 4 4 1 4 4 > > : - - * & & & + + + O O O O O o o X o o o O O o O O + + + + + + % % % & & * * * * - - ; : > 4 4 4 4 4 4 4 4 4 4 4 4 4 4 ",
"1 4 1 2 2 2 2 2 4 4 4 4 4 4 4 4 > > ; ; ; ; ; - - - * & & + + + + + + + + + + + + + + + % % & & % * * * = : = : ; : : : > : > 4 4 4 4 4 1 4 1 4 4 4 1 4 4 ",
"4 4 4 4 4 1 1 4 4 4 4 4 4 4 > 1 1 > > > > : : ; ; ; ; ; ; ; ; - = = = = : = = = = = ; = ; ; - : ; : : > > 1 1 > > > > 1 1 1 4 4 4 4 4 1 4 1 4 4 4 1 4 4 4 ",
"2 1 1 4 4 4 4 4 4 1 4 4 1 4 1 > > > 1 > > > > > 1 1 4 1 1 4 1 > > 1 1 1 1 > 1 > > > 1 1 1 1 1 3 1 1 3 1 3 1 1 1 1 > 1 > 1 4 4 4 1 4 4 4 4 4 4 4 4 4 4 4 1 ",
"4 > v 4 4 2 2 2 4 4 4 4 4 4 4 > 1 1 > 1 1 1 > 4 4 > 4 4 4 4 4 4 2 2 2 2 2 2 2 2 2 2 2 2 2 2 2 2 2 5 2 2 2 1 > > > > > > > 2 2 2 4 4 1 4 4 4 4 1 4 > 4 4 4 ",
"> 4 S 5 2 4 2 4 4 1 4 1 4 4 4 1 1 4 1 4 4 4 4 4 4 4 4 4 4 4 1 4 2 2 2 2 2 2 2 2 2 2 2 2 5 2 2 2 2 2 2 2 2 1 > 1 1 > 1 1 1 1 2 4 4 4 4 4 1 4 4 1 4 4 > 1 > ",
"; 1 8 4 1 2 2 2 4 4 1 4 1 4 4 4 4 4 4 1 4 4 4 4 4 4 4 1 4 1 4 4 2 2 2 2 2 2 2 2 2 2 2 2 2 2 2 2 2 2 2 2 2 2 2 1 > 1 1 1 4 4 2 1 1 4 4 4 4 1 > > 1 > 1 > > ",
"- ; > 2 4 2 4 2 4 4 4 4 4 4 4 1 4 4 4 4 4 4 1 4 4 1 4 4 4 4 4 4 5 2 2 2 2 2 2 2 2 2 2 2 2 2 2 2 2 2 2 2 2 2 2 2 4 4 5 2 4 4 2 4 4 4 4 4 1 1 > > > 1 > 1 > ",
"4 1 4 4 4 4 4 4 4 4 1 4 1 4 4 4 4 4 4 4 4 4 4 4 4 4 4 1 4 4 4 1 2 2 2 5 2 2 2 2 4 4 4 4 4 4 4 1 2 2 2 2 2 2 2 2 2 2 2 2 4 4 2 1 4 4 4 4 1 1 1 > > > > 1 1 ",
"4 4 4 4 4 1 4 1 4 4 4 4 4 4 4 4 4 4 1 4 4 1 4 4 4 4 4 4 4 4 4 4 2 2 2 2 2 2 2 2 4 4 1 4 1 4 4 4 2 2 2 2 2 2 2 2 2 2 2 2 1 1 2 2 4 1 4 4 4 4 4 4 4 4 4 4 4 ",
"1 4 1 4 4 4 1 4 4 4 4 4 4 4 4 4 > > 4 4 4 4 1 4 1 4 4 4 4 4 4 4 2 2 2 2 2 2 2 2 1 4 4 4 4 4 4 4 2 2 5 2 2 2 2 2 2 2 1 2 7 5 2 2 1 4 1 4 4 1 4 4 4 > : > : ",
"4 4 4 4 4 4 4 4 4 4 4 1 4 4 > 4 1 7 8 > 4 1 4 4 4 4 4 1 4 4 1 4 1 2 2 2 2 2 2 2 1 4 1 4 4 4 4 4 2 2 2 2 2 2 2 2 2 2 > 2 8 7 2 2 4 4 4 4 4 1 4 1 > > 4 > : ",
"4 4 4 4 1 4 4 4 1 4 4 4 4 4 > 4 4 8 v > 1 4 4 4 4 4 4 4 4 1 4 4 1 4 1 1 4 > 4 1 4 4 4 4 4 4 4 4 2 2 2 2 2 2 5 2 2 2 = * : > 4 2 4 4 4 4 1 4 4 4 4 1 4 4 4 "
};
