/* XPM */
static char *_95f3c3816e248e1d7d74fe40bff8924cNeUy1drokiwYxnL[] = {
/* columns rows colors chars-per-pixel */
"77 77 230 2 ",
"   c #080A07",
".  c #0A140B",
"X  c #16161A",
"o  c #1E1C1B",
"O  c #211E1E",
"+  c #0C2D11",
"@  c #132C13",
"#  c #143315",
"$  c #183A18",
"%  c #39370E",
"&  c #262717",
"*  c #2A2C16",
"=  c #26291A",
"-  c #2B2B1B",
";  c #342C19",
":  c #26331A",
">  c #2E331B",
",  c #36351D",
"<  c #1B1A21",
"1  c #201F25",
"2  c #282726",
"3  c #322E2A",
"4  c #283524",
"5  c #353824",
"6  c #36322D",
"7  c #38332F",
"8  c #2A2934",
"9  c #343434",
"0  c #3A3531",
"q  c #3F3A36",
"w  c #3F3A38",
"e  c #4F3408",
"r  c #49390C",
"t  c #653D09",
"y  c #46392C",
"u  c #403B37",
"i  c #423D3B",
"p  c #1A441B",
"a  c #1A4A1C",
"s  c #1E531E",
"d  c #30511C",
"f  c #1E5221",
"g  c #1B5925",
"h  c #294726",
"j  c #394628",
"k  c #225522",
"l  c #235A25",
"z  c #384735",
"x  c #325530",
"c  c #375A37",
"v  c #1B6224",
"b  c #28692A",
"n  c #26732D",
"m  c #2A752E",
"M  c #356635",
"N  c #2C7831",
"B  c #357838",
"V  c #544C13",
"C  c #64440C",
"Z  c #794A0A",
"A  c #6E5314",
"S  c #716A1C",
"D  c #76731F",
"F  c #44442C",
"G  c #45403F",
"H  c #474C3B",
"J  c #4E5334",
"K  c #495637",
"L  c #695034",
"P  c #50653B",
"I  c #41773A",
"U  c #73703C",
"Y  c #383746",
"T  c #3B3A4A",
"R  c #3F3F50",
"E  c #433F43",
"W  c #3A4846",
"Q  c #3C6940",
"!  c #3A7C43",
"~  c #464141",
"^  c #494445",
"/  c #494747",
"(  c #4B4749",
")  c #4E494C",
"_  c #534A41",
"`  c #504B4E",
"'  c #485646",
"]  c #595149",
"[  c #444254",
"{  c #4C4A59",
"}  c #524E53",
"|  c #4D5F53",
" . c #545255",
".. c #595956",
"X. c #565259",
"o. c #59555D",
"O. c #6C5B46",
"+. c #655D58",
"@. c #496548",
"#. c #596849",
"$. c #556858",
"%. c #497650",
"&. c #76674A",
"*. c #6A6C59",
"=. c #514F63",
"-. c #5C5760",
";. c #5E5963",
":. c #565469",
">. c #55546B",
",. c #5A596D",
"<. c #5D5B74",
"1. c #5F5D79",
"2. c #605C67",
"3. c #625E6A",
"4. c #605F77",
"5. c #596766",
"6. c #577665",
"7. c #686A67",
"8. c #65616E",
"9. c #6E766F",
"0. c #676271",
"q. c #6A6575",
"w. c #636579",
"e. c #6B677A",
"r. c #6E697B",
"t. c #716C7E",
"y. c #814B0A",
"u. c #964B07",
"i. c #83510B",
"p. c #A44F0A",
"a. c #A46E14",
"s. c #9A5C28",
"d. c #AC6F33",
"f. c #906655",
"g. c #897355",
"h. c #917151",
"j. c #AC6E49",
"k. c #BC7B52",
"l. c #318836",
"z. c #38963D",
"x. c #3C9440",
"c. c #3CA542",
"v. c #448B4D",
"b. c #798547",
"n. c #41A546",
"m. c #42B549",
"M. c #5D8771",
"N. c #729278",
"B. c #8A8B27",
"V. c #8E8852",
"C. c #AF8C50",
"Z. c #958770",
"A. c #AC9370",
"S. c #BDA270",
"D. c #C68A59",
"F. c #C8965D",
"G. c #D39257",
"H. c #E3A05A",
"J. c #D29863",
"K. c #D1AA6F",
"L. c #E2A96A",
"P. c #E5B16F",
"I. c #E7BC76",
"U. c #EAC57C",
"Y. c #EBC57C",
"T. c #F0C77D",
"R. c #6B6A87",
"E. c #6E6C86",
"W. c #726E81",
"Q. c #706E8B",
"!. c #6D738C",
"~. c #757185",
"^. c #74728C",
"/. c #7A768D",
"(. c #7C788C",
"). c #706F91",
"_. c #737292",
"`. c #797796",
"'. c #7D7992",
"]. c #867A84",
"[. c #807C96",
"{. c #837E99",
"}. c #827EA1",
"|. c #738E8B",
" X c #848596",
".X c #86819D",
"XX c #8B9294",
"oX c #AD9489",
"OX c #B7A283",
"+X c #8784A6",
"@X c #8985A3",
"#X c #8C89A6",
"$X c #8E8AAA",
"%X c #918DAE",
"&X c #938FB1",
"*X c #9391B0",
"=X c #9692B5",
"-X c #9694BB",
";X c #9995BB",
":X c #9C98BF",
">X c #A19ABA",
",X c #9BA6BF",
"<X c #CBAF8C",
"1X c #D6BB97",
"2X c #CCBBA0",
"3X c #F3CB84",
"4X c #F8D38C",
"5X c #E6C498",
"6X c #FCD892",
"7X c #DEC4A0",
"8X c #E5CAA5",
"9X c #EBCCA6",
"0X c #EBCEA9",
"qX c #F0D3AE",
"wX c #FEE3A3",
"eX c #9B97C1",
"rX c #9D9AC2",
"tX c #A19DC5",
"yX c #9DA7C1",
"uX c #A5A1CD",
"iX c #AAA6D4",
"pX c #B2AEDC",
"aX c #AEB3D8",
"sX c #B3ACE1",
"dX c #B9B4E6",
"fX c #BEB9EC",
"gX c #BFBBF0",
"hX c #C0BBEF",
"jX c #C2BDF3",
"kX c #C5C0F5",
/* pixels */
"q q q q q u u q q q q q u q q u u q q q q q q u q q q q q q q q q q u u q u u u 0 u u w u 0 u u u q w u q q u q q q u u u q 0 u q q q q q q 0 q 0 0 u 0 0 ",
"q q q q u q q q u u q q u q q q q q q q q q q q q q u q q q u q q q q u 0 0 q q u u u u u u u 0 u u q q q u q q q q 0 u u q u u u q q q u u u q u u u u q ",
"q u q q q q q q q q q q q q q q q q u q q q q q q q q q q q q q q q q u q 0 q q u u u u u q q u q q q q q q u q u q q q q q q u q q u u 0 u u q q q u u q ",
"q q q q u 0 0 0 u q q u u q q q q q q q q q q q q q q q q u q q u q q 0 u q u q 0 u u 0 u q q q q q u q q q q q q q q q q q q q q q u u u u q q q q w u q ",
"q q q q q q 0 q u q q q q q q q u q q q q q q q u q q q u q q q q u q q q q q q u u u u u u w w q q u q q q q q q q q q q q q q q q q 0 q q u q u q q q u ",
"q q u q q q u u q q q q q q u q w q q q q q q q q q q q q q q u q q q u q q q q 0 w u w u 0 w w q q u u q q q q q u q u u q q q q q q u q q q q q q q q q ",
"q q q q q q q q q u q u q q q q q q q q q q q q q q q u q 0 u q q q q q q q q q y 0 u u u u 9 i u 0 u 0 q u 0 u q q u w u u q u u q q q q q q q q q u q q ",
"u q q q q q q q q q q q q q u u q u O o O o O O o O o o o O O o O o o o o o o O O O X O O X X X o o O o o o O o o o 0 q 0 0 q q q q q q q u q q q q q q q ",
"q q q u q q q u q q q q q q q q q u E.W.R.W.W.R.E.Q.E.E.E.E.E.R.E.E.Q.W.R.w.<.,.,.<.,.,.=.>.>.>.<.>.>.>.,.>.R R E R [ q 0 q q q q q q q q q q q u q q q q ",
"q q q q q q q q q q u q q q 0 q ( e.fXhXgXuX_._._._.=XjXjXfX$X-XhXhXhXgXdX-XR.;XeX`.1.<.R.R.R.R.eXeXR.R.1.1.[ E 1.).1.9 q q q q w u u q q q u q q q q q q ",
"q q q q q u q q q q q q q q q 3 [ jXjXjXpX[.8 8 8 8 w.kXjXfX[ >.sXjXjXjXuXR.< rXeX>.1 1   < 1 [ eXeXY X <   < < >.).).).0 0 0 u u u u u q q q q q q u q q ",
"q u q q q q q q u q q q q q w O [ jXjXjX=.>.uXuXuXuXpXkXkXdX=.< >.dXjXjXR.< < rXeX|.|.`.  R.|.&XeX_.R.R.[ X 1.1.R.).)._.< 3 0 0 0 u u u u q q q q q q q q ",
"q q q q q q q q q q q q q q q O [ kXjXjXT { kXjXjXjXkXjXjXgXrX>.W dXjXsX>.8 ).rXrX|.M.&X  ).|.uXeXeX`._.>.X _.).).).)._.< 6 0 0 0 0 0 0 0 u u u q u q q q ",
"q q q u q q u q q q q u q q u O [ kXjXjXY { kXjXjXjXjXjXkXgXkXeXB 5.uX).=.R.eX,XeXB ! &X  R.! eX+X|.`.).>.X _.).)._.)._.< 3 0 7 7 7 0 7 0 0 u u q q q q u ",
"u q q q q q q q u q q q q q u O [ jXjXfXT Y }.}.{.}.eXkXgXkXgXgXB N 5.=.Q.-X|.-XeX! N |.< E.! &X_._.).).>.X _._._.)._._.< 7 q 0 7 0 7 0 7 0 7 0 q q q q q ",
"q q q q q u q q q q q q q u q O [ jXjXfXY X Y Y Y Y ^.jXgXgXgXfX! c J *.@X:XB *X XM a ! w 6.N %X)._.).).>.X _.).)._.)._.X 6 0 6 0 7 0 7 0 0 0 0 q q u q q ",
"q q q q q u q q q q q q q q u O E jXjXjXT T tXtXtXtXpXjXjXgXsXuX! $ j K #. XI |.6.c @ N H @.N `._._._._.>.< _._.).)._._.< 3 0 9 7 0 7 0 0 0 q u 0 u q q q ",
"q q q u q q q q u q u q q q u O [ kXjXjXY { jXjXjXgXgXgXaX|.sXiX! = 5 , K #.P %.*.z   $ K #.M !._._._._.>.< _._.).).)._.< 9 0 0 0 0 0 0 0 u q q u u u q q ",
"q u q u q q q q q q q q q q q O [ kXjXjXT { jXjXgXgXgXgXaXx.|.$X5.: 5 > * K #.P j K X = j #.I 6._._._._.,.< _._._.).)._.< 0 q w q q u q q u u q q q q q q ",
"0 0 0 0 0 q q u q q u q u q q O [ kXjXjX<.,.eXeXeX;XiXgXfX|.B $.' 4 > > > > K P d K z 3 5 K #.$.`.`.`._.>.2 _._._._.)._.< 0 q q u q u 0 0 u u q u q q q q ",
"0 0 7 0 0 0 0 q 0 u u q u u u 6 { pXjXjXsX+XY Y T R ).gXdX:XI K $.4 3 ; ; - > K j , K > > j #.@._.`.`._.4.8 _.`._._.!.w.9 q q q q q q q q u w u q q q q q ",
"0 0 0 0 0 0 q u q q q q q u 0 u ` =.dXgXfXsXuXtXtXv.|.uXyX=XI , ' j , - 2 ; * > 5 > z * > > K #._.)._.`.^.R._._.).).4.< q q q q q q q u q u q u q q q q q ",
"0 0 q u q q q q u 0 0 q q q 7 u u i >.>.>.,.<.<.<.$.N B I K P d , F > ; 2 ; - - - * - * ; * j #.$...=.{ [ [ T Y Y Y G G q u q q q q q q q q 0 u u q q q u ",
"7 0 0 q q q q q u 0 q q q u u u i i w i E ^ ( ) } } @.J J P P K j : * * - = - - - - * * * * * J K ..-.{  .{ ) ^ ~ i w w G i w q u q q q u q q q q q u q q ",
"0 7 0 0 0 q q q q u q q u u u i i ~ ~ ^ ( ` } X.o.2.5.j j j j K K : * * & = : 2 - ; - ; ; - - j j +.3.2.o.X.X.` ) ( E w i i w i u u u u 0 u u q 0 q u u u ",
"7 7 7 7 0 q q q u q q q u i i i i ~ ^ ( }  .X.o.2.3.q.$.5 - > > 5 > * * & & ; 5 7 F ; , y ; , 5 j 7.e.0.2.2.o.X.} ) ^ ~ i w i q 0 0 7 7 7 0 w u u u u 0 u ",
"q 0 0 u q u q q u q q u i i i i i ^ ) ` X.X.-.3.0.q.t.W.H 4 - * & & & * - F oX2X2X2Xf.oXOXZ.*.j F 7.E.r.q.3.2.o.X.} ) / E ~ i i 0 0 0 7 7 7 0 u u u q u u ",
"q q q u q q q q q q q u i i G ~ ^ ( }  .X.-.3.0.r.W./.(.8.> 2 = & = & * , Z.8X8X0X8X0X0X0X0X1XL F 9.].~.t.q.3.2.o.} ) ( E w w w w 0 7 7 0 0 0 u u w q q u ",
"q q q q q q q q q q u u i i G ~ ( ` } o.;.3.0.t.~./.[..X(.6 : * & & & ; &.2X0X8X7X9X9X9X9X9X0XOXL r.{.].~.t.e.0.;.-.} ) ^ i i w w 0 w w u 0 u u q q q q u ",
"q q q q q u q q q q u i i E ~ ^ ` } o.o.3.q.t.~.(.{.@X%X%X$.> * - & - , A.0X2XK.K.1X9X9X5X<XOX<XO.N.$X{.[.~.t.q.3.;.X.} ( ^ ~ q w 0 0 u u q q u q u u 0 0 ",
"q q q q q q q q u u u i i ~ ^ ` } X.o.3.0.t.~.(.{.@X&X;X=X%.x * = = ; , OX0X8X8X0X0X9X9X9X9X0X8X&.#X=X%X}.[.^.r.0.3.-.} ` ( E w w w w 0 0 7 0 0 0 u u u u ",
"q q q u q q q u q u u E ~ ^ ( ` X.o.2.0.t.W.(.{.#X=X:X#Xq.^ b : & O ; % OX8X8X8X1X0X9XqX9X<X9X1XV.].tX=X$X{.[.^.E.0.,.o.} ) / ~ u w w 0 0 0 7 0 7 7 0 0 u ",
"q q q q q q u q i i i i E ( ` } o.2.3.t.W.(.[.#X=XrX{.;.q q q q b K A.h.1X9X9X5XA.9X9X0X9X1X8X1Xf.9.W.:X=X%X{.[.~.r.0.2.X.} ( E E u u 0 0 7 7 0 7 7 7 0 0 ",
"q q u q q q q q u i i E E ^ ` X.o.2.q.W.(.[.@X*XrX{.-.q q q q u H *.f.A.9X9X9X9X8X9X9X9X0X9X0X1Xf.g.^ t.:X;X$X{.].~.r.3.2.o.} ) E i u u 0 0 0 7 7 0 7 0 0 ",
"q q q q q q w q i i i i i ) } o.;.0.e.W.'.{.%X;X#Xo.q q q q q q u O.g.A.0X0XqX9X9X9X9XqX9X9X9X8Xg.O.u E W.tX=X#X{./.W.q.3.o.} } E i u u u 0 0 0 0 7 0 7 7 ",
"u q q q q u u u i i E E _ ` } -.3.q.W./.{.%X;X:X3.u q q q q q u u u ^ *.Z.1XqX9X0X9X7X2X9X9X0X<X] u u u ) [.:X%X}.[.Q.r.0.-.} ) ( E i i w 0 0 0 0 0 7 6 7 ",
"0 u u q u u u u i i E _ ) } o.2.3.t.W.[.@X&X:XW.E u u u q q q q q w z h l P S.7X9X9X1XJ.9X1XA.] u u 0 u u 2.%X;X%X{./.W.0.2.X.} ) ( E i i u u u u u u 0 u ",
"u u q q y u u u i i E ( ` } o.2.q.W.(. X%X;X#XX.u u q u q u q q q B f n b l V f.<X1X5X1XA.L 7 q u u u u 0 u t.tX&X{.[.~.e.3.o.X.} _ ^ i i i u u w u u u u ",
"q q q q u u u i i ^ ^ ( ` o.2.3.W.W.'.@X=XrXt.q u q q q q q q u c.m.l.b m l v d s.j.s.t p h q q u u u u u u X.$X;X$X{./.W.0.2.o.} ` ( E i i u u 0 u u u w ",
"q q q u u u u i i i i ` ` X.2.0.t.^.[.@X=X&Xo.q q q q q q q q n.m.c.n v b m b l A r C $ @ p : q u u 0 u u u u ^.:X%X}./.W.q.3.o.X.` ( E i i u u u u u 0 u ",
"q q q q q q u u i ^ ^ ` } o.2.q.t.W.{.%X:X[.i u q q q q q q n.m.c.I F.F.V.l.n m a.C S n k # @ q q q q u u u u 3.tX&X}.[.~.e.3.2.X.` ^ i i i u u 0 u u u u ",
"0 u u q q q u u i ^ ^ ` X.o.3.q.W.'.@X&XeXt.u u q q q u u z m.c.B J.6X6XL.V.n n a.C D n k p # q u q q u u u u } $X=X$X[./.r.3.-.o.` ) ^ ^ i i u u 0 0 0 0 ",
"u u w q q u i i i E E } } o.2.q.~.(.#X=X:X2.u 0 q q q q u B m.N I U.3XwX3XL.b.n a.C D b k p 5 u u u u u u u u i [.>X$X{.].t.q.2.o.} ( ^ i i i u u 7 0 7 7 ",
"u u q q q u u i i E ( ` ` o.3.q.W.'.$X&X&XX.u u u q q q u @.b f B.U.U.4XwXU.b.n a.C D n k p 0 u U f.g.u u 0 0 u ~.:X%X{./.t.0.2.o.} ` ^ ^ i i u 7 7 7 7 0 ",
"u u u 0 0 0 w w i E E ` } o.3.q.W./.#X=X$X` u 0 q q q q c c.m p A H.Y.Y.Y.P.U b a.C D m s p 6 h.j.F.D.w u u 0 u t.:X&X{./.W.q.2.o.} ) E E i u 7 q 7 7 0 7 ",
"w u u 0 0 0 0 0 u i E } } o.3.e.Q.'.#X;X@X) u u q q q q K z.B.V $ r G.Y.G.d.s.k i.C S d Z : h.k.G.D.L.&.u u u u e.tX&X@X/.W.q.3.o. .` ^ i E i u q 7 0 0 0 ",
"w u q 6 7 0 0 u u i E [ } o.3.e.W.[.#X=X@X` u u w q u u M c.c.B.% + d C.j.p.e s Z r V d Z + a.D.j.J.P.D.u u 0 u e.>X&X{./.W.q.2.o. .` ^ E i u u q u u u 0 ",
"u 0 q 3 0 0 0 w i u E ( } o.3.e.W.[.$X&X#X` 0 u w w w z x.c.z.N A C p s y.e p s Z r V v # V r G.j.D.k.J.u u u u t.tX&X}./.W.q.2.o.} ` ^ G G u u q u u u u ",
"0 6 0 7 0 0 0 w w w E ) } o.2.q.W.[.}.=X=Xo.u 0 u u q q l.N N m d l k s f s f f Z e V s + V r d.G.k.P.O.7 0 u u W.eX%X{.].E.0.2.o.} ( ^ i i i u u u u u u ",
"0 0 0 7 0 0 0 w w u E ( } X.2.0.W./.@X&X:X3.u y u u q q q M b k j Z i.Z i.i.i.Z p.% p.Z Z + u.e j.L O.u 7 7 u E [.;X$X{./.E.3.2.o.} ( ( E i i u u u u u u ",
"u 0 u 0 0 0 0 u w w E ( } } 2.0.t./.{.%XtXt.u u q q q q q q q q u X         X 8 2 2 2     $ y.u.y u u u u u u } }.;X}.[.].t.3.2.X.] ( ^ G i i u u u u u u ",
"u u q u w u i u w w E E } X.-.4.t.[.{.%X;X[.E u q q u q q q q q y h   .     N.~ 9 6  X.   w q q u u u u u u u 8.tX;X$X[.E.r.3.-.X.` ( E i i i i 0 u u 0 0 ",
"u u q q q q u i i i i ^ ) } ;.4.r./.[.@X=X&X-.u q q q q q u q q q M + @ . + N.o.( ) XXp . q q w u u u u u 0 i ].tX%X{./.W.q.3.o. .` ( ^ i u u u u u u 0 u ",
"q u q q u 0 u u i i E ( ) } -.2.e.~.[.{.&XtXW.u u q q u u 0 q u z m z.c.z.m c #.@.@.@.s $ 0 q q u u u 0 u u -.%X=X$X{./.t.0.2.o.} ` ^ i E u u u u u u u u ",
"q q q q u q q u i i ^ ^ ) } o.2.q.W.].{.$X;X$Xo.0 u u u u q q q z z.m.c.c.m m b m N m n p : q q u 0 u u u u Q.eX%X}.`.W.e.0.o.o.} ( ^ E i i u u 0 u u u u ",
"q q u q u u q u i E i E ) } X.2.3.r.Q.[.}.&XtX/.E u u u u u q q z l.m.N m l N l m m m n g : q y y u u u u >.&X;X%X{.].W.q.3.o.} ` ( G i i i u 0 u u 0 u u ",
"u q u u u u 0 u i i i ( ` `  .o.3.q.W./.{.$X=X;Xq.u 0 q u q u u x N N N N N # p m b s $ $ : u u u u u u } [.>X&X}.[.~.r.3.2.} ` } ^ i G i i u u q q q q q ",
"0 q q u 0 u u u i i i E _ ` } o.2.3.r.~.[.{.%X>X$X2.u q q u u u j l $ $ a l # # a p p $ $ $ 0 u 0 u u _ /.tX;X}.[.].W.q.3.2.o.` ( ^ i i i i u u q q q q q ",
"u u u u u u u u u i i E E ( } } o.3.q.W./.[.@X%X:X@X;.u q 0 q 0 J b.b.b.P # 4 4 # s S.I.L.C.G u u u E ~.tX=X$X{./.~.e.0.2.o.} ` ( i i i u u u u u q q u q ",
"u u 0 u u u u u u i i i E ( ` } X.2.3.q.t./.[.#X*X;X@X3.u u 0 0 O.3X4X3XU.j 4 0 + S.U.4X4XT.O.u u ) ~.tX=X$X{.[.^.e.3.2.o.X.` ( ^ i i i u u u u q q q q q ",
"q w q u u u 7 0 u u i i u ^ ( `  .o.3.0.t.W.(.{.#X&XrX%Xq.( q u L Y.6X6XU.L.u u 4 P.3X4X6X4XY.u ;.[.tX&X$X{.[.~.r.0.2.o.} } ( E E i i i u q q q q q u q u ",
"q q u 0 u 0 7 0 u u i i i ( ^ ` }  .o.3.0.e.W./.[.@X%X;XtX(.;.i 0 S.6X6XT.F.0 y u &.I.3X6X6XI.t.$XtX&X$X{.[.~.t.q.2.o.} ) ( _ E i E i i q q q u q q q q q ",
"q q u u u u u u u y i i i i i ) ` } X.o.3.0.e.W./.[..X%X=X:X=X[.8.S.6X6X4X7 q q w q C.Y.3X6X3XtX>X=X}.}.[.~.E.q.3.-.} } ` ^ E E i i u q q q q q q q q q q ",
"q q q u u u 0 u u u u i i i i ^ ( `  .X.o.3.3.e.W.~.'.{.@X%X=X:XtX<X3X6XU.8.2.;.3.E.].Y.Y.3XI.&X$X}.{.[.^.W.q.0.;.X.} } E E i i i i u q q u q q q u q q u ",
"u q u u u q 0 u u u u u u i i E ~ ( ` } } o.2.3.e.W.^./.[.{.#Xr.$X<X3X3XI.>XeX:XtXtX>XH.P.L.P.oX}.}.].E.r.q.3.3.o.} ) ( E E E i i i q q q q q q u u q q q ",
"0 0 0 u u u u 7 0 q u u u u i E ~ ^ ( ( } } X.-.3.0.r.W././.r.I oXJ.I.I.J.=X=X&X&X&X%XoXH.L.j.g.[.'.~.t.q.3.;.X.} ) ( E i i i i i u y u q q q q u u q q q ",
"7 0 0 q u 0 u u +.u q q u u i i i ~ ^ ( ` }  .o.2.3.0.r.t.E.# C.J.J.k.k.].+X@X@X.X+X!.*.k.j.L 4.E.t.q.3.3.o.X.) ( ^ E i u i i u u u u u w u q 0 q 0 0 q u ",
"7 7 7 0 q 0 3 u ` 0 q q u u i i i i ~ ^ ( ` } X.o.-.2.3.q.5.p s D.j.L 5.].`.'.(.'.(.@.N l f # ^ q.8.3.;.o.o.} ) ( E i i i i i i u u u u q 0 0 0 7 0 0 7 0 ",
"7 7 7 7 7 0 2 3 6 u q q q u u u i i i ~ ^ ( ` }  .X.o.;.;.6.m.p # # h e.~.~.~.W.~.W.;.# $ + # ;.3.;.-.o.X.} } ( ^ ^ i ^ i i u q q q q q 0 9 7 0 7 0 0 7 6 ",
"0 0 u 0 u u u u q q u q q q q u i i i i i ^ ^ ( } }  .X.| z.N 6.;.c 5.q.q.q.e.e.q.q.8.m b XX$ ;.-.o. .} } ) ( ~ ~ E i i i u q q q q u q 0 q 0 0 0 7 0 q 0 ",
"u u u u u u u u q q q q q q u q i i i i i ~ ^ ^ ^ ) )  .P l.l 7.| ' ;.;.3.3.3.3.3.2.@.m $.9./ o.} } } ` ) _ E i ~ i i u w 0 u q q u q u q q u q u u q q 0 ",
"u u 0 u u 0 u u q u q u q q q q u u u i i i u i ~ ^ / ^ b x 7.$.c o.o.o.o.o.o.-.o.o.Q b ' XX9.+.~ ^ ) ( E ^ i E i i u q i i u w q q q q q q u 0 0 7 6 7 0 ",
"u u u 0 u q q u q u q q u u u q q q u u i 0 ..u i ~ ~ z k 7...' } } } } }  . .X.X.} M a s M.$.h @ $ ~ ~ i ~ i i i u u 3 ^ _ u 0 q q q q q q q 0 0 q 0 0 0 ",
"u u u u u u u q q q q q u u q q u q w u u u ..7 i i G z $ f s + z ) ` ) ` ) / ) ` ` z p a l $ # # @ i i i i i i u u 0 - 2 2 y w q q q u q q q q u u u u u ",
"u u u u 0 0 0 u q q q u u u u u 0 u u 0 2 ; 3 i i i i 4 f a # # : ^ ^ ^ ^ i ) +.i ^ ` | ] |  . .|  .E i u u u u u u u 0 7 u u u u q q q u q q q q q u u q ",
"u u u 0 u 0 0 u 0 q u q u 0 0 0 7 7 7 7 7 6 q 0 i i i i 4 z z h 0 G G G w 9 9 9 ~ i ~ G G H ^ E i G i i u u u u u u u u u u 0 u q q q q q q q q q q q q q ",
"^ ] ]  .] _ 3 7 6 u u u q 0 0 0 7 7 0 7 7 7 7 7 q u u u i  .` ) ^ i G G G i i G G G i i i i i i i w u u u u u u 0 u u u u u 0 u q q q q q q q u q q u q u "
};
