/* XPM */
static char *result[] = {
/* columns rows colors chars-per-pixel */
"77 77 231 2 ",
"   c #0A0A0C",
".  c #16171C",
"X  c #1E1C1B",
"o  c #211E1E",
"O  c #1A1A21",
"+  c #13172C",
"@  c #181D32",
"#  c #1E2022",
"$  c #1D2237",
"%  c #212022",
"&  c #262528",
"*  c #332E2B",
"=  c #35322E",
"-  c #38332F",
";  c #282938",
":  c #2D3130",
">  c #3A3531",
",  c #3F3A36",
"<  c #373738",
"1  c #403B37",
"2  c #423D3A",
"3  c #3E4136",
"4  c #3E413A",
"5  c #44423C",
"6  c #47463E",
"7  c #46493D",
"8  c #252C44",
"9  c #293249",
"0  c #2A334A",
"q  c #363846",
"w  c #3B3B4B",
"e  c #2F3951",
"r  c #353D54",
"t  c #403F4E",
"y  c #3B4149",
"u  c #3A445A",
"i  c #3C4861",
"p  c #464241",
"a  c #4A4543",
"s  c #4D4945",
"d  c #454748",
"f  c #4E4B49",
"g  c #5B4C46",
"h  c #524D4B",
"j  c #4D5145",
"k  c #55514E",
"l  c #58574B",
"z  c #444354",
"x  c #4B4A58",
"c  c #524E52",
"v  c #4E5257",
"b  c #565251",
"n  c #5A5554",
"m  c #5C5956",
"M  c #53565C",
"N  c #5B5659",
"B  c #5E5A5B",
"V  c #65534D",
"C  c #68554E",
"Z  c #6A5A55",
"A  c #6E5B56",
"S  c #615C5D",
"D  c #5D645C",
"F  c #68675A",
"G  c #74625D",
"H  c #495068",
"J  c #4A576B",
"K  c #565568",
"L  c #5A596D",
"P  c #5D5C74",
"I  c #595D78",
"U  c #625E61",
"Y  c #615F77",
"T  c #576371",
"R  c #656164",
"E  c #676569",
"W  c #6A656A",
"Q  c #6D696E",
"!  c #746B67",
"~  c #777767",
"^  c #6D6B72",
"/  c #666579",
"(  c #716D73",
")  c #736F78",
"_  c #6C7377",
"`  c #757176",
"'  c #757279",
"]  c #79767D",
"[  c #78797B",
"{  c #87746E",
"}  c #7D826D",
"|  c #878A78",
" . c #948D7C",
".. c #A38A7F",
"X. c #566E88",
"o. c #6B6B87",
"O. c #6E6C85",
"+. c #716E85",
"@. c #706E8B",
"#. c #6B728D",
"$. c #7D7A83",
"%. c #797886",
"&. c #72718D",
"*. c #706F91",
"=. c #727192",
"-. c #7B7997",
";. c #817D85",
":. c #827E8B",
">. c #817E9A",
",. c #827EA1",
"<. c #7E8391",
"1. c #5089AB",
"2. c #7492A6",
"3. c #878589",
"4. c #85828C",
"5. c #8D8B8A",
"6. c #938D8B",
"7. c #8F938B",
"8. c #969889",
"9. c #868792",
"0. c #8A8693",
"q. c #8D8A95",
"w. c #84839B",
"e. c #8D8A9A",
"r. c #918D94",
"t. c #918E9C",
"y. c #8C9399",
"u. c #969392",
"i. c #999897",
"p. c #94919D",
"a. c #9D9B9A",
"s. c #AE968A",
"d. c #AA9C96",
"f. c #A19F9D",
"g. c #9DA28B",
"h. c #A1A68E",
"j. c #A6AB93",
"k. c #A3A19E",
"l. c #BAA69B",
"z. c #ABB197",
"x. c #AEB499",
"c. c #B1B69C",
"v. c #B3B99E",
"b. c #8786A6",
"n. c #938FA3",
"m. c #8E90AE",
"M. c #9592A2",
"N. c #9995A4",
"B. c #9D9AA4",
"V. c #9596A9",
"C. c #9A97A9",
"Z. c #9D9AAB",
"A. c #918FB3",
"S. c #9997B8",
"D. c #9A96BD",
"F. c #A09DA1",
"G. c #A19EAD",
"H. c #A19EB2",
"J. c #8FA0A9",
"K. c #9DA3A5",
"L. c #A5A3A2",
"P. c #A9A6A4",
"I. c #A3A3AB",
"U. c #A9A8A9",
"Y. c #ADABAA",
"T. c #B6AAA6",
"R. c #B2AEAD",
"E. c #AFB4A3",
"W. c #B6BCA1",
"Q. c #B9BEA4",
"!. c #B4B0AE",
"~. c #A5A2B3",
"^. c #ACABB5",
"/. c #A8A6B8",
"(. c #ADAABB",
"). c #B1AFBD",
"_. c #ADB1B3",
"`. c #B5B3B3",
"'. c #B9B6B5",
"]. c #B9B6B9",
"[. c #B5BABB",
"{. c #BDBCBB",
"}. c #C5AA9B",
"|. c #C9B2A5",
" X c #D5B9AA",
".X c #C6B9B2",
"XX c #BBC1A7",
"oX c #DEC1AE",
"OX c #CBC1BA",
"+X c #E1C4B3",
"@X c #9A97C1",
"#X c #9D9BC5",
"$X c #A19EC6",
"%X c #ADAAC1",
"&X c #A5A2CA",
"*X c #A9A6CB",
"=X c #B1AEC4",
"-X c #B5B3C4",
";X c #B9B8C3",
":X c #B6B3CB",
">X c #B9B6CB",
",X c #BCBACC",
"<X c #ABA7D5",
"1X c #B2AEDC",
"2X c #B8B6D2",
"3X c #BDBBD3",
"4X c #B3ACE1",
"5X c #BBB7E9",
"6X c #BFBBF0",
"7X c #C1BECC",
"8X c #C1BED4",
"9X c #C2BFD8",
"0X c #C0BCEE",
"qX c #C2BDF3",
"wX c #BDC1C3",
"eX c #C3C4C3",
"rX c #C8CBCB",
"tX c #C4C2D5",
"yX c #C5C3D9",
"uX c #CBC9DA",
"iX c #CED2D3",
"pX c #D2D6D7",
"aX c #D6DADA",
"sX c #D9DEDE",
"dX c #DAE0DE",
"fX c #CECCE0",
"gX c #DEE3E2",
"hX c #E1E6E5",
"jX c #E3E8E7",
"kX c #E5EAE9",
"lX c #E9EDEB",
/* pixels */
", , , , , 1 1 , , , , , 1 , , 1 - 1 1 1 - 1 1 1 - 1 1 1 * 1 1 1 1 1 1 1 1 1 1 1 1 1 1 1 1 1 1 1 1 * 1 1 1 1 1 1 1 1 1 1 1 1 1 1 1 1 1 1 1 1 1 > 1 1 > 1 1 ",
", , , , , , , , 1 1 , , 1 1 , , 1 1 1 1 1 1 1 1 1 1 1 1 1 1 1 1 1 1 1 1 * 1 1 1 1 1 1 1 * 1 1 1 1 1 1 1 * 1 1 1 1 1 1 1 1 * 1 1 1 > 1 > 1 1 1 1 > 1 1 1 > ",
", 1 , , , , , , , , , , , , , , 1 1 - 1 1 1 - 1 1 1 - 1 1 1 1 1 1 * 1 1 1 1 1 * * 1 1 1 1 1 1 1 1 1 1 1 1 1 1 1 1 1 1 1 1 * 1 1 1 1 > 1 1 1 1 > 1 1 1 > 1 ",
", , , , , , - > 1 , 1 , , , , , 1 1 1 1 1 1 1 1 1 1 1 1 1 1 1 1 1 1 1 1 1 1 1 1 1 1 1 1 1 1 1 1 1 1 1 1 1 1 1 1 * 1 1 1 1 1 1 1 1 1 1 1 > 1 1 1 > 1 1 1 1 ",
", , , , , , > , 1 1 , , , , , , 1 1 1 1 1 1 1 1 - 1 1 1 1 1 1 1 1 1 1 1 1 * 1 1 1 1 1 1 1 1 1 1 1 * 1 1 1 1 1 1 1 1 1 1 1 1 1 1 1 1 > 1 > 1 1 > 1 1 1 1 > ",
", , , 1 , , 1 1 , , , , 1 , , , 1 1 1 1 1 1 1 1 1 1 1 1 1 1 1 1 1 * 1 1 1 1 1 1 1 1 1 1 1 1 1 1 1 1 1 1 1 1 1 1 1 1 1 1 1 1 1 1 1 1 1 1 1 1 1 1 1 1 1 1 1 ",
"1 , , , , , , , , , , , , , 1 , 1 1 1 1 1 * 1 1 1 1 1 1 * 1 1 1 1 1 1 1 1 1 1 1 1 1 1 1 1 1 1 1 1 1 1 1 1 1 1 1 * 1 1 1 1 1 1 1 > 1 1 1 1 1 1 1 1 1 1 > 1 ",
", , , , , , , 1 , , 1 , , , 1 1 1 1 o X X X X X . X X X X X X X X X X X X X X X X X X X X . X X . X X   X X X X X X 1 * 1 1 1 * 1 1 1 > 1 1 1 1 > 1 1 1 1 ",
", , 1 , , , , , , 1 , , 1 , > 1 1 1 o.o.O.O.o.o.+.@.@.@.@.O.@.@.{ o.o.o.o.o.L K L K L K L L L L L L L L K K t t 2 p t 1 1 1 1 1 1 1 1 1 1 1 1 > 1 > 1 1 1 ",
", , , , , , 1 , , , , , , , > , g / 0X0X0X&X>.*.&.&.A.qX0X0Xb.D.0X0X0X0X4XD.o.@X@X,.P P Y Y P *.@X@X*.P o.P z z Y @.P < 1 1 1 1 1 1 > 1 > 1 1 1 1 1 1 1 > ",
", , , , , , , , , , , , , , 1 * z 0XqXqX4X>.& ; ; * / qXqX5Xz K 4XqXqXqX<Xo.O #X$XP & %   O $ x @X@Xe O .   O . K *.*.*.* 1 1 1 1 > 1 1 1 1 1 1 1 1 1 > 1 ",
", 1 , , 1 , , 1 , , 1 , 1 , 1 o z qXqXqXK K &X&X&X$X4XqXqX5Xx O K 4XqXqXo.O O #X#X,.,.,.  Y ,.,.@X=.o.o.z   P o.o.*.*.=.O * * * 1 1 1 1 1 1 > 1 > 1 1 1 1 ",
", , , 1 , , , , 1 , , , , , , o z qXqXqXw x qXqXqXqXqXqXqXqX#XK t 0XqX4XK $ *.#X#X#X#X,.. *.#X#X@X@X,.*.K . *.*.*.*.*.>.O * 1 1 1 - > > > > 1 1 1 1 1 > 1 ",
", , , , 1 , , , , , , , , , 1 o x qXqXqXw x qXqXqXqXqXqXqXqXqX@XY o.<X*.K O.@X#X#X#X#X@X  *.#X@X,.,.=.*.K . *.*.*.*.*.=.O * 1 * > - - - > 1 1 1 1 1 1 1 1 ",
", , , , , , , 1 , , 1 , , , , o z qXqX0Xw ; ,.,.,.,.$XqXqXqXqX0XD.K O.x ;.@X#X#X#X&X#X,.  *.@X@X=.=.=.*.K . *.*.*.*.@.=.. 1 1 * > - > - - > - > 1 1 1 1 1 ",
", 1 , , , , , , , , , , , 1 1 o z qXqX0Xw O q q q w =.qXqXqX5X5X4X,.% @.,.&X#X#X#X#X#X@X  :.@X,.=.*.*.*.K . =.*.*.*.*.*.. * * 1 - > - - > > - > 1 1 > 1 1 ",
", , 1 , , , , 1 > 1 1 , 1 > 1 o z qXqX0Xw w $X$X$X$X<XqXqX0X<X<X$XA.& @.D.#X#X#X#X#X$XA.  o.b.-.=.=.=.=.K + =.=.*.*.*.=.O * > - - - > > > > > 1 1 1 1 1 > ",
", , , 1 , , > , 1 1 1 1 1 1 1 o z qXqXqXw x qXqXqX0XqXqXqX0X5X*X,.K o.L -.#X$X$X$X$X$XA.O o.-.=.=.=.=.=.K O =.=.*.*.=.=.O - - 1 > - > > 1 1 1 1 1 > 1 1 1 ",
"1 1 1 1 1 1 1 1 1 1 1 1 1 > 1 o z qXqXqXw x qXqXqXqX0X0X0X0X4XA./ / D.-./ -.&X&X$X@XA.b.& I -.-.-.=.=.=.L O =.=.=.*.@.=.O - 1 1 1 1 1 > > 1 > 1 > 1 > 1 1 ",
"- > > > > > 1 1 1 1 > 1 1 1 1 % z qXqXqXP L H.D.D.D.<X0X0X5XS.Y K $X*X*XO.M b.*X*Xb.@.o.< P O.@.-.-.-.=.I % =.=.=.*.=.=.O - 1 1 1 1 1 1 1 1 1 1 1 1 1 1 1 ",
"> > - - - > > 1 1 1 1 1 1 1 1 = c 4XqXqX4X,.w w t z -.0X0X&XO.M / $X<X*X>.K E *X*X>.K c x x x K ,.-.>.-.Y ; -.=.=.*.o.o.> > 1 1 1 1 1 > 1 1 1 > 1 1 1 1 1 ",
"> > > - > > 1 2 > , > 1 1 1 > 1 h H 4X0X6X4X$X<X*X*X1X0X0X*XD.D.H.&X*X*X$XH.D.*X*X$XC.b.w.w.>.>.b.,.>.>.>.@.=.=.*.*.P O 1 , 1 1 > 1 1 1 > 1 1 1 1 1 1 1 > ",
"> > 1 1 1 1 1 > 1 > > 1 > 1 > 1 1 1 K L L P Y o.O.O.@.&.%.+.&.%.%.>.>.>.>.w.w.w.w.>.>.&.@.+./ / o.P L K K x z t w q p 2 , 1 , , 1 1 1 1 1 1 1 1 1 1 1 > 1 ",
"> > > 1 > 1 1 1 1 > , 1 1 1 1 1 2 2 p p a c n S U W Q ( ' $.%.:.:.0.0.0.e.e.t.e.e.0.0.0.9.4.$.%.+.) W Y U N N c z p 2 2 2 2 , , 1 1 > 1 1 1 > 1 > 1 1 1 1 ",
"- > - > > 1 1 1 1 1 1 1 1 1 1 2 2 a f c N U U Y ! ) ] ;.4.9.0.e.n.M.M.n.V.X.o.w.<.V.N.w.e.e.0.0.:.;.%.{ ! Y U U n c a p 2 2 1 1 1 1 1 1 > 1 1 1 > , , , , ",
"- - - > > > 1 1 1 > 1 1 1 2 2 2 a f c N U U W ^ ] $.:.>.e.t.M.V.C.Z.S.<.b.J L X.#.m.#.I e.V.M.n.e.>.:.:.) ) Q U U n c a 2 1 1 2 > - - - - - 1 1 1 1 , , , ",
"> > > 1 1 1 1 1 1 1 1 > 1 2 2 p h c c U U ^ ) { :.:.0.t.N.C.Z./.A.Z.<.X.#.i r I #.X.H H #.m.H.V.N.n.,.:.:.;.) W U U U c a 2 2 2 1 - > - > - > 1 1 1 , , , ",
"1 1 1 1 1 1 > 1 1 1 1 1 2 2 a f g N U U ^ ) ;.:.0.e.M.C.S./.%XH.b.#.#.I #.e u J I i e H X.A.%X/.H.G.n.t.>.:.;.] Q U N c c t 2 1 1 > - - > > > 1 , 1 1 , , ",
"1 1 1 1 1 1 > 1 1 > 1 2 2 a a c N U U ( ) ;.:.>.n.N.H.H.%X=X2XS.X.u J i i e e e r e e i o.A.b.H.%XH.H.C.n.>.:.:.{ Q U N c a 2 1 > 1 > > 1 > 1 1 , , , , , ",
"1 1 1 > 1 > 1 1 1 1 2 2 2 a h n U U W ) ;.:.e.M.G.H./.=X2X2Xm.V.I i e e 0 0 0 e 9 9 0 u J J o.2X:X=X%XH.C.n.r.:.&.) Q U N c f p 1 1 1 1 1 , 1 1 , 1 , , , ",
"1 1 1 1 1 1 > 1 1 1 1 2 a h c S U Q ) ;.:.e.M.C.H.%X=X2X8X/.4.T u i 9 9 9 9 9 9 9 9 9 9 e u $.F.%X8X:X%XH.H.M.>.:.;.( Y U N c a w 1 , > > - > > > 1 , , , ",
"1 > 1 1 1 1 1 1 1 1 1 a h c m U Q ) %.:.>.M.G.H.%X:X8X:XG.6.5./ J 0 8 8 8 8 8 8 8 9 $ 8 u J ' ;.r.H.9X2X=XH.F.n.>.:.;./ U U c f p 2 > > > > - > - - > > , ",
", , , , , 1 , , 1 2 p a h N U W ( ] ;.0.p.C.~.%X>X3X-XB.5.7.u.5.u 0 8 $ $ 8 8 $ 8 @ $ 9 H 9.5.5.3.5.L.,X2X%X/.C.n.0.%.] ^ U U c a 2 2 , > > > - > - - > > ",
", , 1 , , , , , 1 2 a f k S U Q ' $.4.t.C.H.%X:X3X=Xa.6.8.i.i.a.<.0 $ @ @ @ @ @ @ @ $ 0 $.i.u.6.5.5.5.G.3X:X%XH.C.n.9.:.] W U N c a 2 , < - - > - > - > , ",
", , , , , , , , 2 2 a f c S U ' %.:.e.M.G.(.:X3X>XB.6.u.i.a.k.k.a.u $ @ + + + + + + @ z 5.a.a.i.u.u.5.5.~.9X:X%XH.C.e.4.;.( W U c a 2 2 > > - > > > > * - ",
"1 , , 1 , , , 1 2 a f c Z U ( ' ;.0.n.Z./.=X,X8XL.u.u.i.f.k.P.Y.L.v $ + + + + + + + ; c u.P.L.k.a.i.6.6.u.(.3X-X/.Z.M.0.;.` Y U N c a 2 1 , > > > > > - - ",
", , , , , , , 1 p a f N U W ( ] :.e.C.H.%X>XyX^.u.u.a.f.L.P.Y._.Y.W q $ + + + + + + : N i.R.Y.P.k.a.i.8.5.a.>X3X=XH.C.e.:.] Q Y U b f a 2 2 1 , 1 , , , > ",
", , , 1 1 , , 2 a f c Z U Q ' ;.0.p.G./.-X3X,XB.u.a.f.P.Y.R.`.'.].i.W ; + + + + + + q <.`.`.!.Y.P.k.f.i.u.5./.3X2X/.G.M.:.:.) ! U N c a 2 2 1 1 , , , , 1 ",
", 1 , , , , 2 2 a h c N W ( $.:.e.B.H.).,XyX^.u.a.k.P.Y.R.`.;XXXeX7X3.y ; $ $ $ @ $ u U.{.{.].`.R.P.k.a.u.6.a.>X8X%XH.C.t.:.] ^ W U b a a 2 1 1 , , , 1 1 ",
", , , , , 1 2 2 a h N U W ( $.:.t.C./.-X3X3XL.i.f.L.P.R.'.{.eXOXeXrX_.K w y e 0 q u x y.wXOX{.;X`.Y.P.k.a.u.6.(.9X=X/.G.n.:.;.) W U N c a 2 1 1 , , , , 1 ",
", , , , , , 1 p f k N U Q ] ;.5.M.G.(.>X8X-Xa.a.L.P.R.`.{..XeXrXrX.Xy.<.y.y.+.T / _ <.y._.eX_.XX'.!.R.k.f.i.u.F.9X2X%XH.N.>.;.{ ^ U N h a p 1 1 1 1 1 1 1 ",
", , , 1 , , 2 p f k Z U Q ] :.0.B.H.=X>XyX).a.f.P.Y.`.{.wXeX_.9.eXpXpXgXgXrXK._.rXpXaXpXiX[._ I.{.'.!.U.k.a.u.a.:X8X-XH.F.e.:.+.( R S h f p 1 1 > - - 1 > ",
", , , , 1 1 2 a h c S W ( ] :.t.C.H.=X7XyXU.a.k.Y.R.[..XeXP.^ V.kXkXkXkXkXgXaXsXjXkXkXkXkXlXO.} T.`.`.Y.P.f.a.u.).8X-XH.C.t.4.{ ( R U c f p 2 1 1 - > - - ",
"1 , , , 1 1 p a h n S W Q ] :.t.B./.,X8X8XP.f.P.Y.`.{.eX{.d.^ [.kXkXkXkXkXgXiXaXkXkXkXkXkXlX%.3. XT.'.R.U.k.a.u.(.9X:X(.Z.n.0.%.) W U b f a 2 1 > - - - > ",
"1 , 1 1 > > 2 a f k U W ( ] 4.q.B./.-X8X7XL.F.U.R.'..XeXT.l.R wXkXkXkXkXkXwXrXaXjXkXkXkXkXkX<.{  X X`.`.Y.L.a.u.^.9X>X%XH.M.0.$.` W U N h a 1 > - - - > - ",
"1 , 1 > - - 2 p f k S U ( ;.3.p.Z./.>XtX7XL.L.Y.R.{.wX[. Xd.T uXkXkXkXkXjXy.;XaXkXgXkXkXkXkX4.` .X+XY.`.Y.P.k.i.^.yX>X(.G.M.0.;.) Q U V f f 2 1 1 > 1 > - ",
", , 1 - - > 1 p f k S R ( ] 9.p.G.(.>XtX7XP.P.Y.`.].OXR.+Xu.E pXkXkXkXgXsX[ _.[.gXjXjXkXkXjX<.D l.+XU.'.R.P.f.i.^.yX,X%XG.M.9.;.' W U n h a 2 2 1 1 1 1 > ",
"1 > - - > > 2 a f c S W ( $.9.p.Z.(.>XtX8XU.L.R.'.{.eXk.oX6.^ pXkXgXkXsXy._ K.<.I.aXgXkXkXkX<.k !  XT.'.R.T.k.i.).yX>X).G.p.0.;.' Q U n h f 2 1 1 > 1 1 1 ",
"> - - > - > 2 a f k B W ) ] 9.p.G.(.>X9XtXR.P.T.`.{.{.u.|.! ( pXjXhXdXy.T <.[.y._ <.[.gXgXjX[ c A s.l.].R.P.L.a.).yX>X(.G.M.0.;.' Q U n h a 2 2 2 1 1 1 1 ",
"> > > - - - 2 a f k U R ( ' 9.r.F./.-X8XuX`.L.R.`.{.!.|.s.S ) pXhXaXJ._ _ _.rXwX[.B.9.K.sXjX_ h A { d.R.R.P.k.a.;XyX>X(.G.M.4.;.` W U m h a 2 2 1 1 1 1 > ",
"1 , , > 1 > 2 a f c S R ( ] 3.r.G./.-X8XfX;XP.R.'.'.|. X{ Z ' aXgXK._ _ 7.dXiXiXgXgXsXiXsXgXK k A { |.T.`.P.f.U.8X8X>X/.G.p.0.] ` Q S n h a 2 2 > 1 > 1 1 ",
", , 1 1 1 1 6 s f k Z U ! ' :.t.F./.=X7XyX7XU.R.`.R.|.l.}.{ ) pXrXK._.[.wX[.K.[.[._.wXgXjXsXc A s.s.oXT.Y.T.f.^.uX8X-X/.G.p.4.] ( W S n h a 2 2 1 1 1 1 1 ",
", , , , , , 2 f h b n R ( ' ;.r.B.H.).,XyXuX`.U.!.R. X|.oXs.! pXgXjXaXeXwXpXwXpXrXwXgXgXhXiXh { }.oXoX}.U.P.f.;XyX,X=X~.B.t.:.] ( R S k h a 2 , 1 1 1 1 > ",
"1 , , , 1 > 2 a h b m R Q ' ;.q.B.I.).,XtXfX;XT.R.R. X+XoXs.` rXgXgXpXdXgXwXI.wXdXgXgXjXgX[.b { |.oXoX}.L.L.R.9XyX>X).G.M.q.;.] ( R S k a a 2 , 1 1 1 1 1 ",
", , , 1 1 , 2 a f k B R ! ` ;.9.p.G.^.-X7XuXuX`.P.T. XoXoXs.u.wXjXgXgXgXwXwXXXdXgXjXgXjXgX7.K ~ }.oXoX|.F.P.;XuX8X-X^.G.p.9.{ ' Q U S c h 6 1 1 > 1 1 1 1 ",
", , , , 1 1 2 p f k m S W ` ] 3.r.F.~.).,XtXfX7XY.}.+X+X X{ P.{.aXjXgXgXgXgXwXgXgXgXgXgXpX1.T F ..oXoX|.f.`.yXyX,X)./.B.r.4.%.' W S b h f 2 , 1 1 1 1 > 1 ",
"1 1 1 - 1 1 2 6 s h n S R ( ' 3.0.N.G.(.-X7XuXfX.X|.oXoX..{ '.iXK.gXgXgXgXdXrXdXgXgXgXgXwX1.X.M A { |.|.P.,XfXwX;X(.G.p.q.;.] Q W S b h a 2 1 1 1 1 1 1 > ",
"1 1 1 1 1 1 1 2 s h b S R ! ` $.5.r.F.^.).,X9XuX7X|. X{ G 6.eXrXK.[.gXgXgXdXwXdXgXgXgXgXJ.1.1.J V V ..|.R.fXyX,X).~.G.p.3.;.` Q U N k h a 2 1 1 1 > 1 1 1 ",
"1 - 1 1 1 1 1 1 6 f k N F W ( ] ;.r.N.I.^.].7XtX.X Xs.G G P.OXeXXX9.pXwXK.XXwXgXgXdXdXdX2.1.1.J g V G }.Y.9X,X-X(.G.M.q.:.] ( W S m k f 6 2 1 > 1 1 > 1 1 ",
"1 1 1 1 1 1 1 2 6 f g n S R ( ` ;.9.r.F.H.).-X8XT. X .Z C ` R.{.)._ wXgXwX[ _ <.i._.dXiXy.2.J v V V g A N.8X;X^.I.B.t.3.{ ' ! R S g f s 2 2 1 1 1 > 1 1 1 ",
"1 1 1 - 1 - - 1 2 s h k n S W ( [ 3.5.p.F.^.).;XT.oX{ g Z Z | ^.} _ _.wXrXXX#.M T R.dXpX_.%.v V V C V U /.;X%X~.B.p.3.;.%.( W S n k f a 1 1 > 1 1 1 > 1 1 ",
"1 1 1 1 1 1 - - 2 6 f h n S R ! ` [ 4.q.N.G.I.I.6.{ A g C C A ' J T _ } ^ M v M <.XXrX_.%.d V C C C C ] /.K.V.K.p.q.;.' ^ W R m b h s 2 1 1 1 1 1 1 1 1 1 ",
"1 - 1 1 1 1 1 1 2 2 a h k S S W ( [ { 9.q.4.' u.| g C C C C V a y : y y v v v D _ [ [ M < f C C C C V 6.E.E.j.9.r.4.[ ` W R S n k h a 1 1 1 1 1 1 1 1 1 1 ",
"1 1 1 1 1 1 1 1 2 2 6 f h b B F W ` %.$.6.x.Q.Q.v.{ g C C C C j 4 . . . O # : y y < & O : D l g V ! j.Q.XXXXXXk.{ ] ` ( R S n k h a 6 1 1 1 1 > 1 1 1 > 1 ",
"1 1 1 1 1 1 1 1 1 2 6 a h k n S F Q ( [ Q.XXXXXXXXg.~ C C V V F g.3 # # # . . . . . . # } } D z.XXXXQ.Q.Q.Q.Q.z.} ' ^ W R B n h s a 2 1 1 1 1 1 1 1 1 1 1 ",
"- - - 1 1 1 1 * > , 2 a s h k S S R W 8.W.Q.W.Q.Q.Q. .| } ~ F ~ W.} 7 4 4 3 3 : : : 3 l j.v.| } z.Q.v.Q.v.v.Q.} D E Q U n b k h a 6 1 , 1 > 1 1 1 1 1 > 1 ",
"- - 1 1 1 1 1 1 Z , 2 2 6 h k n m S B } g.W.W.W.W.W.W.Q.v.z. .g.Q.z.| l 3 3 3 3 3 3 l  .W.W.g.v.v.v.v.v.W.XX} j d D S m b b h a a 2 1 1 1 1 > 1 1 > 1 1 1 ",
"- - * 1 - - * 1 f 1 1 2 2 a h h n B v j D g.v.v.v.v.v.v.v.g.g.c.W.W.v.h.} D 4 F | g.j.v.W.XX} Q.v.v.x.j.z.} j 3 c S B n b k s a 2 1 1 , 1 > - - - - - - - ",
"* * 1 * - 1 o * * 1 1 > 2 6 a g k n n < j D g.v.x.v.v.v.v. . .v.v.v.v.v.v.x.g.h.W.W.v.x.v.v.} XXz.z.} l D 7 3 4 n S B n h f a 5 1 1 > 1 > > - > - - > - - ",
"1 1 1 * 1 1 1 1 1 1 1 1 2 2 a s h k n h j j F | g.j.z.x.x.h.| z.v.x.x.x.x.x.g.j.x.v.x.x.x.z. .v. .l 7 7 7 7 7 j S B n k f a 5 2 1 1 1 1 > > > > > - > 1 > ",
"1 1 1 1 1 1 1 1 1 1 , 1 1 1 2 6 s h k b l l j j l F } h.z.z. .z.z.z.x.x.x.z. .g.z.v.z.z.z.z. .} l j 7 4 3 y v D V b k f 6 2 2 1 1 1 1 1 1 1 1 1 1 1 1 1 > ",
"1 1 1 1 1 1 1 1 1 > 1 1 1 1 1 5 6 a h k b b v 7 7 4 7 l } g.g.g.z.z.z.z.c. .F D }  .z.z.z.j.} l 3 3 4 7 l D M D n k f 2 s a 1 > > 1 1 > 1 1 1 > - - - - - ",
"1 1 1 1 1 1 1 1 1 1 1 1 1 1 1 1 2 6 s f k f ! b j 4 7 7 7 7 l } h.j.j.g.F 7 7 7 7 7 l F F j 7 5 3 4 l D Z m b k h f 6 > g a > 1 1 1 1 > > 1 1 > > > > > > ",
"1 1 1 1 1 1 1 1 - 1 1 1 1 1 1 > 2 2 6 a 6 k W h D D n h 7 5 7 7 j l j 7 7 3 3 3 7 3 3 3 7 7 3 5 j D D D n n h h s a 1 * o * 1 1 1 1 1 1 1 1 1 1 1 1 1 1 1 ",
"1 1 * 1 - - - 1 1 1 1 1 1 1 1 1 1 1 2 5 > > 2 h l b m m n k 7 4 3 3 3 3 3 3 3 3 3 3 3 3 3 3 s n B m m b k h h a 6 2 1 - - 1 1 1 1 1 1 1 1 1 1 1 1 1 1 1 > ",
"1 1 1 1 1 - 1 1 - 1 1 - 1 1 - - - - - 1 1 1 6 6 j k k n n m m k a 3 3 3 3 7 j h s 7 3 5 6 l m B n k k k f f 6 6 2 1 1 1 1 1 > 1 1 1 > 1 > 1 1 1 1 1 1 1 1 ",
"2 g g V l 6 - - - 1 1 1 1 1 - - - - 1 - > > 5 5 s s s k k k n n m n k b m B m B m m m m n n g b k h f s 6 6 2 2 1 1 1 1 1 1 1 1 > 1 1 1 1 > 1 1 > 1 1 1 1 "
};
