/* XPM */
static char *result[] = {
/* columns rows colors chars-per-pixel */
"77 77 76 1 ",
"  c #292420",
". c #2A2521",
"X c #2B2622",
"o c #2D2824",
"O c #2C2924",
"+ c #2E2925",
"@ c #2D2A25",
"# c #2F2D28",
"$ c #302B27",
"% c #312C28",
"& c #302D28",
"* c #312D29",
"= c #322D29",
"- c #312E29",
"; c #302F2A",
": c #322E2A",
"> c #332E2A",
", c #342F2B",
"< c #31302B",
"1 c #32302B",
"2 c #33302B",
"3 c #35312D",
"4 c #36312D",
"5 c #34322D",
"6 c #35322D",
"7 c #37332D",
"8 c #37322E",
"9 c #36332E",
"0 c #37332F",
"q c #38332F",
"w c #393430",
"e c #393530",
"r c #393531",
"t c #3A3531",
"y c #383631",
"u c #393631",
"i c #3B3632",
"p c #3A3732",
"a c #3C3733",
"s c #3B3833",
"d c #3C3833",
"f c #3B3A35",
"g c #3D3834",
"h c #3C3935",
"j c #3E3935",
"k c #3D3A35",
"l c #3E3A36",
"z c #3F3A36",
"x c #3E3B36",
"c c #3F3B36",
"v c #3F3C37",
"b c #403B37",
"n c #413C38",
"m c #403D38",
"M c #423D39",
"N c #433E3A",
"B c #45403C",
"V c #46413D",
"C c #44423D",
"Z c #47423E",
"A c #4D463F",
"S c #4B4642",
"D c #4F4841",
"F c #4D4844",
"G c #514C48",
"H c #53504B",
"J c #56504A",
"K c #56514D",
"L c #59524B",
"P c #58514C",
"I c #58534F",
"U c #595450",
"Y c #5A5551",
"T c #5C5552",
"R c #65605C",
"E c #7A7571",
/* pixels */
"jzzzzbbzzzzzbzzbzjjzzzzzzzzzzzzzzzzbzjzzzzzzzzbzzzzbzzzzzzzzzzjzzzzzzzjgggjgg",
"zzzzzzzzbbzzbzzjzzzzzzzzzzzzzzzzzzjzgajzzzzzzzzzbzzzzbzzzzzzzzzzzzzzbzbzjzzzz",
"zzzzzzjjzzzzzzzzzzzzzzzzzzzzzzzzzzzzgazzzzzzzzzzzzzzzzzzzzzzzzzzzzzzzzzzzzzzz",
"zzzzzgwtbzzzzzzzzzzzzzzzzzzzzzzzzzzjbzbzzzzzzzzzzzzzzzzzzzzzzzzzzzzzzzzzzzzzz",
"zzzzzjajbzzzzzzzzzzzzzzzzzzzzzzzzzzzzjzzzzzzzzzzzzzzzzzzzzzzzzzzzzzzzzzzzzzzz",
"zzzzzzbbzzzzzzzzzzzzzzzzzzzzzzzzzzzbzzzzzzzzzzzzzzzzzzzzzzzzzzzzzzzzzzzzzzzzz",
"zzzzzzzzzzzzzzzzzzzzzzzzzzzzzzzzzzzzzzjzzzzzzzzzzzzzzzzzzzzzzzzzzzzzzzzzzzzzz",
"zzzzzzzzzzzzzzzzzzzzzzbzzzzzzzzzzzzzjjjbzjibbzzzjbgtgzjzzzzzzbzzzzzzzzzzzzzzz",
"zzzzzzzzzzzzzzzzzzzzzzzzzzzzzzzzzzzzzzzja8Kwbzzzjbjjbbbzzzzzzzzzzzzzzzzzzzzzz",
"zzzzzzzzzzzzzzzzzzzzzzbnzzzjgzbbzzjzzzzb4ZEbjbzzzjzbjiiigzbbbbzzzzzzzzzzzzzzz",
"zzzzzzzzzzzzzzzzzzzzbjaitttwwtiajzzzzi09&pv9jbzzzzzgtwwqwiaagggjzzzzzzzzzzzzz",
"zzzzzzzzzzzzzzzzzzzjbgtwwwqwwwqwgzzzzw:;<15hbzzbzjawqwqwwwwqwwwijzzzzzzzzzzzz",
"zzzzzzzzzzzzzzzzzzgitiiitwwwwwwijzzzzzzzzzzzzzzzgtqqwwwwwqwtwwwiaiiiajzzzzzzz",
"zzzzzzzzzzzzzzzjbztwwwwtwwwqqwigzzzzzzzzzzzzzzbgwwiaggjjgitwwwwwwqqqwjzzzzzzz",
"zzzzzzzzzzzzzzzzzzgqqqqqiggaggjzzzzzzzzzzzzzzzzzjjzzzzzzzzzzjjjiwwwwwtwizzzzz",
"zzzzzzzzzzzzzzzzzzbzgajjjbbbbzzbzbzzzzzzzzzzbbzbbzbzzzzzzzzjittqwwwwwttgzzzzz",
"zzzzzzzzzzzzzzzzzzzzbbzzzzzzzzzzjbzzzzzzzzzzzzzzzzzzzzzzzzzbtqtwwwwwwijbjzzzz",
"zzzzzzjzbzzzzzzzjzzzbzzzzzzzzzzzzzzzzzzzzzzzjjbjzzzzzzzzzzzzjaiiiiaiazzzzzzzz",
"zzzzzzzzzzzzzzzzzzzbzzbzzzzzzzzzzzzzzzzzzzzzggbzzzzzzzzzzzzzzzzbzzbgazzzzzzzz",
"tiiiajzbzzzzzzzzzaijbzzzzzzzzzzzzzzzzzzzzzzzjjzzzzzzzzzzzzzzzzzzzzzjgzzzzzzzz",
"twwwqwizjzzzzzzjjitgzzzzzzzzzzzzzzzzzzzzzzzzbbzzzzzzzzzzzzzzzzzzzzzzzbzzzzzzz",
"iiittijnjjjzzzzjzjbbzzzjzzzzzzzzzzzzzzzzzzzzzzzzzzzzzzzzzzzzzzzzzzzzjbzzzzzzz",
"wijzzzzzztizjzzzzzzzzzzzzzzzzzzzzzzzzzzzzzzzzzzzzzzzzzzzzzzjzzzzzzzzzzjzbzzzz",
"wwajzzzzzgjzzbzzzzzzzzzzzzzzzzzzzzzzzzzzzzzzzzzzzzzzzzzzzzzzzbzzzzzzbzjzzzzzz",
"wwwttjbzzbzzjzzzzzzzzzzzzzzzzzzzzzzzzzzzzzzzzzzzzzzzzzzzzzzjgaaajzzjgjbzjzzzz",
"qqqwtjzzbzzzbbzzzzzzzzzzzzzzzzzzzzzzzzzzzzzzzzzzzzzzzzzzzzjatwwwwwwwwtjbzzzzz",
"aaazzbzjbzzzzzzzzzzzzzzzzzzzzzzzzzzzzzzzzzzzzzzzzzzzzzzzzzzzjjggawwwwqizzzzzz",
"zzzzzzzzzzzzzzzzzzzzzzzzzzzzzzzzzzzzzzzzjaagjzbzzzzjjjzzjawwqqwwwwqwttijzzzzz",
"zzzzzzzzzzzzzzzzzzzzzzzzzzzzzzzzzzzzzjgiqqwwtigjjzzzzzzbbziwwqqqqtajzjzzzzzzz",
"zzzzzzzzzzzzzzzzzzzzzzzzzzzzzzzzzzjzziwwtwwwtwqwwttttiaiiatwwwwwwtijzzzzzbzjj",
"zzzzzzzzzzzzzzzzzzzzzzzzzzzzzzzzzzzzjtwqqqwtqwttwtwwwwqqqtwwwwwwwwwttwtiijzzz",
"zzzzzzzzzzzzzzzzzzzzzzzzzzzzzzzzzzzzjagaaaitiwqwwwwqwwwwwwwwwwwwwwwwwwwwwwtaj",
"zzzzzzzzzzjbbnbbzzzzzzzzzzzzzzzzzzzzzzzzzbzjaiwqwqwtiitttttttttttwwwwwwwwqwtt",
"zzzzzzzzzzzzgajzzzzzzzzzzzzzzzzzzzzzzzzzzjziwqqwtagjzzzzzzzjzbjgiqwwwwwwwwwwj",
"zzzzzzzzzjzaqwgzzzzzzzzzzzzzzzzzzzzzzzzbzzziwwtigzzzzzzzzzzzzgaitwwwwwwwwww8w",
"zzzzzzzzzzzzjjzbzzzzzzzzzzzzzzzzzzzzzzzjzzzjjjjzbzzzzzzzzzbjitqqwtiiiiiiiiw4w",
"zzzzzzzzzzjzzzzzjzzzzzzzzzzzzzzzzzzzzzzzzzjzzzzzzzzzzzzzzzzgqqtigjjzzzzzzjzjj",
"zzzzzzzzzzzzzzzzzzzzzzzzzzzzzzzzzzzzzzzzzzzzzzzzzzzzzzzzzzzzaiajzzzzzzzzzzzzz",
"zzzzzzzzzzzzzzzzzzzzzzzzzzzzzzzzzzzzzzzzzzzzzzzzzzzzzzzzzzzzzzzzzzzzzzzzzzzzz",
"zzzzzzzzzzzzzzzzzzzzzzzzzzzzzzzzzzzzzzzzzzzzzzzzzzzzzzzzzzzzzzzzzzzzzzzzzzzzz",
"zzzzzzzzzzzzzzzzzzzzzzzzzzzzzzzzzzzzzzzzzzzzzzzzzzzzzzzzzzzzzzzzzzzzzzzzjjzzz",
"zzzzzzzzzzzzzzbzlcdjzzzzzzzzzzzzzzzzzzzzzzzzzzzzzzzzzzzzzzzzzzzzzzzzzzbzgtiii",
"zzzzjzzzzjzzgaijc6mjNgzjzzzzzzzbzzzzzzzzzzzzzzzzzzzzzzzzzzzzzzzzzzzzzzjjjtwww",
"zzzzzzzjjzzgqwww02HVbbzbzzzzzzzzzzzzzzzzzzzzzzzzzzzzzzzzzzzzzzzzzzzzzzzgiwqww",
"bzzjiiittaztwtw,*O28Mgbjzzzzzbzjzzzzzzzzzzzzzzzzzzzzzzzzzzzzzbzzzzzzzbawwwwww",
"zzbiwwwwwqttttwi9-ubzzzzzzzzzzgtgzzzzzzzzzzzzzzzzzzzzzzzzzzzjjzzzzzzjzbjgaatw",
"zzjwwwwwwwqwwwwqwregjzzzzzzzzzjajzzzzzzzzzzzzzzzzzzzzzzzzzzzjjzzzzzzzzzzzzzzg",
"bgwqwwwwwwwwwwwwwwwtjzzzzzzzzzzzzzzzzzzzzzzzzzzzzzzzzzzzzzzzzzzzzzzzzzzzzzzzz",
"iwwwwwwwwwwwwwwwwwqtbjzjzzzzzzzzzzzzzzzzzzzzzzzzzzzawtgzjzzzzzzzzzzzzzzzzzzzz",
"wwiqqwwwqwwwwwwwwwtgbjzjzzzzzzzzzzzzzzzzzzzzzzzzzzzawtjzjzzzzzzzzzzzzzzzzzzzz",
"bzgiiaaiwwwwwwwwtajzzzzzzzzzzzzzzzzzzzzzzzzzzzzzzzzzzbzzzzzzzzzzzzzzzzzzzzzzz",
"zzzjzzzgtqwwwwqwazzzzzzzzzzzzzzzzzzzzzzzzzzzzzzzzzzzzzzzzzzzzzzzzzzzzzzzzzzzz",
"zzzzzzbzgaqqwqtgzzzzzzzzzzzzzzzzzzzzzzzzzzzzzzzzzzzzzzzzzzzzzzzzzzzzzzzzzzzzz",
"zzzzzjzzzzgjjajbzjbzzzzzzzzzzzzzzzzzzzzzzzzzzzzzzzzzzzzzzzzzzzzzzzzzzzzzzzzzz",
"zzzzzzzzjjbzzzzzzzzzzzzzzzzzzzzzzzzzzzzzzzzzzzzzzzzzzzzzzzzzzzzzzzzzzzzzzzzzz",
"zzzzzzzzzzzjjzzjzzzzzzzzzzzzzzzzzzzzzzzzzzzzzzzzzzzzzzzzzzzzzzzzzzzzzzzzzzzzz",
"zzzzzzzzzzzzzzzzzzzzzzzzzzjzzzzjzzjzbzjzzzzzzzzzzjzzzzzzzzzzzzzzzzzzzzzzzzzzz",
"zzzzzzzzbzzzzzzzzzzzzzzzzzzzzzbbzjzzzzbzzzzzzzzzzzzbzzzjzzzzjzbzzzzzzzzzzzzzz",
"zzzzzzzjjzzzzzzzzzzzzzzzzzzzzjgaaaajbzjzzzzzzzzzzzzzzbzzzzzbzzzzzzzzzzzzzzzzz",
"zzzzzzzbzzzzzzzzzzzzzzzzzzzzzjawwwwizzzzzzzzzzzzzzbzzgttiitazzzzzzzzzzzzzzzzz",
"zzzzzjiabzzzzzzzzzzzzzjjaiiigjgatwwwtazzzzzzzzzzzzzzjwqqqwqwtizzzzzzzzzzzzzzz",
"zzzzzaqtjzzzzbzzzzzzzgtwwwqwwwwwwwwwwwizzzzzzzzzzzzzzaiitqwqqtgzzzzzzzzzzzzzz",
"zzzzbzjzzzzzzzzzzzzzbjtqwwtwwttwwttwqtazzzzzzzzzzbjzbzbjiwwqwwijzzzzzzzzzzzzz",
"zzzzbzjzjzzzzzzzzzzzaiqwwwwwwqtwwtwwijbzzzzzzzzzzjggzjzbgwqitwazzzzzzzzzzzzzz",
"zzzzzzjnzbbjzzzzzzztwwwtwwwwtajjjzzzzzzzzzzzzzzzzzjzbzzzjiwtajzzzzzzzzzzzzzzz",
"iigzbbzqajnzzzzzzzztwwwwwwtagzbbbbjjbzzzzzzzzzzzzzzzzjawwwwwqizzzzzzzzzzzzzzz",
"wwtjzgjbRgzzzzzzzzzzjgggjjzzzzzzzzzzzzzzzzzzzzzzzzzzzzawwwwqtjzjbzzbzbzjjgggz",
"wqqtga>zGjzzzzzzzzzzzzzzzzzzzzzzzzzzzzzzzzzzzzzzzzzzzzzatwtijzzzzzzzgiwwwwwwa",
"qqqqwi+%8zzzzzzzzzzzzzzzzzzzzzzzzzzzzzzzzzzzzzzzzzzzzzzbzznbzzzjzzzziqwtwwtwq",
"agggzbzgzzzzzzzzzzzzzzzzzzzzzzzzzzzzzzzzzzzzzzzzzzzzzzzzzzjbbzzzzzbzgattttiga",
"zbzbjzzbzzzzzzzzzzzzzzzzzzzzzzzzzzzzzzzzzzzzzzzzzzzzzzjzbbzzgazjzzzzzzjjzzjgi",
"zzzzzzbzzzzbzzzzzzzbzaqzzzzzzzzzzzzzbxkzzjzjzzzzzzzzzzzzzzztBBnjzzzzzjbgwwqqq",
"zzzzzjzbzbzzzzbzzzzjbqYtzzzzzzzzzzbaaxfnzjzzzzzzzzzzzzzzzzz%SFjzzzzzzzzgiaiii",
"bzzzzjzzzzzzbzzzzzzzijU4zzzzzzzzzznjbsyagnjzzzzzzzzzzzzzzzi .$jjzzzzzzzzzbbbb",
"zzzziwajzzzzbjzzjjja+X=bzzzzzzzzzzjbz6CIwbzzzzzzzzzzzzzzzzztijbjzzzzzzzzzzzzz",
"bbzzbtgjizbzbattwwwqt4itzzzzzzzzzzzzq@#obgzbzzzzzzzzzzzzzzzbjzjbzzzzzzzzzzzzz",
"AJPTLD730bzzzjaiqqwwqqwtzzjjzzzzzjzzbjgzzzzzbzzzzjzjzzzzzzzzzzzzjzzjzzbbjzbjb"
};
