/* XPM */
static char *result[] = {
/* columns rows colors chars-per-pixel */
"77 77 214 2 ",
"   c #000100",
".  c #080604",
"X  c #040B04",
"o  c #0E0A04",
"O  c #130A05",
"+  c #071107",
"@  c #081508",
"#  c #0A1C0B",
"$  c #15120B",
"%  c #271A12",
"&  c #0D230E",
"*  c #0D2C12",
"=  c #112E12",
"-  c #1B2C19",
";  c #0F3610",
":  c #133214",
">  c #1B3314",
",  c #143A16",
"<  c #1A3219",
"1  c #173C18",
"2  c #1B3C1A",
"3  c #352F0C",
"4  c #37360E",
"5  c #3B380E",
"6  c #29261A",
"7  c #3D261A",
"8  c #2A3814",
"9  c #2A2521",
"0  c #2B2A29",
"q  c #302B27",
"w  c #322E2A",
"e  c #2A3525",
"r  c #2A3927",
"t  c #35332D",
"y  c #38332F",
"u  c #353B2F",
"i  c #3A3531",
"p  c #3F3A36",
"a  c #463D0F",
"s  c #4D3F0E",
"d  c #462B1D",
"f  c #46371B",
"g  c #6A3E07",
"h  c #4B3428",
"j  c #413732",
"k  c #403B37",
"l  c #423D39",
"z  c #633B28",
"x  c #14471D",
"c  c #1A431A",
"v  c #1D4B1D",
"b  c #1E521F",
"n  c #234C1D",
"m  c #25521E",
"M  c #29541E",
"N  c #1E5321",
"B  c #1B5923",
"V  c #2A4B29",
"C  c #36412F",
"Z  c #334F2F",
"A  c #215321",
"S  c #225C25",
"D  c #2C592C",
"F  c #31552F",
"G  c #305B2F",
"H  c #3B4334",
"J  c #354833",
"K  c #3A4C35",
"L  c #2F5830",
"P  c #355432",
"I  c #3B5436",
"U  c #335D32",
"Y  c #1C6325",
"T  c #236226",
"R  c #266629",
"E  c #276A2A",
"W  c #2A6D2C",
"Q  c #316E29",
"!  c #24742E",
"~  c #2B752E",
"^  c #2B782F",
"/  c #34742C",
"(  c #2F6C30",
")  c #316331",
"_  c #316A31",
"`  c #3A6939",
"'  c #2E7631",
"]  c #2D7B31",
"[  c #347633",
"{  c #5A480E",
"}  c #4C4915",
"|  c #7B4909",
" . c #76500E",
".. c #764519",
"X. c #665010",
"o. c #45413C",
"O. c #4A433B",
"+. c #50453C",
"@. c #55493D",
"#. c #4E5234",
"$. c #6C4831",
"%. c #684F32",
"&. c #76583C",
"*. c #486B2F",
"=. c #43773C",
"-. c #65783F",
";. c #424142",
":. c #4B4945",
">. c #4D4844",
",. c #534B48",
"<. c #475A45",
"1. c #4C534C",
"2. c #58524A",
"3. c #5B5552",
"4. c #585855",
"5. c #665543",
"6. c #7A5943",
"7. c #605F5D",
"8. c #516B4F",
"9. c #417C40",
"0. c #556956",
"q. c #6F6148",
"w. c #7A6246",
"e. c #6D7E43",
"r. c #7B7946",
"t. c #656364",
"y. c #716E6C",
"u. c #757472",
"i. c #874508",
"p. c #9D4F05",
"a. c #84530C",
"s. c #854819",
"d. c #AE4E0B",
"f. c #9C6210",
"g. c #A46711",
"h. c #844A29",
"j. c #834D33",
"k. c #875339",
"l. c #9C5E3E",
"z. c #A55422",
"x. c #B6672C",
"c. c #AB712C",
"v. c #DE7920",
"b. c #9D5D41",
"n. c #A15F43",
"m. c #856A49",
"M. c #926D4D",
"N. c #9D754E",
"B. c #967A56",
"V. c #A76546",
"C. c #B26F4A",
"Z. c #B17A51",
"A. c #B47850",
"S. c #BF7E53",
"D. c #8B7D64",
"F. c #C27F53",
"G. c #2E8033",
"H. c #378D38",
"J. c #37973C",
"K. c #3AA03F",
"L. c #58802B",
"P. c #65A339",
"I. c #3D9441",
"U. c #3CA542",
"Y. c #3FAC45",
"T. c #4B8E4E",
"R. c #40B147",
"E. c #41B448",
"W. c #5F8260",
"Q. c #91854F",
"!. c #A98859",
"~. c #BA8856",
"^. c #A8945A",
"/. c #B9965A",
"(. c #AA9060",
"). c #B99863",
"_. c #D79143",
"`. c #C48355",
"'. c #C98959",
"]. c #D78D58",
"[. c #C9945D",
"{. c #D6935D",
"}. c #F99D55",
"|. c #CC9A61",
" X c #D39A62",
".X c #DD9C62",
"XX c #E09E62",
"oX c #EA9F66",
"OX c #D9A368",
"+X c #DCB373",
"@X c #E8A768",
"#X c #E3AE6D",
"$X c #E6B16F",
"%X c #E4B471",
"&X c #E8BA75",
"*X c #E9BC75",
"=X c #E0C17A",
"-X c #ECC57C",
";X c #EEC87E",
":X c #F1CB7F",
">X c #898687",
",X c #829082",
"<X c #EACA84",
"1X c #F3CD84",
"2X c #F3CC87",
"3X c #F5D386",
"4X c #F4D189",
"5X c #FAD48D",
"6X c #FCD791",
"7X c #FDD893",
"8X c #F9DB9A",
"9X c #FDE09E",
"0X c #DCC3A6",
"qX c #FCE7AE",
/* pixels */
"p p p p p k k p p p p p k p p k p p i k p p p p p p p k p p p p p p p p p p p p p p p p p p p p p p p k p p p p p p p p p p p p p p k p p p p j p i p p p ",
"p p p p p k p p k k p p k p p p p p k k p k p p p p p p p p k p p p p p i p p p k P p p p k p p k p p p p p p p p p k p p p p p p p p p k p k p p p p p p ",
"p p p p p p p p p p p k p p p p p p p p p p p k k p p p p p p H p p p p p i p p H _ H p p H p p p p p p p p p p k p p p k p p p p p k p p p p p p p p p p ",
"k p p p k i i i k p p p p p p p p p k p p p p p p p p p p p p U ) l p p k p p p ) ^ K p p K p p p p p k p p p p p p p p p p p p p p p p p p p k p p p p p ",
"p p p p p p i p k p p p p p p p k p p p p p p p p p p p p k p ) ~ U p p p ) p p ) ] U p p ) H p p p p p p p p p p p p p p p p p p p p p p p k p p p p p p ",
"p p p p p p k k p p p p k p p p p p p p p k p p p p p p p p k ) ~ ~ U p p ( P p _ , ] p H ~ p p k p p p p p p p p p p p p p k p k p p p p p p p p p p p p ",
"p p k p p p p p p p p k p p p p p p p k p p p p p k p p p p p ) S : S ' K _ ) H G.# W U ) N p p p p p p p p p p k p k p p p p p p p p p p p p p p p p p p ",
"p p p p p p k p k p p p p p p k p p p p p p k p p p p p U p p U S   X # W S c H ,   + W E & H p p k p i p p p p p p p p p k p p p p p k p p p p p p p p p ",
"p p p p p k p p p p p p p p p p p p p p p p k k p p p p U ( p p T       : X & ~ @     B v & ~ p i k p p k l k i p p p p p p p k p p p p p p p p p p p p p ",
"p p p p p p p p p p p p k p p p p p p p p p k l p p p p H ^ ( p S           X ~         X & ~ k k p p k k i i i p p k k k k p p p p p p p p k p p p p k p ",
"k p p k p p p p p p k p p p p p p p p p k k i i i i i y y U ~ p S                         * ~ p k k p i i i i y i i i i i p i k p p p p k p p p p p p p p ",
"p p p p p p p k p p p p p p p k p p p p k i i i U G C u y Z R 1 T                         X ~ o.p p i i i i i i y i i i i i i i p p p p p p p p p k p p p ",
"p p p k p p p p p p p p p p k p p p p i i i i i u ~ ~ ~ U F E @ :                           W F i i i i i i i i i i i i i i i i i i i i i p p p p p p p k ",
"p p p p p p p p p p p k p p k i k k i i i i i i i J ~ X X , E ~                 % .         T P i i i i p i i k i i i i i i y i y y i i i p p p p p k p p ",
"p p p p p k p p p p p p p p k k p p i y i i t t i p ( #     X , ,           7 %.f m.6 .   6 w.F p p p p p p p k p p p p p p i i y i y i i i i i p p p p p ",
"k p p p p p p p p k p p p p k p p p l p p i p p p p p ' #                   o 1X1X-X-X^.% 3X-XI l p k p p p p p p p p p i i i i i y i i i i i p p p p p p ",
"p p k p p p p p p p k p p p p k p p p p k k p p p p p H ( *               O '.<X4X7X7X7X8X6X5XB.k p p p k p p p p p p k i i i i i i i i y i p p p p p p p ",
"p p p k p p p p k p p p p p p p p p p k k p p p p p p p K c               m.oX.X^.:X3X5X6X6X(.6.p p p p p p p p p p k p p i i i i i p i i p p p p p p p p ",
"p k p k p p p p p p p p p p p p p k p k p k k p p p p p p ) 1           . % @X.Xz %.).-X5X/.z h p p p p p p p k k p p p p p k k p p p p p p p p p p p p p ",
"i i i i i p p k p p p p p k p p p i i p k p p p p p p p K K E &       % A.d @X'.6 $.h &.+X7 % w k p p p p p p p p p p p p p p p p p p p p p p p p p p p p ",
"i i y i y i i k i k p p p p p p p i i i p p p p p p p p P ~ * =       k. X'.XX'.].D.% 6.<X,.q y.k p k p p p p p p p p p p p k p p p p p p k p p p p p p p ",
"i i i i i i p l p p p p p p p p k k k k p p p p p p p p p K W #       k.|.{.XXoX}.O h.$X2Xj.. y.k p p p p p p p p p p p p p p p p p p p p k p p p p p p p ",
"i i p p p p p p p i i p p p p p p p p p p p p p p p p p p p H _ S +   k..X.XXX&X0Xd._.*X<X*Xd.D.l p p p p p k p p p p p p p p p p p p p p p p p p p p p k ",
"i i i p p p k p p p p p p p p p p p p p k p p p p p p p p p k H H U : $ j..X$X<X8XqX8X2X4X+X8XB.k p p p p p p p k p p p k k p p p p p p p p p p p p p p p ",
"i i i i i p k p p k p p p p p p k p p p p p p p p p p p p p p p p p I V #.{..X-X;X2X1X-X#XOX<Xm.k p k p p k k k p p p i p i i p p p p p i p p p p p p p p ",
"y y y y i p p p k p p p k k p p p p p p p k p p k p p p p p p p p p p C } l.'..X#X-X-XOX+X-XZ.k k p p p p k k i p p p i i i i i i i y i i i p k p p p p p ",
"p i i k p k p p k p p p k p p p p p p k p p p p p p p p p p p p p p C A m ..V.C.XX@X&X%X%X!.j k p p p p p p k k p k p p p i i k i i i y y y i p p p p p p ",
"p p p k p p p p p p p p p p p p p p p p p p p p p p p k p p p i U S E E R A ..V.l.V.'.N.N.j k k p p k p k i k k i p i i i i i i y i y i i i i p p p p p p ",
"p p p k p p p p p k p p p p p p p p p p p p k p p p p p p p i 9.Y.Y.E ^ R E M i.n.n.s.2 V i p i i k k k i k k k k k i y i w i i y i i p p p p p p p p p p ",
"p p p p p p p p p p p p k p k p p k p k p p p p k p k p p p T.E.Y.G.Y T ^ R T n 3 | 8 : 1 2 i i i i i i i i i i i i i i i i i i i i i p p p p p p p p p p ",
"p p p p p p k p p p p p p p p p p p p p p p p p p p p p p <.Y.Y.G.^.[.^.[ ^ ' Q a f.! S , = i i i i i i i i i w i i i y i y y i y i y i i i i i i p p p p ",
"k p p p p p p p p p p k p p p p p p p p k p p p p p p p p 9.Y.G.Q.-X9X*X/.[ ^ / a g.! S A = w i y y i y i i i i i i y i y i y i i y i i y i i i i i i i p ",
"p p p p p k p p p p p k k l p k p p k p p p p p p p k l I Y.^ T $X:X9X6X%X[.! / a g.! A A - i i i j i i i i i i i i i i i i i i i i i y i i i y i y y i i ",
"p p p p p p p p p p p k p i p p p p p p p p p k k p p H #.J.R X.:X:X;X9X3X|.! / a g.! R A - i %.5.B.l k p p k k p k p p p k p p i y y i i y i i y i i i p ",
"k p p k p p p p p p p i y i p p p p p p p k p p p p p p I.H.m v v.;X;X-X=X[.Y / a g.! N A 6 j A. X'.@.k p p k p p p p p p p i i i i y i y i i i i y y y y ",
"p p p p p p p k p p k p p i p k p p p p p p p p p p p p I.L. .c > c.;X#Xc.l.} m 5 g.Y  .8 >.`.F.|. X).k p p p p p p k p i i y y i i i i i i i i i i y y i ",
"p p p k p p p p p p p p p p p p p p p p p k p p p p k P H.Y.P.{ * = c./.z.i.c M 4 | N s 4 s XXV.`.&X X6.k p p p p p p p y i i i p p p p p p p p p p p p p ",
"p p p p p p p p p p p p k p p p p p k p p p p p p p p ` R.U.H.*.g n x { i., v M 4 | N v A  .x.F.~.`.'.6.k p p p p p p p i i i k p p p p p p p p p p p p p ",
"k p p p p k p p p k p p p p p p p p p p p p p k p p k =.] ^ ~ T M b b A N N N m 4 | N c n g i.XXC.#X(.k p p p p p p p p p k k k p p p p p p p p p p p p p ",
"p p p p p p p p p p p p p p p k p p p p p p p p p k k i P ~ T V ..a.a.a.a.a.a.i.3 p.| i.4 a * x.b.5.k k p p k p p p p p p p p p p p p p p p p p p p p p p ",
"p p p p p p p p p p p p p p p p p k k k k p k p p p p p p H p p t o o o o O 0 0 0 0 $ o = a i.z k k k p p p p p p p k p p p p p p p p p p p p p p k k k k ",
"p p p p k p p p p p p p p p k k p p i k p p p p p k p p j k p p u # + @ + V >X;.;.t.<.+ 0 p l k k p p p p p p p p p p p p p k p p p p p p p p j i i i i i ",
"p p k p p p p p p p p k p i i i p y p k l p p i p p p p p p p k K : & & # F >X;.;.t.0.# 0 p p p k k p p k p p k p p p p p p p p p l p p p p p k k i i y y ",
"p p p p p p p p p p p j i i i i y w 1.o.k k k k p p p p p p p p ) J.U.K.! D 0.0.0.0.L v u p p p k k p p p p p p k p p p p p p p p p p p p p p k i y y y i ",
"k p p p i i i i i i k i i i i w w 0 w y l i k k p p p k p k k p G.E.U.U.J.~ ~ S G.] ~ v < p p p k k k k k p p p p p p p p k p p p p p p p p i i i i y i i ",
"p p p i i i i i i w i i i i i i y w i k k k p k p p p p p p p i ' R.J.~ R ~ T ~ ! ] ] W 1 p p p i k i k p p p p p p p p p p p p p p p p p p l p p i i i i ",
"p p p y i y i i i y y i i i i w i i i i p p p p k p p p p p p u ~ ~ ^ ] ^ v : ~ ~ S c 1 < p p p p p k k p p p p p p p p p p p p p p p p p p p p p p p p i ",
"p p i y y i y i y i i i i i y i y i y i p p p p p p p p p p k p S v c c S : : , c c 2 1 < e p p k p k k p p p k p p p p p p p p p p p p p p p p p p p p p ",
"i i y i i y i y i y i y i y i y i y y i l p p p p p p p k p p k e.e.e.-.; < u : ; Q.-X&X.X#.k j p p p i i i i k p k p k i k k p p k p p p p k p p p p p p ",
"i i i y i i y i y i y i y i y i y i i i k p p p p p p p p p k o.;X4X4X;Xr.< p < r.-X1X5X;X).k k p p k i i i k k i p p p k k p p p p p p p p p p p p k p p ",
"p p p i i i p i y i y y y i i y i p p p p p p p p p p p p p k o.-X4X7X1X%X,.p p ^.=X1X6X6X;X+.j p p k k i k p p k k p p p p k p p p k p p p p p p p p p p ",
"p p p p p p p p i y i i i y y i i p p p p p p p k p p p p p j p 6.5X6X5X%X@.p p p +X;X6X6X4Xl l p p p k k p p p k k p p p p p p p p p p k p p p p p p p p ",
"p p p p p k k p p i y y y i i p p p p p p p p p p p p p p k k k 2.6X7X6X!.p p p l q.-X1X6X4Xl l k p p p p p p p p p p p p k k k p p p p p p k p p k p p p ",
"p p p p p p p p p p p p p i p p p p k p p k p p p p p p p p k l 5.;X7X4XN.p p p p O.).-X<X-X@.l p p p p i k p p p p p k k i p k k p p p p p p p p p p p p ",
"p p p p p p p p p i k p p p p p p p p k p p p p p p k p p k p H @.-X4X-XN.i p j k k !.#X%X%X.Xk p p p p k k p k p k p p k k p p p p p p p p p p p p p p p ",
"p p p p p p p p p k p p i p p p p p p p p p p p p p p p p i _ #.{.*X-XOXM.p p k k k @.{..X'.b.k p p k p k k p p p p p p k k i k p p p k p p p p p p p k k ",
"p p p p p k p p p p p k p p p p p p k p p p k p p p p p p e =.oX`.'.`.&.l k i k p H I S.S.k.e p p p p k p p p p p p k k p p p p p k p p p p p p k p p p p ",
"k p p p p p p p k p p p p p p p p p p p p p p p p p p p p e m Q.'.n.e p k j k k k C W E A v : p p p p k p p p p p p k k p p k p p p p p p p k p p p p p p ",
"p p k p p p k p p p p p p p p k p p k p p p p p p p p p K Y.v , ; : t p k k p k p i < , ; * e p p p p p p k p k p k k k p k p p p p p k k p p p p p p p p ",
"p p p p p p k k p p p p p p p p p p p p k p p p p p p p [ J.L 7.<.e t i p p p p p p ) T ,XH p p p p k k k i i i i i y i p p p p p p p p p p p p p p p k p ",
"p p p k p p i i k p k p p p k p p p p p p p p p i i p J [ ] 8.t.n y i i i i k k p H ~ ) u.:.p p p p p p p y y i y y y y y i k k p p p p p p p k p k p p p ",
"p p p p k i y i p p p p p k p p k p p p p p i i i y y D S <.4.K y y i i i y i p p K W L u.>X4.u y p p p k i i i i y i y y i i k p k p p p p p p p p p p p ",
"k p p p k p i p p p p p p k p p p p p p p p i y y i y m <.0.4.t y i i i i i i k p K S x W.W.0.= : i p p k p p p i i i y i i i k p p p p p p p p p p p p k ",
"p p p p k k k p p p p p p p p p p p p k i i y y i i t 1 v b * e i i i i i i k k p C v , N B < = : 0 i p p p p k p i y i i i i k p p p p k p p p p k p p k ",
"p p k k k p p k k k k k k p p k p p p i i y i i i y y 2 N , * : i k k p p p p p k l 1.1.1.1.1.1.1.;.i k k k p p p i y i i k p p p p p p p p p p k k p k p ",
"i i i k k k p y i k k k p p p p p p p i y i y i y i i 0 C J V r p k p p k p p p p k ;.l l l ;.l l l p p k p i i i y i y i i p p p p p k p p p k k k p p p ",
"i i i p p p p k 7.i p p p p p p p p k p p i p i k i k p ,.3.:.:.p p p p p k p p k k k k p p k p k k k p k k i i i i i y i p p p k p p k k k p p p i i p p ",
"y y y i i j 0 p ,.p k p k p p p p p p p p p k p k p k k p p p p p p p p p p p p p k k i p p p p j k p p k k k i i y i i p p p p p p p p p i y y y i i y i ",
"y y y i i i 0 q y p p p p p k p p k p p p p p p p p p p p p p p p p p k p p p p p k p p k p p p p p p p p p p k p p k k p k k i p p p p i y i i y i i y y ",
"i i p i k k k k p p p p p p p p p p p k p p p p p p p p p p p p p p p p p p p p k i k k p p p p k p p p p p p p p p p k k k k k k p k p p i i i i i i p i ",
"k l p k p p j k p p p p p p p p p p p p p k k k p p p p p p p p p p p p k p k k k p k k p p p p p p k p p p p p k k k k i i k p p p p p p p p p k p p p i ",
"p k p p p p k p p p p k k p p p p p p k p i y p p p p p p p p p p p p p k p p k k p p i p p k p p p p p p p p p k k k i o.o.k k p p p k p p k i y y y y i ",
"p p p p p i k k k k p p p k k p p p p p p y 3.i p p p p k p p p p p k i i k i l p p p k p k p p p p k p p p p p p p p q >.>.i k p p k p p p p i i p i i i ",
"k p k p k p k k p p p p k p p p p p p p i p 3.y p p p p p p p p p p k p p p i i i k p p p p p p p p p p p p p k p p i 9 9 0 k i p p p p p k p p k k k k k ",
"p p p p i i i p p p p k k k k k p p p i 0 9 w k p k p p p p p k p p p k p y ;.3.i k p p p p p p k p p p p p p p p k k i i p k p p k p p p p p p p k k k p ",
"k k p p k i p j i p k p k i i i i y y y i y i i p p p p p p p p p p p p y 0 0 9 k p p k p p p p p p p p p k p p p p p k p p p k p p p p p p p p p p p p p ",
">.,.3.3.,.>.y y y k p p p p i i y y y i y y y i p p p p p p l p k p p p k k i p p p p p k p p p p p p i k k k p p p p p p p k p p p p p p p p k p p k p p "
};
