/* XPM */
static char *result[] = {
/* columns rows colors chars-per-pixel */
"77 77 237 2 ",
"   c #272421",
".  c #292623",
"X  c #2C2B24",
"o  c #2D2E2A",
"O  c #302E25",
"+  c #312E2A",
"@  c #2E3124",
"#  c #2E3821",
"$  c #2C312C",
"%  c #323425",
"&  c #393725",
"*  c #353B25",
"=  c #3C3C25",
"-  c #33342A",
";  c #39362B",
":  c #353B2B",
">  c #3A3C2A",
",  c #2D3433",
"<  c #2E3935",
"1  c #2B373F",
"2  c #2B393E",
"3  c #343D33",
"4  c #393A33",
"5  c #413E26",
"6  c #413E2C",
"7  c #413E3B",
"8  c #364324",
"9  c #3B4325",
"0  c #374A27",
"q  c #3C4B25",
"w  c #36432C",
"e  c #3C442A",
"r  c #3D4A2B",
"t  c #3D5323",
"y  c #3B5621",
"u  c #3E532A",
"i  c #2F433C",
"p  c #354334",
"a  c #3B4433",
"s  c #354935",
"d  c #3B4C34",
"f  c #33443B",
"g  c #3F453A",
"h  c #344B3C",
"j  c #3B4D3C",
"k  c #375136",
"l  c #3C5235",
"z  c #35523E",
"x  c #3B523D",
"c  c #3B5A3D",
"v  c #434425",
"b  c #454A25",
"n  c #4A4D25",
"m  c #42452B",
"M  c #4A462B",
"N  c #434C2B",
"B  c #4B4D2A",
"V  c #504F2B",
"C  c #435425",
"Z  c #4D5226",
"A  c #455B25",
"S  c #4A5D25",
"D  c #44542A",
"F  c #4C532A",
"G  c #465A2B",
"H  c #4B5C2B",
"J  c #515526",
"K  c #525927",
"L  c #52552A",
"P  c #545A2B",
"I  c #585C2B",
"U  c #444333",
"Y  c #4A4534",
"T  c #434C32",
"R  c #4A4D32",
"E  c #43433D",
"W  c #424D3B",
"Q  c #4B4E3D",
"!  c #524D38",
"~  c #435334",
"^  c #4C5534",
"/  c #455A32",
"(  c #4B5C34",
")  c #43543B",
"_  c #49553C",
"`  c #455A3B",
"'  c #4B5C3B",
"]  c #535433",
"[  c #585731",
"{  c #535B33",
"}  c #585B35",
"|  c #53543B",
" . c #545D3C",
".. c #5C5C3B",
"X. c #605D3F",
"o. c #476024",
"O. c #4A6126",
"+. c #4C622B",
"@. c #536525",
"#. c #556A25",
"$. c #596E27",
"%. c #53642C",
"&. c #59652E",
"*. c #55692C",
"=. c #5A6C2C",
"-. c #5D722C",
";. c #4E6332",
":. c #4E613C",
">. c #536433",
",. c #5A6435",
"<. c #556934",
"1. c #5B6B34",
"2. c #53643B",
"3. c #5A643C",
"4. c #56693A",
"5. c #5B6B3B",
"6. c #5D7234",
"7. c #5E713C",
"8. c #5B773D",
"9. c #626B29",
"0. c #61752D",
"q. c #61782D",
"w. c #656939",
"e. c #616C3D",
"r. c #627633",
"t. c #647834",
"y. c #62733D",
"u. c #647B3D",
"i. c #697B3F",
"p. c #2C3D41",
"a. c #2D4343",
"s. c #2E4B45",
"d. c #2F4F48",
"f. c #314542",
"g. c #324C45",
"h. c #3B4946",
"j. c #3B4D44",
"k. c #314F48",
"l. c #2F5147",
"z. c #2F5448",
"x. c #2F594A",
"c. c #335246",
"v. c #3B5444",
"b. c #355A46",
"n. c #3C5A44",
"m. c #325449",
"M. c #3A5549",
"N. c #345B4B",
"B. c #3B5C4B",
"V. c #34624E",
"C. c #3C634C",
"Z. c #35694F",
"A. c #336550",
"S. c #396951",
"D. c #454A42",
"F. c #435543",
"G. c #4B5242",
"H. c #425A43",
"J. c #4B5C45",
"K. c #42554B",
"L. c #4B574C",
"P. c #435C4B",
"I. c #4B5C4B",
"U. c #575745",
"Y. c #545D44",
"T. c #525C4A",
"R. c #445D50",
"E. c #4C5E51",
"W. c #575950",
"Q. c #625A43",
"!. c #456247",
"~. c #44634D",
"^. c #4B624B",
"/. c #546343",
"(. c #5A6442",
"). c #566943",
"_. c #5C6C43",
"`. c #53634C",
"'. c #5C644B",
"]. c #546849",
"[. c #5C6B4B",
"{. c #5E7143",
"}. c #5F7C41",
"|. c #5F714A",
" X c #476351",
".X c #536353",
"XX c #5B6750",
"oX c #5E6C53",
"OX c #5B6659",
"+X c #5D6D5A",
"@X c #5E7059",
"#X c #686744",
"$X c #626D44",
"%X c #62664A",
"&X c #636C4C",
"*X c #6A6C4D",
"=X c #71694D",
"-X c #637343",
";X c #697545",
":X c #657C46",
">X c #697A43",
",X c #64744C",
"<X c #6A754B",
"1X c #6C7B4B",
"2X c #77764C",
"3X c #636C53",
"4X c #6A6A57",
"5X c #6B6C54",
"6X c #656E5B",
"7X c #726D56",
"8X c #647254",
"9X c #6B7555",
"0X c #6C7A54",
"qX c #64745B",
"wX c #6B745B",
"eX c #6D7A5B",
"rX c #727255",
"tX c #747D57",
"yX c #73735A",
"uX c #7A735D",
"iX c #727C5C",
"pX c #5E6D61",
"aX c #657363",
"sX c #6C7462",
"dX c #6D7962",
"fX c #6B7B67",
"gX c #737D63",
"hX c #777867",
"jX c #817B6E",
"kX c #6B8246",
"lX c #778947",
"zX c #6E8253",
"xX c #778755",
"cX c #778668",
"vX c #888B68",
"bX c #8E9170",
"nX c #8A9783",
/* pixels */
"q o Q D M.c.c.V.- 4.dX8XC D.C.V.s.s.B.2.9XwXC X q +.4.<.O.> ,X).{ N ^ wXsX7X| 6 X H L L B 6 S <.5.*.C y.0X-XS M 5.1.O.5 n B 3.0X<X%.. b <.6.<.C >.q >.>.*.",
"q + G.u m.c.c.B.3 <.eX8Xr j.Z.l.s.z.c 2.eXeXH . q +.+.<.S * ,X(.H N N &XsXsX' M . @.P P I V Z ,.7.&.{ #XrX5X#X9 #.6.J n Z v 1.dX1X%.X N <.7.,.S 3.q +.G @.",
"9 - G.d c.f.a.N.h >.eX[.` B.N.s.l.N.p 5.0XgX+.O 0 G u O.O.* <X5.( b C 5.wXhX( m X S [ K I J J } $X1.q (.'.+.C * *.1.n n n n 4.cXgX%.X b <.1.1.F Y.9 G c A ",
"^ $ Q T c.C.f.N.M.( qXoXn.V.z.s.k.n.T 1.,XgX<.% 8 A [.+.A * ,X$X;.N q 2.oXaX{ m X O.] J I J J Z .._.^ wX3X+.S @ #.n Z Z J B _.&XuX$Xo C 1.{.5.G '.q A uX7X",
"! o ! W.k.c.j.k.N.` wXI.B.x.s.f.c.V.w 1.<XgX5.- 8 { uX7XU.U ,Xy.%.N q 2.[.qX{ 6 > 9X%XL L J J Z n } F 8X9X%.Z X Z Z Z J J L %X3X%X^ = N iX9X7.Z /.M 5X6XaX",
"e X U r B.m.p.f.V.P.L.P.C.x.i g.z.v.w *.1XgX-X9 R 5XaXaX~ > 5.-X,.C r >.[.9X%.> % u ] [ J J Z n Z Z F 9X,X%.n X Z Z Z K J v >.&X5.A = Y (.&XyX( Y.R /.aXaX",
"d X e C h.c.c.2 d.B.j.C.x.s.a.a.l.B.% *.<XgX<Xb * /.aXaX^ < ^ ;X7.S b >.[.eX%.> % C 2...L I I n n v n wX&X%.v O n n Z J n b <.).7.A = # C S G ^ U q /.aX6X",
"v.$ a C H.k.g.2 a.c.B.V.x.p.a.a.x.>.O %.:XiX0XB 0  .pXE.) : { :Xy.@.N <.&X9X%.; % G ).wXL I K J v n v [ 5.@.= = b n Z Z v q 5._.5.P * % G S H b E 8 :.aXoX",
"x.h g G [.n.c.a.p.g.B.m.l.a.a.l.v.;.X @.-XeX8XD p F.R.M.j.: >.2Xy.*.b 5.,XeX%.- % G [.eXF B Z n n n b v &.@.& 5 b v J Z & b *.1.[ Z & * A %.H C J.8 :.aX@X",
"s.N.B.l Y.' v.m.p.f.B.c.a.a.a.d.P.*.- ) H.E.^.v.B.N.c.h.x 3 %.1Xu.=.N y.<XiX*.% O H 8XsX{ = n J J v v v v Z % n n n J n X n L Z L H o 8 O.>.H C '.8 :.pX[.",
"l.s.c.B.B.F.j.i p.f.B.s.p.p.s.s.h.B.C.~.S.N.A.N.m.c.M.v.v.3 %.1X>X0.Z -X1XiX&.- X ( qXdX>.O N J J J v b n J # n J n Z v & v n n L %.O 8 O.;.;.C 3X8 ;.@X[.",
"s.x.l.s.l.N.v.f.f.f.m.a.p.p.s.c.M.A.N.l.g.k.m.s.x.c.L.K.c.s @.1X>X-.F i.tXiX&.- o H qXeX<.X C L K K n v v v = v n n n = = b n L 5.%.O q O.4.>.G 3X9 :.@X[.",
"s s.x.c.s.a.x.m.f.a.s.p.p.a.z.s.s.s.a.s.d.l.N.l.f ) ^.B.k.f O.1Xi.0.F ;X0XtX{ * & Z ..] { * v Z J J n v v v = v v n = = n J n 3.-X@.X 9 O.4.2.S 8X9 ( qX|.",
": 3 c.d.m.k.a.l.N.a.a.1 p.a.s.a.s.l.x.l.x.b.M.) e ` P.B.s.h H >Xi.*.F P F P n n n n n Z n n v v 5 n n J v v = = b n = n J B I ,X-X%.+ q O.4.,.G 8Xm :.qX|.",
"* - D.l N.c.x.s.l.a.p.p.a.p.s.d.M.j h h F..XsX$.r ' ~.N.s.c.G u.0.$.Z w.[ J L L Z L B B n n n n n 5 & v v v = 5 v = n V B b 4.,X-X%.O 0 O.*.4.H 5X0 :.qX8X",
"* 3 D.D [.F.h a.s.1 1 2 a.f.g.j K.) 3 e 5.gX0X#.N J.C.V.k.c.~ rXi.1.S e.;X5XZ J K K T P P J Z n n n v 5 = = v = v n K n = q 4.,X-X%.O e O.<.5.H 4Xr :.qX8X",
"f j.B.v.B.v.v.i a.1 1 a.l.z.N.m.g.v.v.v.` oX-Xe.N ` ~.A.l.c.F.qX6XwX} ,.-XgXK B F B d L P I J J n n v 5 = = v v v L * 5 v n n $X-X%.- e ~ <.5.H 8Xr 2.qXqX",
"N.m.s.s.s.a.a.a.p.2 a.s.l.s.a.a.g.f.s.c.Z.^.3X3.N '  XA.s.l.c.6XwXwXS D -XgX1.> X d F...L b n Z Z n n b 5 v = n J v n b v v <.9X,X%.< p G <.5.H 5X9 2.qXqX",
"N.z.z.l.l.c.k.a.p.a.a.a.a.a.a.s.s.k.f.s.g.m.P.' q ` ~.A.s.l.b..X3XeXS U.uXvX=Xm < v.v.qXP . t +.n & = 5 v b n n Z P L n . 9 <.eX,X( h h / <.6.H 3.e 2.qXqX",
"i s.c.l.M.F.J.f 2 s.s.m.a.a.N.s.s.M.c.c.x.g.M.F.e ) P.A.s.s.m.~.3XeXK G._.3.C e h.c.j.qX+.X b v b n Z J J v 5 B L I r.S   9 <.eX,X/ j.k.l <.<.+.A e ;.fXeX",
": , W r [.|./.f , i a.s.P.f.g ~ M.c.V.g.j M.M.F.s (  XB.l.f.m.B.I.eXS U.{.<.T v.b.z.P.qX+.% n n n J K K n * v = n I =.A   = <.9X[.H.m.k.c <.,.H >.e :.qXqX",
"* 4 ! C 9X/.v.d X x c.s.N.g.r %.XXv.c.m.M..XOXG.r ) I.A.d.a.c.z.P.9X@.W._.2.C.B.c.l.E.[.Z v n n n J J F &.= * v N #.w.F   * <.eX[.H.m.l.c ;.<.S >.8 ;.@X8X",
"| + W r ^.M.v.D . ~ c.k.k.c.~ #X3XM.k.g.N.P.OX[.r T K.S.x.p.a.d. X&XK T.J.B.A.l.c.g.6X4XB n b b n n K 6.=.b = m R rX3.P X * ;.fXXXC.c.l.z ;.<.S +.= ( |.7.",
"* , g.c.B.K.).C X / I.m.c.V.s A _.F.c.g.x.b.~.^.r G F.B.N.a.p.d.B.(.G J. XV.c.l.x.) ( B B m M ] w.] $.r.=.Z % a N %X'.I X : _.sX`.C.x.l.n.` >.Z %.8 G H ;.",
"w s.V.c.OX4X5X3.- yX'.M.c.c.j S -X2.g.c.f.g.V.M.j._ D.S.z.a.a.s.M.I._ ~.B.d.s.d.s.d H (.%.: # y C C $.0.-.O.O f N 4./.H B U.=X'.` C.V.s.N.H.).A >.M 7X4X4X",
"8 < j T ( ;.H b - C ;.'.z k.s S :X5.< c.c.j.g.k.V.P.D.C.x.d.a.s.c.g.M.V.c.s.x.x.< t >._.%.; * A O.C #.-.-.K . h r 4.).D v N D 2.:.!.x.s.x.v.Y.uX] 9 /.aXhX",
"8 o a q ).4.>.A X t <.,X~ a.r S 1Xy.: f.c.M.f.p.k.N.M.C.x.d.p.p.k.c.N.g.s.s.d.f o C ;.{.%.% 9 A O.G @.-.-.@.X s.v.( 5.A X P ( ].J.C.x.s.z.n.l u 9 9 /.aXfX",
"9 @ m C )._.4.S o G <.{.H , e S 1Xt.> p c.N.M.f.p.a.g.P.B.s.p.p.f.c.s.s.l.N.x : X A +.{.,.: 8 A +.H #.-.=.@.X f.c.C.' G X e P [.' B.V.s.k.b.n.u v 8 /.fXfX",
"* @ T C [._.5.S X A <.{.%., p C 1Xt.> e ` v.c.g.p.p.p.h.C.k.p.p.a.c.a.x.c.` P p 3 l :.2.>.- 8 o.+.+.#.-.0.@.. p l.V.H.~ X 9 ;.[.3.!.N.s.f.x.z.l M 8 2.qXaX",
"* % N D _._.,.S   A *.{.%.o p d &Xy.e = ,.XXK.c.N.c.a.2 M.l.p.p.a.f.a.v.J.` n.n.B.V.N.B.) : w A @.+.#.-.0.@.. 3 s.l.B.B.o w 2.[.!.!.V.a.f.c.c.l N 0 >.6XE.",
"% % N G [.{.4.H . A *.5.%.X s c.H.:.e e 1.0XgX>.p f.a.p.a.c.a.p.a.p.f.` P.B.k.g.a.s.s.k.v.f p D +.@.#.0.0.#.. : c.v.g.V.c.a >.,X:.x B.x.a.a.l.c D e ) P.B.",
"@ % N G |.{.<.A   A *.7.,.X e s k.v.v.a { XX+X' j F.h.h.p.a.p.p.a.s.k.M.c.k.a.a.l.z.v.n.` : w D +.O.#.q.r.@.X * j b.k.k.b.C.H.'.4.n.B.c.i a.l.j.~ e J.S.N.",
"@ % ~ H [.$X<.S X A %.y.<.X 8 r b.B.c.c.B.C.S.V.N.x.V.N.A.p.p.1 p.d.m.l.p.a.k.m.s.k / 5.1.: e o.+.+.#.q.t.$.. & N c.g.2 g.N.m.P._ x Z.c.p.a.s.c.) v.C.m.a.",
"o * N ( ,X_.<.C   A %.7.%.o = R F.m.l.s.k.g.g.s.a.a.p.a.a.d.p.p.p.k.k.a.a.m.b.g.o C +.6.1.: 8 S @.+.#.q.0.$.. * H j B.B.v.f.k.S.P.j.C.N.s.a.a.s.g.b.V.g.k.",
"X * N H ,X3.<.C . A %.{.,.X 8 e )./.j.x.N.x.m.m.x.l.N.x.k.a.p.p.p.s.a.a.M.n.~ :   C +.7.5.> 8 o.%.+.@.t.r.#.O % H +.f k.s.p.p.s.m.B.B.l.s.a.a.d.m.m.g.s.m.",
"X = N ;.|.,.%.N   A @.y.<.O % m {.<X~ 3 g.g.c.m.k.m.M.h.j.a.p.p.a.a.s.k.K.2.#.:   C %.7.7.= 8 o.*.O.%.<X4.@.; % Z %.J.B.C.B.a.p.p.k.M.B.a.p.p.s.k.a.s.c.C.",
"X 8 T ;.|.,.%.b . A %.-X<.@ % R -X:XN Y e.5X6X<.e D `.L.M.k.p.p.g.a.c.b.B.^.%.:   b %.8.7.= 8 o.@.+.,.rXT._ Y % N <.dXY.2 c.k.f.p.p.f.B.d.p.p.a.g.a.c.M..X",
"  9 N ;._.5.I e   A %.-X,.o # b :X1Xm 9 *XyXyX} m j B.m.a.a.i f.j.s.a.g.c.B.H.>   u *.{.7.e * A >.O.C A u s f o q <.0X7.: h B.B.c.p.p.M.d.p.p.a.a.s.j F.P.",
". 0 N >.-X4.P e   C *.:X,.# @ b >X1X= 0 %.<._.( x c.k.a.d.g.4 h.G.x k.l.d.k.b.h . q +.7.-Xe 8 o.%.+.C S A k k.i a <.0X1.% ( ' ) g.i a.a.s.p.p.p.a.f.v.B.c.",
"X 8 b >.{.5.%.b   A <.{.1.@ @ D 1X1X* b ,.5.[.x c.l.s.N.N.) : M./.>.a H.M.c.c.j.$ r @.7.y.e * O.%.+.C A S C f s.b.v.^.' 3 ) H.v.v.h.g.a.a.p.p.a.s.m.c.g.a.",
"  a N %._.4.@.L . A @.5.] % X C u.0X> b ,.{.`.v.c.z.c.b..X>.> g.[.*.0 ( ` ` j g.< e ;.4.-Xe * A *.O.C S O.A p c.m.l.N.B.V.B.N.x.x.z.m.x.a.p.1 p.l.c.a.a.g.",
". Q ~ +._.<.@.L . C H m F % X Z >X1X& C 1.[.P.c.l.c.v..XqX<.f c.&X%.M $X).{ u p , e /.,X$Xr * o.%.O.C H +.A b o g.c.s.c.s.s.d.a.a.s.s.s.s.p.p.a.d.s.a.l.c.",
". * q >.{.1.+.B & b m 5 F % ; H u.<X* n 1.).H.n.f p :.@XqX( v.F.-X<.M %.3.+.A e i : yXhX3X..* S %.+.C @.+.S C . e n.B.m.l.m.x.m.m.c.s.f.a.p.p.a.a.a.f.j.E.",
"+ % q +.{.,.+.5 B 9 5 = m > = B P B b B ] ^ ^ P % q <.@XE.v.l.J.:X*.v *.5.%.C f a.W D H H D @ S <.+.F %.<.H A   r 5.`.c f z B.v.n.s < f a.p.p.a.d.m.c.v.OX",
"X * N F ^ P D v B V v * M L J J n b n n n B { %.% 9 %.OXM.N.g.).;X#.q <.,.@.G m.c.f u +.4.A o G >.9X! *.4.+.S X 9 y.zX-.* M ).>.H l f.g.f.a.2 s.a.s.c.B.R.",
"X v n n N n n n J B v L Z K K J P n n b P $X-X&.X 8 +.OXg.d.h 3.;X*.v =.1.%.~ c.s.c.u ;.4.G - 4X5X^ 8 &.<.@.@.. 9 e.zX-.6 B &X!.v.c.k.a.s.h f j.s.s.a.d.N.",
". * Q.R v = v M n v v 5 = v v v v b v F w.;X;X*.X * S qXK.h.k.v.' @.e *.6.<.~ m.k.c.l ;.2.S X y t u q @.=.%.@.X 9 1.tX-.v B Q B.m.k.s.x.K.'.j.a d g.l.x.k.",
"X * 9 B L P F v v 9 = v M v & & ^ 3X% @.y.0X0X%.X e u `.^.B.s.m.v.n.f ;.2.*.~ A.s.s.z 4.2.N @ 0 l s g.l *.1.$.X 9 1.zX-.B R v.m.s.l.x.i r r i r F ( K.j.N.",
"& B V J n v v v v 5 = = v v n Z L Y.& P -X1X<X%.  Y | %X4XI.C.a.d.x.x.B.g.` W B.s.s.v.2.2.r i z c.N.x.f.<.r.=.X = *.0X=.L j m.m.x.s.< 0 y 0 l.q S H : d ) ",
"n J n v = v v v = = v 5 = n n Z J J n L e.-Xy.F   @ u ' oX`.n.N.f.a.a.c.c.m.f.N.l.a.i J.F.i i z l l p D *.t.=.O * %.:XL B v.c.c.h w X 0 y h i C D P * G /.",
"n n 5 = v n v v = 5 v v 5 v b n n K I K K P 5.B   % G ).qX[.l j.m.g.a.a.p.a.a.a.d.s.f.x g.e # t S G 9 H 0.r.=.% * } $X[ T W ~ T G 9 . q s x.d b N <.* / [.",
"v 5 9 v n v n v = v v n Z v 5 n n n J I I P L B . % G `.6X[.H o I.n.B.c.k.s.s.a.a.a.a.f._ a * u G G m H r.t.-.% % ^ 4XF M F F F Z 8 X w x.s.D u b ,.* G ].",
"O ; b Z J n n v 5 n v v Z n 5 v n n n n P I I L = : l g.P.M.j.i /.~ j v.b.m.m.s.a.1 p.a.j.s.s.l.h x e G r.t.r.* O D 6XL F V J n F 9 o g.V.h G b b <.: G ].",
"X = Z J n n n = % n v 5 Z J B n M B n n n J L K F j l.m.z.N.d.z.c.b.i g g.s.a.p.p.p.p.a.a.s.h z x.z.g.d _.;X6.m o ~ 6XP K I n Z n b X s.i G O.N N 5.> D ).",
"% n Z Z n n b % & v b v P I P L 1X;X= n Z n Z F L L g x.d.a.s.s.s.s.s.a.p.a.p.1 p.p.a.f.j.c.s.d F j c.c.L.'.%X..X F 6X[ P P n Z B 9 X 0 u +.H D ] *X> G ).",
"v Z J n n v S O O b b v b L L B 7X<X4 &.Y.T T F B F F c N.N.m.m.s.k.a.d.a.a.p.p.p.c.k.g.j.p c.b.^ F N ^ z d G b . F 3Xn J P v n v q X y u +.H D 0 A * G (.",
"J K J Z n F H % X b v n v J Z n y.-X* ~ T.I.' g 4 p ) ~ H. X~.S.N.M.c.a.a.p.p.a.a.l.s.x.g.p w u ~ L L B n Z @.N . ( 6XB n Z v n v N X u C O.%.N 8 P B B Z ",
"J K n n B %.H % X N v n v Z J B } <X6 U.*XyX,.e . o D Y..X`.~ 4 K.g.s.a.p.p.s.s.p.N.d.a.m.m.p u ;.B L L n Z n n   H 3Xn Z J v n b 9   q A +.+.B B n n Z n ",
"J n n Z ( <.+.* X A n n v n L K L -X8 [ 2.3.{ M . @ G [.eX8XH , v.s.a.a.p.a.m.k.a.h.x.d.s.z.l.l H H B K K Z n n * P gXL P J v v v b   q u H Z Z n Z Z Z ] ",
"n n B G %.<.@.: X A } n Z n I I P e.9 ,.3.2.H > . O G [.sX8XH f m.s.a.a.a.m.C.f.p.p.P.N.s.d.m.c./ H V P I K J n v n eXR I I v n v b   q C N n Z n J J n  .",
"n n 9 S +.<.+.*   G [.B Z n P P P ,.9 w.7.(.H =   % G [.dXoXl N.s.a.a.d.m.N.M.p.a.f.j K.V.g.l.l.v.P D B L I P n n n ] L Z P 5 v v v . 9 v n n n K K J B oX",
"e O e A +.<.+.* ; X.7X{ n L J J Z ] 9 5.5.%XH *   @ G oXdX`.c.k.a.a.p.z.A.R.M.f.p.b.d ~ F.A.a.c.k.J.Q.T L P [ K n n v & B n v v n C O n n b n J J n 9 F oX",
"* X e A *.+.O.8 @ q u } V Z Z I L L r ,.y.$XH %   @ D oXpXP.V.c.s.p.l.B.C.j.M.a.p.k.b.( _ x N.g.z.J.N a @.P L J J n n 5 v n v v v v v n n n J J n G e H oX",
"% @ q A %.%.+.9 X t G { P J J I L B N 1.{.$XG %   % G 3XOX~.c.g.a.l.C.B.x v.C.a.i g.k.~ >.a c.m.l.h b > @.-.P n J J n n = n v v v v n n n J V L = P : H 3X",
"# % 9 A <.%.+.F X D G 2.F F K I P M m ,.e.-XH %   @ H XXK.N.c.s.l.N.V.p ^ ) V.k.2 b.k.~ 2.e p c.l.h C > %.$.=.K v n n b 5 5 v = = v v v n n b 9 : P 8 H qX",
"% @ U.rXwXhXjX..X A +.<.>.m J J P ! N 5.-X,XP -   % H ^.A.l.s.s.B.B.j.: G / m.g.f.c.B.` 3.9 : B.N.z C U >.%.K Z & 9 b n 5 5 = = = v b n v v = v v Z b F [.",
"@ % * N { 3.G t . u ;.4.>.% M K B b N 1.y.-X%.@   % D B.c.s.d.A.C.) o @ F ` B.N.v.c.g.) 2.r # h h d D v b n b n v = & 6 v = = v v v 5 = 5 v v n n n B F  .",
"X # 0 C t y A A . t +.5.{ * * F L m N 1.-X-X>.O   : x N.m.l.A.C.H.U . % G ( B.k.p.C.a.2._.N X h x D B n n n n J L J n v 5 v v 5 v v v n Z Z Z Z n Z b H 8X",
"X * r C y O.o.A X u O._.>.> * H B 5 B 5.-X-X*.X . a m.k.s.Z.C.) >.m . % G ^ B.m.h.c.h 2._.N @ h g./ G m B n v n K P P L J v B L B L L Z Z Z Z Z 9 N Q...[.",
". * e C A +.S A   t +.5.2.* 8 <...5 T 1.-Xy.,.X $ k.k.m.V.R.U.4 3.m   X P ' Z.s.k.x.k 4._.D @ p r +.A m P <.&.K v Z ..M & v n n n v 5 5 v y S A e * * | 7X",
"X * m D O.O.O.A   t ;.5.3.> q 1.;X+ N 1.7.-X,.o f c.B.C.L.Y.e o 1.M   O @._ n.c.c.s D 4._.G X p u o.A e #XtX1X#XY { iX= = v H J F b n n n b O.S 9 U 8 D /.",
"X : r u +.O.+.G   q +._.3.e C y.;XX F 5.y._.( 3 g.h l J.oX/.q ; 1.m   X >.) V.c.k.s +.4._.F X w A G A m L  .,.S % >.5X= = 9 H P +.S 9 & b C G G N > 0 / '.",
"  w r C O.o.O.A . t +.5.5.e F u.$Xo F 5.y.-X,.X X e / ].gX).r : 1.b   O %.F.N.x.h w +.4._.F X 0 y o.A q C #.O.A * >...6 * e A P +.S 8 . 8 y S A u * 0 ^ oX",
"X * e D o.o.O.A . q ;.5.2.e ^ :X5.# F 5.y.<XI X   9 ( oXhX[.N m e.9   @ %.G.v.v.r 0 o.<._.C O 8 A o.A q N *.$.O.8 <.%X1X% 9 A K O.O.8 . 8 y o.S D % 9 ( 3X",
"X * r N O.A S A   t +.4.5.9 ] :X,.: H 5.-X<Xe.X . 8 ( 3XsX[.r e w.9   O >.) g.` N 8 +.4.3.F O 0 u +.S r D *.$.@.0 >.gX1X% : A P O.S 9   0 t o.o.C % q { @X",
"X @ r q o.o.O.A X q ;.4.4.9 ! #X[ : H {.<X0X&.X   r ( 3XhX[.b T 1.=   X ( v.:.*.q q G <.4.C + 0 y o.O.q r $.$.#.b I cX>X% * A K A S 8   0 y o.o.C @ r :.@X",
"4 G./.).}.u.:X8.g 4.:XzXzX/.(.2X#XG.<XvXbXvXxXE E /.9XcXnXcX).3XxX%X7 E ^.zXxXlXe.' }.kXtX5.D._ 6.}.8.4.oXlXlXkX5.[.cXxXG.G.y.9.u.u.2.4 /.4.kX}.7.E ).0XcX"
};
