/* XPM */
static char *result[] = {
/* columns rows colors chars-per-pixel */
"76 76 92 1 ",
"  c #050507",
". c #060609",
"X c #08070C",
"o c #07080A",
"O c #0B0B0D",
"+ c #100F0F",
"@ c #0E100F",
"# c #070510",
"$ c #0D0E11",
"% c #100F12",
"& c #0E1213",
"* c #0F1817",
"= c #0F1418",
"- c #0F191A",
"; c #111415",
": c #151817",
"> c #131619",
", c #18171B",
"< c #151A1C",
"1 c #191B1D",
"2 c #1B201F",
"3 c #161E20",
"4 c #1A1E21",
"5 c #172022",
"6 c #1C2225",
"7 c #1E2827",
"8 c #1E2629",
"9 c #1E292A",
"0 c #212425",
"q c #222629",
"w c #232B2D",
"e c #292D2E",
"r c #2B302F",
"t c #252E31",
"y c #292E31",
"u c #2D2F39",
"i c #263132",
"p c #2A3335",
"a c #27363B",
"s c #2D3639",
"d c #2E393B",
"f c #323536",
"g c #31363A",
"h c #323B3D",
"j c #393E3E",
"k c #37403F",
"l c #2D3C41",
"z c #343E41",
"x c #393E43",
"c c #364143",
"v c #3A4345",
"b c #364449",
"n c #3C4549",
"m c #3D494B",
"M c #3E4C51",
"N c #41464B",
"B c #414B4D",
"V c #414650",
"C c #434E52",
"Z c #494E54",
"A c #455254",
"S c #495456",
"D c #465559",
"F c #4B5559",
"G c #4C595C",
"H c #50555B",
"J c #515B5E",
"K c #4E5661",
"L c #4E5D62",
"P c #545E61",
"I c #585D63",
"U c #4F6165",
"Y c #556264",
"T c #596366",
"R c #556469",
"E c #5B666A",
"W c #5D696C",
"Q c #5E6A70",
"! c #62676F",
"~ c #616C6E",
"^ c #626D71",
"/ c #647275",
"( c #6A7477",
") c #677479",
"_ c #6A757A",
"` c #6C797D",
"' c #6E7D82",
"] c #717E82",
"[ c #748285",
"{ c #758489",
"} c #79868C",
"| c #7C8A8F",
/* pixels */
"$$$$$$=$$==$$$#$#;$$$=$$$$$#;$$#%$$$$$$$$$#$$$$#$$$$$%%%$%=%%%$$&&&&&&@*&O*O",
">>>>==>>>>>>>>>>>-<>>>>>==>>>>>=>>>>>>=>33>>>>>>>><>>>3>34>>33>><<::<:*:;<<&",
"&=&=&&$$=$=-==$=$=&&=>==&=%===&&;=>>=>==>>;-=&=$>==>>>%>>>==><;$*;&*&&&***;&",
"$$$$=$$$$$$$$$$$=&$&$$$$$&$&=&==$$-&$%=$$&&&$=&>&&=$=>===$=$&;&&&&&&&&*@&&&&",
"-=$=>>>><$$>===>-$>>&;>>=>>>>>><>%<,><<>$><>>>>>>3,<<,3<>>13<><<<<:-<<<<;<<&",
"<>><3><,3<<3<->>>>><<<41<343><44<>333<33<443<44<<34334033344446366111314166>",
"3<3443<344306444434434663344314643q4330qq4666qq6340344q800066666686666666wq3",
"38q<-8q34qt46q6<4e64qyq<8t43ty44qt84qt34gw1qp636yq30yq4qy44fg86ti669w56gg979",
"44666qq64qq86q446004066664606606qq3qyq60e60q06q0q060q60qqqqqqqqq78qitqwiiew6",
"peeyyytypuypyyyfyypfyepgpepgyegpyyggpegjwpjfpfxgigggggjgygjppxhdsdkghchdhvhp",
"pewiywtppteppiggipdssgggfpggpsdsisgxgssjgsgddgjjghkhghhgygcpjcxhdhkshhzzxccg",
"989wwwwwe88etettwwwtwiiwttiwispiiitypdpissiypstiggspppsspytgtdsddddadspddsgy",
"ssggggggspssgdsshghghdhgggdggchhjjhggnBcdxchcnhckkccvnmBmnmvBvvmbnmcvccvvbvh",
"<<<<<><<<<:*<>;<1<<11<111<21<>11>><<1113<<11<651<<1<<<<12112<466222<152<<46<",
">=>>>;;;:&&<:;&;;&;>*;:;&&<*&&:<>;1;:;;<&;;:;;;:&<<:&:<<<:;:&:<<:<<<<<:<<<6;",
"%$%%;$;&&&O;&&&;;&@;$*;;&$;&OO*;&&<;<*;:;@;&;&;;&;:;;&;;;&;;&;;;;:;@*::;&*:O",
"XXXXXXOXXX Xoo OO  OXOOOoO$OooO$$O$$;$O%$ooOOOX$oO;OOOOOOOOXoXOOOOO ++Oo  @ ",
"XXXX$XOOOXOOOOO.OOXOOOOOOOO$Ooo&;;$;;%$;&OOOOOX$oOOo XXOOOOOO+OOO+O O+++++@o",
"XXX#X$XX .X  XOOOOOOOOOO$O$oo oOOO$O%XX%o ooo ..OOOOOO%#OXOXOOO oOOo    oo@ ",
"XXXXXXXXX$XXXOXXXXXOXOXXo#o$$O#&;$%%;$=>$X$#$$$$$OOO%#%#O%%$O++++++OOO++@@@ ",
"$X$#$$$X#$#XX##$$#$$$$OO$#$O%=#$;$$$$$>>O$OO$$#$%#O%O%#%##%OO%%+%%OOOOO%+@;X",
",>>><,,>,>,,,,,,>>,,<><<>><>33<<<<<<><<3<43<<,3111,,4,,,,,44,1011,,,1,10211,",
",333<<>><,<,,,<>,,3,<>33<>,43>3<<33<<3><4683<33344444,4,01444000441101600201",
"$>>=$=$%>>>&&>=>3>=>>=>>>><>>=<>%>3=$<<>=>>=>>>=>>,>44,,>4,>>,;%;>1>11;<>11;",
"&,3>>><>=33=-33333>3484=344334>3443>3443<3<4433333>38836443483=<2<2763156601",
"33433343-333353334844q84483448348q>44444664qq44688583538q46q8349722585697966",
"q44qq6688339859i94tpw8wyq8qyq8yyq4uyq8uu6qyw8tyq8wpt89p9qyzt6ti99pi99pd9qpt6",
"w40qe85tww99889p9wwsq98pputu6epstqsyw9pi6qipuusqwtzd9tziwlvytsst7pkiwckithse",
"0wy84ty6tlp99ds6udg9tgs5xnw6dpswpd9issttdptdncttxspskp9shppkmspgkdikk9dkkwfk",
"4yt43ti58t936t988pp65h57tx659p79ti87tt94pi7ihpw7pw8wpw5id96pgw9vkwikfwwkswwf",
"lytssytgdppsd9ictdbBdpikssdmpiccddnkspxzipvkdhmcpxbzicCkhnBkdvAckccckAmkkBmf",
"sytdstwidwwbdsdddaBAmkAmmibvzdmcdhvbclzxdkmvdncbkcmbkkmbhmBvcBmhkmmakkMpkmBh",
"ippiwwiiipiidpadikkkkkcckkkapkakcdkpdkkkkkakkkkkkkkknkdkkkkkkkkmbbxgzbczzbvg",
"mbccckkckkMMmvcmbmmMAmmbMMmmMmmAAAmMMAAADmMAADDGMDDASDSAGAALADGGGDDDZSCDLPIF",
"72565555777w75757579775w779i7799w9w9779i59997i9ii9i799w999iiwii99wiwtttiisse",
"<<3----2----2-<-----5-25--52-2-<<*725525-5222555272257555755577556555556668>",
"*;:****----**:<<2**---<-2--2,><<::21-2-5<<<<2-215-22-22<<22<222-<153141,356;",
"OOOO@@@@*@@*&$@O@@o*$@&&@@@@X+&;<;>;***2*$@&&@@&@*&&&&&&&;&&*&&*&&&*&%%+&&;o",
"XoooOoOoOoooXXOOooooOo@OoOooOO%;:*;;:;:2&$@OOOOOoO@@@O&O@@O;O&&@+;@;OXXX$O$o",
"OOOOOOOO@OO@+OOO@o@@OO@@@&@@+%%;<;;>>;::*$OOO@OO@O@@@@O$+&$;O@OO++OOO&O+O$&o",
"OXOOOOOOOOOOOO%+@OO%OO+X++OO%%O;:%;:,::,%OOO+%%%+OO;+$O+%%%;++O+%%##+O+O+OO ",
"O oO%++OO%%Xo$OOO@OOO%+;O%OO+ +;:%%:,:+%:+X+%+X%O;;OXO;&%O+OO%++%#+++++OO%$ ",
":,,>>,,;>>,311,,<111,,,,,,<1,,,,,,,,111<,,,1141<1<1161221611,021,46,,1102101",
"41111444064qq00q6640q000000tee0qq0e0qq0701e00ee8qqqeqqqwpqqpeqeeuquueeeqeyy6",
"<-><<<<<<<<<><<<<<<<1>3=-<2565<<1<51332->4611555462<-5553553664444444443400>",
"-<1<>463<43<355<355<43515255658<4q1666756q699657q655755768650q888448844te4q4",
"6896698656666868687799999996wti79i999wwitwqwi999pw9iiiwidw8dp9pdl46ul8wlawut",
"w86wtq8wiwwitwippiiiip9diiidiiidsiddpddatddpipkdiddpwkkppcdspzxalllllllulxlu",
"diisdttzd9wbgwsmsisCctcml9zmswmmdimmddmnwnGmsdSmwcmcidAhimScpMCbaMMaaMMbbbMa",
"tsdwttd9tvxttdpt9ddsid5psmdiivwaddidpds9bzpcSddimkdcCzdhbdicmdaDMkbbbbaLMbcc",
"pgzitpltpnmiizd9uxzidcdsbBlszbsszcidclssnkpcAmhzmkamGBgbvvccmzcDUbkmMlbUDllb",
"nxbvxsgzxzxnbghbzzzxzlmFBvVDcxmNcznBcbCncbCnmCGZnmmASFPZbJ~vMDLDMLMmbMMMDDDb",
"mxxnVusxxzzZVxnCNxVZmxHDSnHHDvFDMvFDVCFFmAGSCFPGASIFZZEIZIEZFPPGAJUMMGGMGRYZ",
"lsuggyyugugujzzzxuxxxvBjzzvxnxvvvbVvxvnvnnnnCNmnnvNVxbNVZvvNVBmbmmmmmbcmmmSN",
"ZZZZFZHHZHHZZHHZIIIIPPTSGITTIJIJT!EITEEEITETWETW^E!^](!EE^~^E!^W~~EWW/(YR/~!",
"xgxxgggxzggggxxxxxNNvvNvvNBBmvNNBHNmNvmCVBBCCCCCVZSHIHZZZZZZZSSAAABmAAAmCSCZ",
"3<11<<<:3><34334<3444<111162211112q4446656666569668844444448868469q88q668qq4",
"4<64422244044444614441266026260661q4046q22696668qqq44qq00qq46qqq68qqqq868qy4",
"$&;;;;+:>;;;%;%>&;&@&;;>>;>;>>,,11:111<1***2-***%=,%,>>>>>>>>3,><::*<<>-,34#",
"X$XO$&@@#%%XXO%XO@@@oO&%+OOO;+#%,:;:,>,1*@@@&*&@=%%=>>$+$$$$#$=#@&&@&O@@$#=#",
"@@OO++@@@@++;+@O+++@%=>>;;;$,>%30,:,1:10:@@@@*:;=%,%;%%;:;;;>%;;:@*::&+;=$;#",
"O@oO++@@@@@+O+@@++@+%%%%$%%$%%%,0:::::22*@@*@O@;#%#%%%%;%++;%%&&@@@@@@+;$$;#",
"::::::::2::::1::1:,,,,4,3,3,,,122,,2:220222222,1434,,24111;q126:202222,0214>",
"2000000200000q0wq0qqqqqqeeqyeefe0erre0rrrrwww9qeyeeeeefffjqffffefrerrrefryyy",
"2226222<15622566626243<444344q6455772257ww2777577755679qww6qewqqwq6qwww2qew4",
"2<556255152<56562666686988888q889www79w9w7777557977w6ww6999t9ew9trwt6277898q",
"77999969q99w999i7w9w9t3d89tt8i6t9799wwiww9ipiiaa99a9tqsi99k7stwpwid9iddppait",
"ptwpdi9pptpsdpphipihdssxppdbpsxvkakbddccaackakblkkcbpbnzkkmbzbmdkcckkmkkznnu",
"szggddddzzbbvhdkdcdzxmdxsxxbdbmmkkkbbkbmmckbmmbkbbcmmnbbmkMMLMmMMbbbbMbDAMMM",
"txxutvVsdZZddBbpdAbsxHvsxDzpASzxDGkkDDkkWDkcDbkkDmkmGmdmUckURMbDUbcLDbMRRmmK",
"lllznnVnnmCmbxvmzbvvbCsDbvxVxmnZADmDUAAkUAMMMmDMMSDAMAAMmMDMMAMDMMMUUUMURLDM",
"IHDTTEKWEPP/^JW`QE^`^Y^`^P)'EP``RU`'W/([LW[/U'[)U/[/R`[)W[|^W['Q/[{``||/[|})",
"ZCZmSnAGCSJSJTTYTTTTYY~GWWEY(ETT//(WW/(W/////WW/(^`)!)!QQQQ)EQQ)W/'UR/W//W)/",
"DSSFCSAASGJFSSGSYJJGYJSYGPYEGEYYJWYJTTTYYTJTWWYTWYEEEEQ)!Q!Q)EQQWQWR/W/UWWWQ",
"GAASGSAAGSSJGAGGYGPYJS~GJPYTWT~EUTTJWG(TTYTTW(/YE!WWQQ_)QQ''^_^QW/)/W/WRWW/W",
"977www9ww77ii9wirwiiw7p9t9ii7wpw77kk7kki7iriiriitaatttuuttuuuapuiakiikiipidw"
};
